SplineFontDB: 3.2
FontName: BMusicFont-13
FullName: BMusicFont-13
FamilyName: BMusicFont-13
Weight: Regular
Copyright: Copyright (c) 2020 Steinberg Media\nCopyright (c) 1996-2020 The LilyPond Authors\nCopyright (c) 2014 Abraham Lee\nCopyright (c) 2020 Daniel Benjamin Miller\n\nunder the SIL Open Font License \\(http://scripts.sil.org/OFL\\).
Version: 1.0
ItalicAngle: 0
UnderlinePosition: -100
UnderlineWidth: 50
Ascent: 800
Descent: 200
InvalidEm: 0
sfntRevision: 0x00010000
LayerCount: 2
Layer: 0 0 "Back" 1
Layer: 1 0 "Fore" 0
XUID: [1021 572 -1837316912 12324008]
StyleMap: 0x0000
FSType: 0
OS2Version: 4
OS2_WeightWidthSlopeOnly: 0
OS2_UseTypoMetrics: 1
CreationTime: 1588069871
ModificationTime: 1593287805
PfmFamily: 17
TTFWeight: 400
TTFWidth: 5
LineGap: 90
VLineGap: 0
Panose: 2 0 5 3 0 0 0 0 0 0
OS2TypoAscent: 800
OS2TypoAOffset: 0
OS2TypoDescent: -200
OS2TypoDOffset: 0
OS2TypoLinegap: 90
OS2WinAscent: 2124
OS2WinAOffset: 0
OS2WinDescent: 2311
OS2WinDOffset: 0
HheadAscent: 2124
HheadAOffset: 0
HheadDescent: -2311
HheadDOffset: 0
OS2SubXSize: 650
OS2SubYSize: 699
OS2SubXOff: 0
OS2SubYOff: 140
OS2SupXSize: 650
OS2SupYSize: 699
OS2SupXOff: 0
OS2SupYOff: 479
OS2StrikeYSize: 49
OS2StrikeYPos: 258
OS2XHeight: 293
OS2Vendor: 'PfEd'
OS2CodePages: 00000001.00000000
OS2UnicodeRanges: 00000001.10000000.00000000.00000000
Lookup: 4 0 1 "BMusicFont-11-ligaStandardLigaturesinLatinlookup0" { "BMusicFont-11-ligaStandardLigaturesinLatinlookup0 subtable"  } ['liga' ('latn' <'dflt' > ) ]
MarkAttachClasses: 1
DEI: 91125
TtfTable: LILF 84
An?'m0f'qaATV?4DJsW.BOtU_F"oHnAn?'m/S8g-B6,d`+E1b0D.RcsDD<piE+*d(ATM9t/T,KK
AS>X`A90I]+D,2,@4bo(E+iZhATTX_
EndTtf
TtfTable: LILC 94843
-urm?FE9&g+>+!L-t6Y(GT\U]-nR,*0JG170JFV$0ePIE3&`]K+>b]01,Ua@0H`&%0JG170JFq)
$7Kt<@V0OrF<E1Y,%bD.@50P^.1.JEF^es$DKIIEDId='+>+cm1FWYZ@<?U"@q]^jDKI!R+=K'!
2_m6E1,'h'+>>E%0JG170I\G".1.JDATMs7/hnJ$$7I<3@W-K6/g)Po0J5%50JG17+>#9"0JG17
0JFV+/iPOC0JY=)0ePIE3&`]K.4GTPF*1r(Df0Y>/g)?MATV?81En7T.!'N?AoDR//ST*5AU#=M

StartChar: rests.0
Encoding: 23 57600 1
Width: 283
Flags: MW
LayerCount: 2
Fore
SplineSet
73 -135 m 6
 58 -135 47 -123 47 -109 c 6
 47 -17 l 6
 47 -2 58 9 73 9 c 6
 303 9 l 6
 317 9 329 -2 329 -17 c 6
 329 -109 l 6
 329 -123 317 -135 303 -135 c 6
 73 -135 l 6
EndSplineSet
EndChar

StartChar: rests.1
Encoding: 24 57601 2
Width: 283
Flags: MW
LayerCount: 2
Fore
SplineSet
73 -2 m 2
 58 -2 47 10 47 24 c 2
 47 116 l 2
 47 131 58 142 73 142 c 2
 303 142 l 2
 317 142 329 131 329 116 c 2
 329 24 l 2
 329 10 317 -2 303 -2 c 2
 73 -2 l 2
EndSplineSet
EndChar

StartChar: rests.0o
Encoding: 25 57602 3
Width: 282
Flags: MW
LayerCount: 2
Fore
SplineSet
-54 -25 m 2
 -68 -25 -79 -14 -79 0 c 0
 -79 14 -68 25 -54 25 c 2
 430 25 l 2
 444 25 455 14 455 0 c 0
 455 -14 444 -25 430 -25 c 2
 329 -25 l 1
 329 -26 l 1
 329 -118 l 2
 329 -132 317 -144 303 -144 c 2
 73 -144 l 2
 58 -144 47 -132 47 -118 c 2
 47 -26 l 1
 47 -25 l 1
 -54 -25 l 2
EndSplineSet
EndChar

StartChar: rests.1o
Encoding: 26 57603 4
Width: 282
Flags: MW
LayerCount: 2
Fore
SplineSet
-54 25 m 2
 47 25 l 1
 47 26 l 1
 47 118 l 2
 47 132 58 144 73 144 c 2
 303 144 l 2
 317 144 329 132 329 118 c 2
 329 26 l 1
 329 25 l 1
 430 25 l 2
 444 25 455 14 455 0 c 0
 455 -14 444 -25 430 -25 c 2
 -54 -25 l 2
 -68 -25 -79 -14 -79 0 c 0
 -79 14 -68 25 -54 25 c 2
EndSplineSet
EndChar

StartChar: rests.M3
Encoding: 27 57604 5
Width: 381
Flags: MW
LayerCount: 2
Fore
SplineSet
256 230 m 2
 256 247 263 250 272 250 c 2
 364 250 l 2
 374 250 381 247 381 230 c 2
 381 -229 l 2
 381 -246 374 -249 364 -249 c 2
 272 -249 l 2
 263 -249 256 -246 256 -229 c 2
 256 230 l 2
16 -249 m 2
 7 -249 0 -246 0 -229 c 2
 0 230 l 2
 0 247 7 250 16 250 c 2
 108 250 l 2
 118 250 125 247 125 230 c 2
 125 -229 l 2
 125 -246 118 -249 108 -249 c 2
 16 -249 l 2
EndSplineSet
EndChar

StartChar: rests.M2
Encoding: 28 57605 6
Width: 125
Flags: MW
LayerCount: 2
Fore
SplineSet
16 -249 m 2
 7 -249 0 -246 0 -229 c 2
 0 230 l 2
 0 247 7 250 16 250 c 2
 108 250 l 2
 118 250 125 247 125 230 c 2
 125 -229 l 2
 125 -246 118 -249 108 -249 c 2
 16 -249 l 2
EndSplineSet
EndChar

StartChar: rests.M1
Encoding: 29 57606 7
Width: 126
Flags: MW
LayerCount: 2
Fore
SplineSet
16 0 m 2
 7 0 0 7 0 15 c 2
 0 235 l 2
 0 243 7 250 16 250 c 2
 108 250 l 2
 118 250 125 243 125 235 c 2
 125 15 l 2
 125 7 118 0 108 0 c 2
 16 0 l 2
EndSplineSet
EndChar

StartChar: rests.M1o
Encoding: 30 57607 8
Width: 294
Flags: MW
LayerCount: 2
Fore
SplineSet
10 -25 m 2
 5 -25 0 -20 0 -15 c 2
 0 10 l 2
 0 16 5 20 10 20 c 2
 85 20 l 1
 85 219 l 1
 10 219 l 2
 5 219 0 224 0 229 c 2
 0 254 l 2
 0 260 5 264 10 264 c 2
 284 264 l 2
 290 264 294 260 294 254 c 2
 294 229 l 2
 294 224 290 219 284 219 c 2
 210 219 l 1
 210 20 l 1
 284 20 l 2
 290 20 294 16 294 10 c 2
 294 -15 l 2
 294 -20 290 -25 284 -25 c 2
 10 -25 l 2
EndSplineSet
EndChar

StartChar: rests.2
Encoding: 31 57608 9
Width: 270
Flags: MW
LayerCount: 2
Fore
SplineSet
117 -366 m 0
 44 -310 1 -261 1 -211 c 0
 1 -158 40 -115 83 -115 c 0
 88 -115 94 -118 99 -118 c 0
 103 -119 111 -121 115 -121 c 0
 120 -121 124 -120 126 -116 c 0
 127 -115 127 -113 127 -112 c 0
 127 -110 123 -102 121 -98 c 0
 108 -77 94 -58 78 -38 c 2
 29 22 l 1
 29 22 19 32 19 46 c 0
 19 54 23 65 33 75 c 0
 78 122 93 165 93 202 c 0
 93 274 36 325 32 336 c 0
 29 342 28 347 28 352 c 0
 28 366 38 373 48 373 c 0
 54 373 61 370 66 365 c 0
 83 348 231 172 231 172 c 1
 231 172 235 163 235 153 c 0
 235 148 234 143 231 138 c 0
 205 97 169 49 165 -9 c 0
 165 -13 164 -18 164 -22 c 0
 164 -78 195 -115 233 -161 c 0
 244 -173 270 -206 270 -218 c 0
 270 -221 268 -222 265 -222 c 0
 263 -222 261 -222 258 -221 c 0
 257 -221 256 -220 255 -220 c 0
 239 -214 206 -203 177 -203 c 0
 135 -203 114 -235 114 -276 c 0
 114 -285 115 -294 118 -302 c 0
 120 -311 131 -338 144 -338 c 1
 152 -345 160 -353 160 -362 c 0
 160 -364 159 -366 158 -369 c 0
 157 -373 150 -375 143 -375 c 0
 135 -375 125 -372 117 -366 c 0
EndSplineSet
EndChar

StartChar: rests.2classical
Encoding: 32 57609 10
Width: 250
Flags: MW
LayerCount: 2
Fore
SplineSet
12 167 m 0
 14 167 17 167 23 163 c 0
 30 157 80 97 113 97 c 1
 113 107 l 2
 113 144 143 174 180 174 c 0
 217 174 247 144 247 107 c 0
 247 86 235 68 220 56 c 0
 211 50 202 45 192 43 c 0
 184 41 175 39 166 39 c 0
 152 39 138 42 127 46 c 0
 113 50 104 54 91 61 c 0
 89 62 87 62 86 62 c 0
 82 62 81 58 81 53 c 0
 81 50 81 46 82 42 c 0
 85 27 157 -172 175 -238 c 0
 175 -250 152 -251 146 -251 c 0
 135 -251 121 -249 111 -241 c 0
 108 -239 10 112 10 112 c 2
 6 130 1 146 0 151 c 0
 0 164 10 166 12 167 c 0
EndSplineSet
EndChar

StartChar: rests.3
Encoding: 33 57610 11
Width: 250
Flags: MW
LayerCount: 2
Fore
SplineSet
27 56 m 0
 12 68 0 86 0 107 c 0
 0 144 30 174 67 174 c 0
 104 174 134 144 134 107 c 2
 134 97 l 1
 167 97 217 157 224 163 c 0
 230 167 233 167 235 167 c 0
 237 166 247 161 247 151 c 0
 246 146 241 130 237 112 c 2
 237 112 139 -239 136 -241 c 0
 126 -249 112 -251 101 -251 c 0
 95 -251 72 -250 72 -238 c 0
 90 -172 162 27 165 42 c 0
 166 46 166 50 166 53 c 0
 166 58 165 62 161 62 c 0
 160 62 158 62 156 61 c 0
 143 54 134 50 120 46 c 0
 109 42 95 39 81 39 c 0
 62 39 43 45 27 56 c 0
EndSplineSet
EndChar

StartChar: rests.4
Encoding: 34 57611 12
Width: 320
Flags: MW
LayerCount: 2
Fore
SplineSet
80 -209 m 0
 42 -209 0 -182 0 -141 c 0
 0 -103 30 -73 68 -73 c 0
 105 -73 136 -103 136 -141 c 0
 136 -144 136 -147 135 -151 c 1
 149 -151 176 -139 184 -120 c 0
 191 -105 242 44 242 60 c 0
 242 65 240 67 237 67 c 0
 235 67 233 66 230 65 c 0
 207 52 179 43 152 43 c 0
 114 43 72 70 72 111 c 0
 72 149 103 179 140 179 c 0
 178 179 208 149 208 111 c 2
 208 101 l 1
 242 102 292 162 299 168 c 0
 302 170 305 172 310 172 c 0
 312 171 320 167 320 161 c 0
 320 160 319 159 319 157 c 0
 317 144 292 56 292 56 c 1
 292 56 273 -11 247 -96 c 2
 131 -477 l 2
 127 -488 122 -500 93 -500 c 0
 71 -500 62 -490 62 -482 c 0
 62 -481 63 -480 63 -479 c 2
 158 -196 l 2
 158 -195 159 -194 159 -193 c 0
 159 -190 157 -188 155 -188 c 0
 132 -200 106 -209 80 -209 c 0
EndSplineSet
EndChar

StartChar: rests.5
Encoding: 35 57612 13
Width: 363
Flags: MW
LayerCount: 2
Fore
SplineSet
0 -141 m 0
 0 -103 31 -73 68 -73 c 0
 106 -73 136 -103 136 -141 c 0
 136 -144 136 -147 135 -151 c 1
 150 -150 181 -137 186 -116 c 2
 226 48 l 2
 226 53 224 61 219 61 c 0
 218 61 217 61 216 60 c 0
 193 48 167 38 141 38 c 0
 131 38 122 40 114 42 c 0
 104 45 95 49 87 56 c 0
 71 68 59 86 59 106 c 0
 59 144 89 174 127 174 c 0
 164 174 195 144 195 106 c 0
 195 103 195 100 194 97 c 1
 210 97 243 117 248 133 c 2
 287 293 l 2
 287 294 288 296 288 297 c 0
 288 303 284 313 277 313 c 0
 276 313 274 313 273 312 c 0
 250 300 223 290 197 290 c 0
 187 290 179 292 171 294 c 0
 161 297 151 301 143 308 c 0
 127 320 115 338 115 358 c 0
 115 396 146 426 183 426 c 0
 221 426 251 396 251 358 c 2
 251 349 l 1
 285 349 335 410 342 415 c 0
 345 417 348 419 353 419 c 0
 355 419 363 417 363 408 c 0
 363 407 362 406 362 404 c 0
 360 392 336 303 336 303 c 1
 336 303 164 -467 161 -479 c 0
 157 -490 154 -500 122 -500 c 0
 101 -500 95 -492 95 -484 c 0
 95 -482 95 -480 96 -478 c 0
 98 -471 167 -196 167 -192 c 0
 167 -189 164 -186 161 -186 c 0
 160 -186 159 -186 158 -187 c 0
 135 -200 107 -209 80 -209 c 0
 42 -209 0 -182 0 -141 c 0
EndSplineSet
EndChar

StartChar: rests.6
Encoding: 36 57613 14
Width: 424
Flags: MW
LayerCount: 2
Fore
SplineSet
0 -385 m 0
 0 -347 31 -317 68 -317 c 0
 106 -317 136 -347 136 -385 c 0
 136 -388 136 -391 135 -394 c 1
 148 -394 174 -385 180 -364 c 0
 184 -353 219 -210 220 -205 c 0
 220 -204 221 -200 221 -197 c 0
 221 -191 220 -183 215 -183 c 0
 214 -183 213 -183 212 -184 c 0
 199 -190 196 -194 182 -199 c 0
 170 -203 156 -206 142 -206 c 0
 133 -206 123 -204 115 -202 c 0
 105 -199 96 -194 87 -188 c 0
 71 -176 59 -158 59 -137 c 0
 59 -100 90 -69 127 -69 c 0
 165 -69 195 -100 195 -137 c 2
 195 -147 l 1
 209 -147 236 -138 244 -112 c 0
 247 -104 283 41 285 50 c 0
 286 52 286 53 286 55 c 0
 286 60 284 64 280 64 c 0
 279 64 278 64 276 63 c 0
 250 51 222 42 194 42 c 0
 185 42 177 43 169 45 c 0
 140 54 113 78 113 110 c 0
 113 147 144 178 181 178 c 0
 219 178 249 147 249 110 c 2
 249 100 l 1
 266 100 302 121 309 140 c 0
 313 151 347 293 348 296 c 0
 349 300 350 303 350 306 c 0
 350 313 346 317 341 317 c 0
 339 317 336 316 334 315 c 0
 310 304 285 293 258 293 c 0
 220 293 176 320 176 362 c 0
 176 399 206 430 244 430 c 0
 281 430 312 399 312 362 c 0
 312 358 312 355 311 352 c 1
 345 352 395 413 403 419 c 0
 406 421 409 423 414 423 c 0
 418 422 423 419 423 408 c 0
 420 395 396 306 396 306 c 1
 303 -94 l 2
 299 -112 280 -193 279 -193 c 0
 159 -709 151 -727 149 -736 c 0
 145 -747 140 -753 116 -753 c 0
 93 -753 84 -748 84 -739 c 0
 84 -737 84 -735 85 -732 c 2
 157 -453 l 2
 157 -451 158 -449 158 -447 c 0
 158 -441 155 -436 150 -436 c 0
 149 -436 148 -436 146 -437 c 0
 129 -446 101 -453 82 -453 c 0
 64 -453 42 -447 28 -435 c 0
 12 -423 0 -405 0 -385 c 0
EndSplineSet
EndChar

StartChar: rests.7
Encoding: 37 57614 15
Width: 485
Flags: MW
LayerCount: 2
Fore
SplineSet
82 -453 m 0
 44 -453 0 -427 0 -385 c 0
 0 -347 31 -317 68 -317 c 0
 106 -317 136 -347 136 -385 c 1
 139 -395 l 1
 153 -394 172 -393 185 -359 c 0
 193 -340 225 -199 227 -191 c 0
 227 -187 225 -183 221 -183 c 0
 220 -183 218 -183 217 -184 c 0
 204 -190 196 -194 182 -199 c 0
 170 -203 156 -206 142 -206 c 0
 104 -206 60 -179 60 -137 c 0
 60 -100 90 -69 128 -69 c 0
 165 -69 196 -100 196 -137 c 0
 196 -141 195 -144 195 -147 c 1
 210 -147 240 -136 248 -109 c 0
 253 -93 283 29 286 44 c 0
 287 48 288 52 288 55 c 0
 288 61 286 65 282 65 c 0
 280 65 278 64 276 63 c 0
 263 57 255 53 241 48 c 0
 229 44 215 41 201 41 c 0
 163 41 118 68 118 110 c 0
 118 147 149 178 186 178 c 0
 224 178 254 147 254 110 c 2
 254 100 l 1
 270 100 305 120 310 140 c 2
 349 296 l 2
 350 300 351 305 351 310 c 0
 351 317 350 323 346 323 c 0
 345 323 344 323 343 322 c 0
 330 316 312 307 298 302 c 0
 286 298 270 296 256 296 c 0
 234 296 221 301 203 313 c 0
 187 325 175 343 175 364 c 0
 175 401 206 432 243 432 c 0
 281 432 311 401 311 364 c 2
 311 354 l 1
 330 354 371 384 375 399 c 0
 379 413 410 537 414 556 c 0
 415 559 415 562 415 564 c 0
 415 573 409 577 403 577 c 0
 401 577 397 576 395 575 c 0
 383 569 374 565 362 561 c 0
 361 561 360 560 359 560 c 0
 348 556 333 553 319 553 c 0
 301 553 279 559 265 571 c 0
 249 583 237 601 237 621 c 0
 237 659 268 689 305 689 c 0
 343 689 373 659 373 621 c 2
 373 611 l 1
 407 612 457 673 464 678 c 0
 467 680 470 682 475 682 c 0
 477 681 485 677 485 671 c 0
 485 670 484 669 484 667 c 0
 482 654 457 566 457 566 c 1
 160 -734 l 2
 156 -746 152 -750 120 -750 c 0
 97 -750 91 -744 91 -734 c 0
 93 -729 163 -446 165 -439 c 0
 166 -438 166 -436 166 -435 c 0
 166 -432 164 -430 161 -430 c 0
 160 -430 159 -431 158 -431 c 0
 146 -437 137 -441 125 -445 c 0
 124 -445 123 -446 122 -446 c 0
 111 -450 96 -453 82 -453 c 0
EndSplineSet
EndChar

StartChar: accidentals.sharp
Encoding: 38 57615 16
Width: 249
Flags: MW
LayerCount: 2
Fore
SplineSet
237 118 m 2
 237 118 219 111 211 108 c 0
 203 105 198 86 198 79 c 2
 198 -14 l 2
 198 -26 205 -32 211 -32 c 0
 216 -30 237 -22 237 -22 c 2
 239 -21 240 -21 242 -21 c 0
 246 -21 249 -24 249 -29 c 2
 249 -100 l 2
 249 -106 244 -114 237 -117 c 2
 237 -117 216 -125 209 -128 c 0
 202 -131 198 -143 198 -151 c 2
 198 -293 l 2
 198 -299 192 -304 181 -304 c 0
 174 -304 168 -299 168 -293 c 2
 168 -168 l 2
 168 -162 163 -150 155 -150 c 0
 154 -150 152 -151 151 -151 c 2
 90 -176 l 2
 85 -178 80 -185 80 -198 c 2
 80 -337 l 2
 80 -343 73 -348 63 -348 c 0
 56 -348 50 -343 50 -337 c 2
 50 -214 l 2
 50 -209 45 -198 38 -198 c 0
 37 -198 36 -198 35 -199 c 0
 26 -202 12 -208 12 -208 c 2
 11 -208 9 -209 8 -209 c 0
 3 -209 0 -206 0 -200 c 2
 0 -129 l 2
 0 -123 5 -115 12 -113 c 2
 12 -113 33 -104 39 -102 c 0
 45 -99 50 -90 50 -79 c 2
 50 20 l 2
 50 28 44 38 37 38 c 0
 36 38 35 37 34 37 c 0
 27 33 12 27 12 27 c 2
 11 27 9 26 8 26 c 0
 3 26 0 29 0 35 c 2
 0 106 l 2
 0 112 5 120 12 122 c 2
 12 122 32 130 38 133 c 0
 44 136 50 146 50 160 c 2
 50 201 l 1
 50 295 l 2
 50 301 56 306 66 306 c 0
 73 306 80 301 80 295 c 2
 80 175 l 2
 80 167 83 155 92 155 c 0
 109 159 143 173 155 180 c 0
 164 186 167 199 168 209 c 2
 168 339 l 2
 168 345 174 350 184 350 c 0
 192 350 198 345 198 339 c 2
 198 217 l 2
 198 209 205 204 212 204 c 0
 217 205 237 213 237 213 c 2
 239 214 240 214 242 214 c 0
 246 214 249 211 249 206 c 2
 249 135 l 2
 249 129 244 121 237 118 c 2
168 -45 m 0
 170 -36 172 -8 172 19 c 0
 172 46 170 71 168 76 c 0
 166 80 160 82 153 82 c 0
 128 82 82 61 80 44 c 0
 78 36 77 1 77 -30 c 0
 77 -54 78 -76 80 -80 c 0
 81 -83 86 -85 92 -85 c 0
 115 -85 162 -65 168 -45 c 0
EndSplineSet
EndChar

StartChar: accidentals.sharp.arrowup
Encoding: 39 57616 17
Width: 249
Flags: MW
LayerCount: 2
Fore
SplineSet
237 214 m 2
 239 215 240 215 242 215 c 0
 246 215 249 212 249 207 c 2
 249 136 l 2
 249 130 244 122 237 119 c 2
 237 119 219 112 211 109 c 0
 203 106 198 87 198 80 c 2
 198 -13 l 2
 198 -25 205 -31 211 -31 c 0
 216 -29 237 -21 237 -21 c 2
 239 -20 240 -20 242 -20 c 0
 246 -20 249 -23 249 -28 c 2
 249 -99 l 2
 249 -105 244 -113 237 -116 c 2
 237 -116 216 -124 209 -127 c 0
 202 -130 198 -142 198 -150 c 2
 198 -292 l 2
 198 -298 192 -303 181 -303 c 0
 174 -303 168 -298 168 -292 c 2
 168 -167 l 2
 168 -161 163 -149 155 -149 c 0
 154 -149 152 -150 151 -150 c 2
 90 -175 l 2
 85 -177 80 -184 80 -197 c 2
 80 -336 l 2
 80 -342 73 -347 63 -347 c 0
 56 -347 50 -342 50 -336 c 2
 50 -213 l 2
 50 -208 45 -197 38 -197 c 0
 37 -197 36 -197 35 -198 c 0
 26 -201 12 -207 12 -207 c 2
 11 -207 9 -208 8 -208 c 0
 3 -208 0 -205 0 -199 c 2
 0 -128 l 2
 0 -122 5 -114 12 -112 c 2
 12 -112 33 -103 39 -100 c 0
 45 -98 50 -89 50 -78 c 2
 50 21 l 2
 50 29 44 39 37 39 c 0
 36 39 35 38 34 38 c 0
 27 34 12 28 12 28 c 2
 11 28 9 27 8 27 c 0
 3 27 0 30 0 36 c 2
 0 107 l 2
 0 113 5 121 12 124 c 2
 12 124 32 131 38 134 c 0
 44 137 50 147 50 161 c 2
 50 202 l 1
 50 296 l 2
 50 303 56 307 66 307 c 0
 73 307 80 303 80 296 c 2
 80 177 l 1
 80 177 83 156 92 156 c 0
 109 160 143 174 155 181 c 0
 164 187 167 200 168 210 c 2
 168 326 l 1
 90 326 l 1
 182 530 l 1
 275 326 l 1
 198 326 l 1
 198 218 l 2
 198 210 205 205 212 205 c 0
 217 206 237 214 237 214 c 2
168 -44 m 0
 170 -35 172 -7 172 20 c 0
 172 47 170 73 168 78 c 0
 166 82 161 83 154 83 c 0
 129 83 82 62 80 45 c 0
 78 37 77 2 77 -29 c 0
 77 -53 78 -75 80 -79 c 0
 81 -82 86 -84 92 -84 c 0
 115 -84 162 -64 168 -44 c 0
EndSplineSet
EndChar

StartChar: accidentals.sharp.arrowdown
Encoding: 40 57617 18
Width: 249
Flags: MW
LayerCount: 2
Fore
SplineSet
211 107 m 0
 203 104 198 85 198 78 c 2
 198 -15 l 2
 198 -27 205 -33 211 -33 c 0
 216 -31 237 -23 237 -23 c 2
 239 -22 240 -22 242 -22 c 0
 246 -22 249 -25 249 -30 c 2
 249 -101 l 2
 249 -107 244 -115 237 -118 c 2
 237 -118 216 -126 209 -129 c 0
 202 -132 198 -144 198 -152 c 2
 198 -294 l 2
 198 -300 192 -305 181 -305 c 0
 174 -305 168 -300 168 -294 c 2
 168 -169 l 2
 168 -163 163 -151 155 -151 c 0
 154 -151 152 -152 151 -152 c 2
 90 -177 l 2
 85 -179 80 -186 80 -199 c 2
 80 -329 l 1
 157 -329 l 1
 66 -534 l 1
 -28 -330 l 1
 50 -330 l 1
 50 -215 l 2
 50 -210 45 -199 38 -199 c 0
 37 -199 36 -199 35 -200 c 0
 26 -203 12 -209 12 -209 c 2
 11 -209 9 -210 8 -210 c 0
 3 -210 0 -207 0 -201 c 2
 0 -130 l 2
 0 -124 5 -116 12 -114 c 2
 12 -114 33 -105 39 -102 c 0
 45 -100 50 -91 50 -80 c 2
 50 19 l 2
 50 27 44 37 37 37 c 0
 36 37 35 36 34 36 c 0
 27 32 12 26 12 26 c 2
 11 26 9 25 8 25 c 0
 3 25 0 28 0 34 c 2
 0 105 l 2
 0 111 5 119 12 122 c 2
 12 122 32 129 38 132 c 0
 44 135 50 145 50 159 c 2
 50 200 l 1
 50 294 l 2
 50 301 56 305 66 305 c 0
 73 305 80 301 80 294 c 2
 80 175 l 1
 80 175 83 154 92 154 c 0
 109 158 143 172 155 179 c 0
 164 185 167 198 168 208 c 2
 168 338 l 2
 168 344 174 349 184 349 c 0
 192 349 198 344 198 338 c 2
 198 216 l 2
 198 208 205 203 212 203 c 0
 217 204 237 212 237 212 c 2
 239 213 240 213 242 213 c 0
 246 213 249 210 249 205 c 2
 249 134 l 2
 249 128 244 120 237 117 c 2
 237 117 219 110 211 107 c 0
168 -46 m 0
 170 -37 172 -9 172 18 c 0
 172 45 170 71 168 76 c 0
 166 80 161 81 154 81 c 0
 129 81 82 60 80 43 c 0
 78 35 77 0 77 -31 c 0
 77 -55 78 -77 80 -81 c 0
 81 -84 86 -86 92 -86 c 0
 115 -86 162 -66 168 -46 c 0
EndSplineSet
EndChar

StartChar: accidentals.sharp.arrowboth
Encoding: 41 57618 19
Width: 275
Flags: MW
LayerCount: 2
Fore
SplineSet
216 -312 m 2
 216 -322 208 -331 198 -331 c 0
 188 -331 179 -322 179 -312 c 2
 179 -167 l 1
 96 -198 l 1
 96 -422 l 2
 96 -435 102 -440 110 -440 c 0
 127 -440 158 -418 186 -402 c 0
 195 -397 205 -407 199 -416 c 0
 149 -487 118 -569 85 -650 c 0
 84 -653 80 -655 77 -655 c 0
 74 -655 71 -653 70 -650 c 0
 37 -569 6 -487 -44 -416 c 0
 -45 -414 -46 -413 -46 -411 c 0
 -46 -404 -39 -398 -32 -402 c 0
 -4 -418 28 -440 45 -440 c 0
 53 -440 59 -435 59 -422 c 2
 59 -356 l 1
 59 -211 l 1
 27 -223 l 2
 25 -224 22 -224 20 -224 c 0
 9 -224 0 -215 0 -204 c 2
 0 -144 l 2
 0 -136 5 -128 13 -125 c 2
 59 -109 l 1
 59 51 l 1
 27 40 l 2
 25 39 22 39 20 39 c 0
 9 39 0 48 0 59 c 2
 0 119 l 2
 0 127 5 134 13 137 c 2
 59 154 l 1
 59 312 l 2
 59 322 67 331 77 331 c 0
 87 331 96 322 96 312 c 2
 96 167 l 1
 179 198 l 1
 179 422 l 2
 179 435 173 440 165 440 c 0
 148 440 117 418 89 402 c 0
 80 397 70 407 76 416 c 0
 126 487 157 569 190 650 c 0
 191 653 195 655 198 655 c 0
 201 655 204 653 205 650 c 0
 238 569 269 487 319 416 c 0
 320 414 321 413 321 411 c 0
 321 404 314 398 307 402 c 0
 279 418 247 440 230 440 c 0
 222 440 216 435 216 422 c 2
 216 211 l 1
 248 223 l 2
 250 224 253 224 255 224 c 0
 266 224 275 215 275 204 c 2
 275 144 l 2
 275 136 270 128 262 125 c 2
 216 109 l 1
 216 -51 l 1
 248 -40 l 2
 250 -39 253 -39 255 -39 c 0
 266 -39 275 -48 275 -59 c 2
 275 -119 l 2
 275 -127 270 -134 262 -137 c 2
 216 -154 l 1
 216 -312 l 2
96 65 m 1
 96 -95 l 1
 179 -65 l 1
 179 95 l 1
 96 65 l 1
EndSplineSet
EndChar

StartChar: accidentals.sharp.slashslash.stem
Encoding: 42 57619 20
Width: 179
Flags: MW
LayerCount: 2
Fore
SplineSet
179 167 m 2
 179 96 l 2
 179 89 173 82 167 79 c 2
 167 79 125 63 116 59 c 0
 108 56 103 38 103 30 c 2
 103 -63 l 2
 103 -74 110 -80 117 -80 c 0
 121 -79 167 -61 167 -61 c 2
 168 -61 170 -60 171 -60 c 0
 176 -60 179 -63 179 -69 c 2
 179 -140 l 2
 179 -146 173 -154 167 -156 c 2
 167 -156 122 -174 114 -176 c 0
 110 -178 106 -184 105 -190 c 0
 104 -193 104 -195 104 -198 c 2
 104 -336 l 2
 104 -346 102 -353 87 -353 c 0
 79 -353 73 -348 73 -342 c 2
 73 -217 l 2
 73 -209 64 -196 59 -198 c 0
 50 -202 12 -218 12 -218 c 2
 11 -218 9 -219 8 -219 c 0
 3 -219 0 -216 0 -210 c 2
 0 -139 l 2
 0 -133 6 -125 12 -123 c 2
 12 -123 57 -104 64 -101 c 0
 70 -99 74 -90 74 -79 c 2
 74 21 l 2
 74 29 68 38 62 38 c 0
 61 38 60 37 59 37 c 0
 51 34 12 17 12 17 c 2
 11 17 9 16 8 16 c 0
 3 16 0 19 0 25 c 2
 0 96 l 2
 0 102 6 110 12 112 c 0
 29 119 45 127 63 134 c 0
 70 140 73 152 73 160 c 2
 73 198 l 1
 73 290 l 2
 73 298 75 307 90 307 c 0
 98 307 104 302 104 296 c 2
 104 176 l 2
 104 167 108 156 117 156 c 0
 119 156 167 174 167 174 c 2
 168 175 170 175 171 175 c 0
 175 175 179 172 179 167 c 2
EndSplineSet
EndChar

StartChar: accidentals.sharp.slashslashslash.stemstem
Encoding: 43 57620 21
Width: 341
Flags: MW
LayerCount: 2
Fore
SplineSet
329 105 m 2
 330 105 332 106 333 106 c 0
 339 106 341 99 341 95 c 2
 341 32 l 2
 341 26 337 21 329 19 c 2
 329 19 247 -12 244 -13 c 0
 241 -14 241 -16 241 -18 c 2
 241 -28 l 2
 241 -34 242 -37 245 -37 c 0
 247 -37 250 -36 254 -34 c 0
 259 -32 280 -24 280 -24 c 2
 282 -23 283 -23 285 -23 c 0
 289 -23 292 -26 292 -31 c 2
 292 -102 l 2
 292 -108 287 -116 280 -119 c 2
 280 -119 259 -127 252 -130 c 0
 245 -133 241 -145 241 -153 c 2
 241 -295 l 2
 241 -301 235 -306 224 -306 c 0
 217 -306 211 -301 211 -295 c 2
 211 -170 l 2
 211 -164 206 -152 198 -152 c 0
 197 -152 195 -153 194 -153 c 2
 133 -178 l 2
 128 -180 123 -187 123 -200 c 2
 123 -339 l 2
 123 -345 116 -350 106 -350 c 0
 99 -350 93 -345 93 -339 c 2
 93 -216 l 2
 93 -211 88 -200 81 -200 c 0
 80 -200 79 -200 78 -201 c 0
 69 -204 55 -210 55 -210 c 2
 54 -210 52 -211 51 -211 c 0
 46 -211 43 -208 43 -202 c 2
 43 -131 l 2
 43 -125 48 -117 55 -115 c 2
 55 -115 79 -105 85 -102 c 0
 92 -99 93 -96 93 -88 c 2
 93 -76 l 2
 93 -74 93 -71 90 -71 c 0
 89 -71 88 -72 87 -72 c 0
 83 -74 12 -100 9 -100 c 0
 3 -100 0 -95 0 -90 c 2
 0 -24 l 2
 0 -18 5 -16 12 -14 c 2
 12 -14 87 14 89 15 c 0
 92 16 92 18 92 20 c 2
 92 35 l 2
 92 37 90 38 88 38 c 0
 85 38 81 36 77 35 c 0
 70 31 55 25 55 25 c 2
 54 25 52 24 51 24 c 0
 46 24 43 27 43 33 c 2
 43 104 l 2
 43 110 48 118 55 120 c 2
 55 120 75 128 81 131 c 0
 87 134 93 144 93 158 c 2
 93 199 l 1
 93 293 l 2
 93 299 99 304 109 304 c 0
 116 304 123 299 123 293 c 2
 123 173 l 2
 123 165 126 153 135 153 c 0
 152 157 186 171 198 178 c 0
 207 184 210 197 211 207 c 2
 211 337 l 2
 211 343 217 348 227 348 c 0
 235 348 241 343 241 337 c 2
 241 215 l 2
 241 207 248 202 255 202 c 0
 260 203 280 211 280 211 c 2
 282 212 283 212 285 212 c 0
 289 212 292 209 292 204 c 2
 292 133 l 2
 292 127 287 119 280 116 c 2
 280 116 262 109 254 106 c 0
 242 101 240 99 240 89 c 0
 240 88 241 81 241 76 c 0
 241 74 242 73 244 73 c 0
 246 74 329 105 329 105 c 2
123 50 m 0
 121 48 122 35 121 30 c 0
 121 29 123 28 124 28 c 0
 125 29 197 56 211 61 c 0
 213 62 213 64 213 65 c 0
 212 67 212 73 212 77 c 0
 212 81 212 85 209 85 c 0
 182 85 136 62 123 50 c 0
212 -45 m 0
 213 -41 213 -36 213 -29 c 0
 213 -28 211 -26 210 -26 c 0
 194 -32 126 -58 124 -58 c 0
 121 -59 120 -60 120 -64 c 0
 121 -73 121 -80 123 -82 c 0
 124 -83 125 -84 128 -84 c 0
 146 -84 209 -59 212 -45 c 0
EndSplineSet
EndChar

StartChar: accidentals.sharp.slashslashslash.stem
Encoding: 44 57621 22
Width: 339
Flags: MW
LayerCount: 2
Fore
SplineSet
327 99 m 2
 328 99 330 100 331 100 c 0
 338 100 339 93 339 88 c 2
 339 25 l 2
 339 19 336 15 327 12 c 2
 327 12 190 -40 187 -41 c 0
 184 -42 183 -43 183 -47 c 2
 183 -60 l 2
 183 -65 186 -67 193 -67 c 0
 198 -65 274 -36 274 -36 c 2
 276 -35 278 -35 279 -35 c 0
 284 -35 286 -38 286 -43 c 2
 286 -114 l 2
 286 -121 281 -128 274 -131 c 2
 274 -131 201 -159 194 -162 c 0
 189 -164 186 -170 184 -176 c 0
 183 -178 183 -180 183 -183 c 2
 183 -322 l 2
 183 -331 181 -338 166 -338 c 0
 159 -338 153 -333 153 -327 c 2
 153 -202 l 1
 153 -193 l 2
 153 -187 152 -181 148 -181 c 0
 147 -181 146 -182 145 -182 c 0
 138 -184 69 -212 69 -212 c 2
 67 -213 66 -213 64 -213 c 0
 60 -213 57 -210 57 -205 c 2
 57 -134 l 2
 57 -127 62 -120 69 -117 c 2
 69 -117 140 -88 146 -85 c 0
 152 -83 153 -80 153 -73 c 2
 153 -58 l 2
 153 -56 152 -55 149 -55 c 2
 8 -107 l 2
 2 -107 -1 -101 -1 -96 c 2
 -1 -31 l 2
 -1 -25 3 -22 11 -20 c 2
 11 -20 146 31 150 32 c 0
 153 33 153 36 153 39 c 2
 153 54 l 2
 153 55 152 56 150 56 c 0
 149 56 147 56 146 55 c 0
 138 52 69 27 69 27 c 2
 67 26 66 26 64 26 c 0
 60 26 57 29 57 34 c 2
 57 105 l 2
 57 112 62 119 69 122 c 0
 88 122 121 140 142 148 c 1
 149 155 152 166 153 175 c 2
 153 305 l 2
 153 313 154 321 170 321 c 0
 177 321 183 316 183 310 c 2
 183 190 l 2
 183 182 187 170 196 170 c 0
 198 171 274 199 274 199 c 2
 276 200 278 200 279 200 c 0
 284 200 286 197 286 192 c 2
 286 121 l 2
 286 114 281 107 274 104 c 2
 274 104 196 74 188 71 c 0
 184 69 183 68 183 64 c 2
 183 49 l 2
 183 48 183 46 186 46 c 0
 187 46 189 47 190 47 c 0
 196 49 327 99 327 99 c 2
EndSplineSet
EndChar

StartChar: accidentals.sharp.slashslash.stemstemstem
Encoding: 45 57622 23
Width: 317
Flags: MW
LayerCount: 2
Fore
SplineSet
309 140 m 2
 309 140 276 127 272 126 c 0
 267 124 266 120 266 113 c 2
 266 -4 l 2
 266 -11 269 -16 274 -16 c 0
 275 -16 276 -15 277 -15 c 0
 283 -12 309 -2 311 -2 c 0
 315 -2 317 -7 317 -10 c 2
 317 -88 l 2
 317 -92 314 -94 309 -96 c 2
 309 -96 277 -108 274 -109 c 0
 271 -110 266 -115 266 -121 c 2
 266 -269 l 2
 266 -282 263 -285 250 -285 c 0
 237 -285 234 -283 234 -269 c 2
 234 -135 l 2
 234 -130 232 -127 228 -127 c 0
 226 -127 224 -128 222 -129 c 2
 186 -142 l 2
 180 -144 176 -150 176 -158 c 2
 176 -300 l 2
 176 -313 173 -316 160 -316 c 0
 147 -316 144 -314 144 -300 c 2
 144 -169 l 2
 144 -163 142 -161 136 -161 c 2
 88 -180 l 2
 84 -181 82 -187 82 -193 c 2
 82 -331 l 2
 82 -344 79 -347 66 -347 c 0
 53 -347 50 -344 50 -331 c 2
 50 -207 l 2
 50 -201 48 -198 43 -198 c 0
 41 -198 39 -198 37 -199 c 0
 28 -202 11 -209 10 -209 c 0
 6 -209 3 -205 3 -201 c 2
 3 -123 l 2
 3 -119 6 -117 11 -115 c 2
 11 -115 35 -106 40 -104 c 0
 45 -102 50 -95 50 -87 c 2
 50 29 l 2
 50 35 49 39 44 39 c 0
 43 39 42 39 40 38 c 0
 32 34 11 27 9 27 c 0
 6 27 3 31 3 35 c 2
 3 112 l 2
 3 116 6 118 11 120 c 2
 11 120 37 130 42 132 c 0
 47 134 50 137 50 147 c 2
 50 292 l 2
 50 305 53 308 66 308 c 0
 79 308 82 305 82 292 c 2
 82 159 l 1
 82 159 85 150 89 150 c 0
 90 150 91 151 92 151 c 2
 135 167 l 2
 142 170 144 176 144 183 c 2
 144 322 l 2
 144 335 147 338 160 338 c 0
 173 338 176 336 176 322 c 2
 176 195 l 2
 176 190 178 186 186 186 c 0
 199 192 222 200 226 202 c 0
 232 204 234 208 234 221 c 2
 234 353 l 2
 234 366 237 369 250 369 c 0
 263 369 266 367 266 353 c 2
 266 226 l 2
 266 221 268 219 270 219 c 0
 271 219 272 219 273 220 c 0
 278 222 309 233 311 233 c 0
 315 233 317 229 317 225 c 2
 317 148 l 2
 317 144 314 141 309 140 c 2
82 -88 m 0
 83 -89 85 -90 88 -90 c 0
 103 -90 141 -75 144 -65 c 0
 146 -59 147 -20 147 15 c 0
 147 46 146 74 144 77 c 0
 143 78 142 79 139 79 c 0
 125 79 85 63 82 54 c 0
 80 47 79 4 79 -33 c 0
 79 -60 79 -84 82 -88 c 0
234 -31 m 0
 236 -26 237 17 237 54 c 0
 237 83 236 109 234 112 c 2
 234 112 232 113 231 113 c 0
 219 113 183 98 179 90 c 0
 177 85 176 48 176 13 c 0
 176 -19 177 -49 179 -52 c 0
 180 -53 182 -54 185 -54 c 0
 199 -54 231 -39 234 -31 c 0
EndSplineSet
EndChar

StartChar: accidentals.natural
Encoding: 46 57623 24
Width: 168
Flags: MW
LayerCount: 2
Fore
SplineSet
156 186 m 2
 157 187 159 187 160 187 c 0
 164 187 168 184 168 179 c 2
 168 -323 l 2
 168 -330 162 -335 156 -335 c 2
 143 -335 l 2
 136 -335 131 -330 131 -323 c 2
 131 -174 l 2
 131 -166 124 -163 114 -163 c 0
 85 -163 29 -187 15 -193 c 0
 14 -194 12 -194 12 -194 c 2
 11 -194 9 -195 8 -195 c 0
 3 -195 0 -192 0 -186 c 2
 0 329 l 2
 0 336 5 341 12 341 c 2
 25 341 l 2
 31 341 37 336 37 329 c 2
 37 162 l 2
 37 158 41 157 47 157 c 0
 73 157 137 180 137 180 c 2
 138 180 139 181 141 181 c 2
 156 186 l 2
37 39 m 2
 37 -64 l 2
 37 -68 42 -70 49 -70 c 0
 74 -70 131 -47 131 -29 c 2
 131 74 l 2
 131 78 128 79 122 79 c 0
 98 79 37 53 37 39 c 2
EndSplineSet
EndChar

StartChar: accidentals.natural.arrowup
Encoding: 47 57624 25
Width: 168
Flags: MW
LayerCount: 2
Fore
SplineSet
156 181 m 2
 157 182 159 182 160 182 c 0
 164 182 168 179 168 174 c 2
 168 -328 l 2
 168 -335 162 -340 156 -340 c 2
 143 -340 l 2
 136 -340 131 -335 131 -328 c 2
 131 -179 l 2
 131 -171 124 -168 114 -168 c 0
 85 -168 29 -192 15 -198 c 0
 14 -199 12 -199 12 -199 c 2
 11 -199 9 -200 8 -200 c 0
 3 -200 0 -197 0 -191 c 2
 0 288 l 1
 -96 288 l 1
 21 547 l 1
 138 288 l 1
 37 288 l 1
 37 157 l 2
 37 153 41 152 47 152 c 0
 73 152 137 175 137 175 c 2
 138 175 139 176 141 176 c 2
 156 181 l 2
131 -34 m 2
 131 69 l 2
 131 73 128 74 122 74 c 0
 98 74 37 48 37 34 c 2
 37 -69 l 2
 37 -73 42 -75 49 -75 c 0
 74 -75 131 -52 131 -34 c 2
EndSplineSet
EndChar

StartChar: accidentals.natural.arrowdown
Encoding: 48 57625 26
Width: 168
Flags: MW
LayerCount: 2
Fore
SplineSet
168 -295 m 1
 267 -295 l 1
 150 -553 l 1
 33 -295 l 1
 131 -295 l 1
 131 -179 l 2
 131 -171 124 -168 114 -168 c 0
 85 -168 29 -192 15 -198 c 0
 14 -199 12 -199 12 -199 c 2
 11 -199 9 -200 8 -200 c 0
 3 -200 0 -197 0 -191 c 2
 0 324 l 2
 0 331 5 336 12 336 c 2
 25 336 l 2
 31 336 37 331 37 324 c 2
 37 157 l 2
 37 153 41 152 47 152 c 0
 73 152 137 175 137 175 c 2
 138 175 139 176 141 176 c 2
 156 181 l 2
 157 182 159 182 160 182 c 0
 164 182 168 179 168 174 c 2
 168 -295 l 1
37 34 m 2
 37 -69 l 2
 37 -73 42 -75 49 -75 c 0
 74 -75 131 -52 131 -34 c 2
 131 69 l 2
 131 73 128 74 122 74 c 0
 98 74 37 48 37 34 c 2
EndSplineSet
EndChar

StartChar: accidentals.natural.arrowboth
Encoding: 49 57626 27
Width: 166
Flags: MW
LayerCount: 2
Fore
SplineSet
167 195 m 0
 168 -11 170 -218 171 -424 c 0
 171 -437 176 -442 184 -442 c 0
 201 -442 232 -419 260 -403 c 0
 268 -398 277 -404 277 -412 c 0
 277 -414 276 -417 275 -419 c 0
 225 -490 190 -570 158 -650 c 0
 156 -654 152 -656 149 -656 c 0
 146 -656 143 -654 141 -650 c 0
 109 -570 74 -490 24 -419 c 0
 17 -409 28 -397 38 -403 c 0
 66 -419 98 -442 115 -442 c 0
 123 -442 128 -437 128 -424 c 0
 129 -347 128 -269 129 -192 c 1
 21 -212 l 1
 18 -212 l 2
 8 -212 0 -205 0 -195 c 0
 -1 11 -3 218 -4 424 c 0
 -4 437 -9 442 -17 442 c 0
 -34 442 -66 419 -94 403 c 0
 -102 398 -110 404 -110 412 c 0
 -110 414 -109 417 -108 419 c 0
 -58 490 -23 570 9 650 c 0
 11 654 15 656 18 656 c 0
 21 656 24 654 26 650 c 0
 58 570 93 490 143 419 c 0
 150 409 139 397 129 403 c 0
 101 419 69 442 52 442 c 0
 44 442 39 437 39 424 c 0
 38 347 39 269 38 192 c 1
 146 212 l 1
 149 212 l 2
 159 212 167 205 167 195 c 0
131 113 m 1
 37 95 l 1
 36 -113 l 1
 130 -95 l 1
 131 113 l 1
EndSplineSet
EndChar

StartChar: accidentals.flat
Encoding: 50 57627 28
Width: 200
Flags: MW
LayerCount: 2
Fore
SplineSet
-14 -170 m 0
 -22 -160 -26 411 -26 411 c 2
 -25 429 -9 439 5 439 c 0
 15 439 24 433 24 422 c 0
 24 402 18 162 17 140 c 0
 17 133 21 126 28 123 c 0
 30 122 31 122 33 122 c 0
 42 122 49 131 55 136 c 0
 66 143 78 147 89 150 c 0
 96 152 103 153 110 153 c 0
 156 150 200 114 200 57 c 0
 200 11 169 -50 80 -112 c 0
 55 -129 31 -156 1 -173 c 1
 1 -173 -2 -175 -5 -175 c 0
 -8 -175 -11 -174 -14 -170 c 0
21 -81 m 2
 21 -86 23 -96 32 -96 c 0
 35 -96 38 -95 42 -93 c 0
 72 -74 101 -42 114 -18 c 0
 126 3 131 24 131 42 c 0
 131 61 125 78 115 89 c 0
 109 96 100 100 90 100 c 0
 82 100 73 98 64 93 c 0
 50 85 24 63 20 51 c 0
 19 47 18 35 18 19 c 0
 18 -21 21 -81 21 -81 c 2
EndSplineSet
EndChar

StartChar: accidentals.flat.arrowup
Encoding: 51 57628 29
Width: 200
Flags: MW
LayerCount: 2
Fore
SplineSet
111 149 m 0
 158 147 201 110 201 55 c 0
 201 8 169 -52 80 -114 c 0
 57 -131 32 -158 2 -175 c 1
 2 -175 -1 -177 -4 -177 c 0
 -6 -177 -9 -176 -12 -172 c 0
 -19 -164 -23 269 -24 381 c 1
 -89 381 l 1
 1 579 l 1
 90 381 l 1
 25 381 l 1
 23 308 20 154 19 137 c 0
 19 129 23 122 29 120 c 0
 31 119 32 119 34 119 c 0
 42 119 49 128 57 133 c 0
 68 140 79 144 90 147 c 0
 98 149 104 149 111 149 c 0
115 -20 m 0
 126 1 131 22 131 40 c 0
 131 60 125 76 116 86 c 0
 110 93 101 97 91 97 c 0
 83 97 74 95 66 91 c 0
 50 82 25 61 21 48 c 0
 20 44 20 34 20 21 c 0
 20 -18 23 -83 23 -83 c 2
 23 -89 24 -98 32 -98 c 0
 35 -98 38 -97 42 -95 c 0
 74 -75 103 -45 115 -20 c 0
EndSplineSet
EndChar

StartChar: accidentals.flat.arrowdown
Encoding: 52 57629 30
Width: 200
Flags: MW
LayerCount: 2
Fore
SplineSet
51 -144 m 0
 25 -165 23 -193 22 -215 c 1
 98 -215 l 1
 6 -418 l 1
 -86 -215 l 1
 -15 -215 l 1
 -20 -87 -26 414 -26 414 c 2
 -25 432 -9 442 5 442 c 0
 16 442 25 436 25 425 c 0
 25 405 19 159 18 137 c 0
 18 129 22 123 29 121 c 0
 31 120 33 120 35 120 c 0
 44 120 51 128 58 133 c 0
 68 139 79 143 89 147 c 0
 90 147 91 148 92 148 c 0
 99 149 105 150 112 150 c 0
 159 148 204 112 204 54 c 0
 204 6 172 -56 81 -119 c 0
 71 -126 64 -134 51 -144 c 0
22 -88 m 2
 22 -93 24 -102 33 -102 c 0
 36 -102 39 -101 43 -99 c 0
 75 -80 103 -48 117 -24 c 0
 128 -2 133 19 133 38 c 0
 133 58 127 75 118 86 c 0
 111 93 102 97 92 97 c 0
 84 97 76 95 66 90 c 0
 51 82 25 60 21 46 c 0
 20 42 19 29 19 13 c 0
 19 -27 22 -88 22 -88 c 2
EndSplineSet
EndChar

StartChar: accidentals.flat.arrowboth
Encoding: 53 57630 31
Width: 200
Flags: MW
LayerCount: 2
Fore
SplineSet
27 41 m 2
 26 -25 l 1
 26 -36 l 2
 26 -58 27 -80 30 -102 c 1
 75 -64 123 -22 123 37 c 0
 123 70 109 104 80 104 c 0
 49 104 28 74 27 41 c 2
18 -175 m 2
 18 -296 l 2
 18 -309 23 -314 32 -314 c 0
 49 -314 81 -293 109 -277 c 0
 117 -272 125 -282 120 -290 c 0
 70 -362 41 -444 8 -525 c 0
 7 -528 4 -529 1 -529 c 0
 -2 -529 -4 -528 -5 -525 c 0
 -38 -444 -67 -362 -117 -290 c 0
 -122 -282 -114 -272 -106 -277 c 0
 -78 -293 -46 -314 -29 -314 c 0
 -20 -314 -15 -309 -15 -296 c 2
 -15 -138 l 2
 -18 49 -20 237 -23 424 c 0
 -23 437 -28 442 -36 442 c 0
 -53 442 -84 419 -112 403 c 0
 -120 398 -129 405 -129 413 c 0
 -129 415 -128 417 -127 419 c 0
 -77 490 -41 570 -9 650 c 0
 -7 654 -4 656 0 656 c 0
 4 656 7 654 9 650 c 0
 41 570 77 490 127 419 c 0
 134 409 123 397 112 403 c 0
 84 419 53 442 36 442 c 0
 28 442 23 437 23 424 c 0
 22 320 19 216 18 112 c 1
 44 133 77 146 111 146 c 0
 163 146 200 98 200 44 c 0
 200 -36 114 -73 53 -125 c 0
 37 -139 18 -154 18 -175 c 2
EndSplineSet
EndChar

StartChar: accidentals.flat.slash
Encoding: 54 57631 32
Width: 200
Flags: MW
LayerCount: 2
Fore
SplineSet
110 153 m 0
 156 150 200 115 200 58 c 0
 200 12 169 -50 80 -112 c 0
 55 -129 30 -157 0 -173 c 1
 0 -173 -3 -175 -6 -175 c 0
 -8 -175 -11 -174 -14 -170 c 0
 -19 -164 -22 21 -24 179 c 0
 -24 181 -26 183 -30 183 c 0
 -32 181 -78 164 -80 164 c 0
 -85 164 -87 168 -87 172 c 2
 -87 222 l 2
 -87 227 -84 229 -78 230 c 2
 -78 230 -41 244 -33 247 c 0
 -25 250 -25 259 -25 262 c 0
 -26 348 -26 411 -26 411 c 2
 -25 429 -9 439 4 439 c 0
 14 439 23 433 23 422 c 0
 23 412 21 343 20 277 c 0
 20 274 21 271 26 271 c 0
 30 273 166 323 166 323 c 2
 167 324 169 324 170 324 c 0
 175 324 176 318 176 315 c 2
 176 267 l 2
 176 263 173 259 166 257 c 2
 166 257 27 203 24 202 c 0
 21 201 18 199 18 192 c 0
 18 186 16 146 16 140 c 0
 16 133 20 126 27 124 c 0
 29 123 31 123 33 123 c 0
 41 123 48 131 55 136 c 0
 68 143 79 147 91 150 c 0
 97 152 104 153 110 153 c 0
115 -17 m 0
 126 4 131 25 131 43 c 0
 131 63 125 79 116 90 c 0
 110 97 101 100 91 100 c 0
 83 100 74 98 65 94 c 0
 49 86 23 64 19 51 c 0
 18 47 17 35 17 19 c 0
 17 -21 20 -81 20 -81 c 2
 20 -87 22 -96 30 -96 c 0
 33 -96 36 -95 40 -93 c 0
 74 -74 102 -43 115 -17 c 0
EndSplineSet
EndChar

StartChar: accidentals.flat.slashslash
Encoding: 55 57632 33
Width: 200
Flags: MW
LayerCount: 2
Fore
SplineSet
110 153 m 0
 156 150 200 115 200 58 c 0
 200 11 168 -49 80 -111 c 0
 57 -128 32 -156 2 -172 c 1
 2 -172 -1 -174 -4 -174 c 0
 -7 -174 -10 -173 -13 -168 c 0
 -17 -164 -21 16 -23 174 c 0
 -23 178 -25 182 -32 182 c 0
 -38 179 -76 164 -78 164 c 0
 -84 164 -86 168 -86 172 c 2
 -86 223 l 2
 -86 228 -83 230 -76 230 c 2
 -76 230 -34 247 -30 249 c 0
 -25 251 -24 253 -24 261 c 0
 -25 268 -25 277 -25 286 c 0
 -25 288 -27 291 -32 291 c 0
 -37 288 -76 275 -76 275 c 2
 -77 275 -78 274 -79 274 c 0
 -84 274 -86 278 -86 282 c 2
 -86 333 l 2
 -86 337 -83 340 -76 341 c 2
 -76 341 -34 357 -31 359 c 0
 -26 360 -25 365 -25 367 c 2
 -25 410 l 2
 -24 428 -8 438 6 438 c 0
 16 438 25 433 25 422 c 0
 25 418 24 406 24 387 c 0
 24 385 26 382 31 382 c 0
 34 383 167 432 170 432 c 0
 175 432 176 428 176 424 c 2
 176 375 l 2
 176 371 173 367 167 365 c 2
 167 365 33 316 29 314 c 0
 25 312 22 309 22 303 c 0
 22 297 22 284 21 275 c 0
 21 273 26 270 27 270 c 0
 31 272 167 322 170 322 c 0
 175 322 176 318 176 314 c 2
 176 266 l 2
 176 261 173 257 167 255 c 2
 167 255 33 206 26 203 c 0
 19 201 19 191 19 187 c 0
 18 164 18 146 18 141 c 0
 18 133 22 126 29 123 c 0
 30 123 31 122 32 122 c 0
 41 122 49 132 57 136 c 0
 67 142 79 147 90 150 c 0
 97 152 103 153 110 153 c 0
115 -17 m 0
 126 4 131 25 131 43 c 0
 131 63 125 79 116 90 c 0
 109 97 100 100 90 100 c 0
 82 100 74 98 65 94 c 0
 50 86 24 64 20 51 c 0
 19 47 19 37 19 24 c 0
 19 -15 22 -79 22 -79 c 2
 22 -85 25 -95 33 -95 c 0
 35 -95 38 -94 42 -92 c 0
 74 -73 102 -41 115 -17 c 0
EndSplineSet
EndChar

StartChar: accidentals.mirroredflat.flat
Encoding: 56 57633 34
Width: 465
Flags: MW
LayerCount: 2
Fore
SplineSet
200 -173 m 2
 169 -157 145 -129 122 -113 c 0
 32 -50 0 11 0 58 c 0
 0 113 44 151 91 153 c 0
 98 153 104 152 111 151 c 0
 112 151 113 150 114 150 c 0
 124 146 135 142 145 136 c 0
 153 131 160 122 168 122 c 0
 170 122 171 122 173 123 c 0
 180 125 184 132 184 140 c 2
 176 422 l 2
 176 433 185 438 195 438 c 0
 209 438 226 429 227 411 c 2
 227 411 222 -160 214 -170 c 0
 211 -174 207 -175 205 -175 c 0
 202 -175 200 -173 200 -173 c 2
181 50 m 0
 177 64 151 85 137 93 c 0
 127 98 119 100 111 100 c 0
 101 100 92 96 85 89 c 0
 76 78 70 61 70 42 c 0
 70 24 75 3 86 -18 c 0
 100 -42 128 -73 159 -93 c 0
 163 -95 166 -96 169 -96 c 0
 178 -96 180 -86 180 -80 c 2
 180 -80 183 -21 183 18 c 0
 183 34 182 46 181 50 c 0
251 -170 m 0
 243 -160 239 411 239 411 c 2
 240 429 257 439 271 439 c 0
 281 439 290 434 290 422 c 2
 282 140 l 2
 282 132 286 125 293 123 c 0
 295 122 296 122 298 122 c 0
 306 122 313 131 321 136 c 0
 332 143 343 147 355 151 c 0
 362 152 368 153 375 153 c 0
 420 151 465 114 465 58 c 0
 465 11 433 -50 344 -112 c 0
 321 -129 296 -157 266 -173 c 1
 266 -173 263 -175 260 -175 c 0
 257 -175 254 -174 251 -170 c 0
286 -80 m 2
 286 -86 289 -96 297 -96 c 0
 300 -96 302 -95 306 -93 c 0
 337 -73 366 -42 380 -18 c 0
 391 3 395 24 395 42 c 0
 395 62 390 78 381 89 c 0
 375 96 366 100 356 100 c 0
 348 100 339 98 330 93 c 0
 315 85 289 64 285 50 c 0
 284 46 283 34 283 18 c 0
 283 -21 286 -80 286 -80 c 2
EndSplineSet
EndChar

StartChar: accidentals.mirroredflat
Encoding: 57 57634 35
Width: 200
Flags: MW
LayerCount: 2
Fore
SplineSet
183 -170 m 0
 180 -174 177 -175 174 -175 c 0
 171 -175 168 -173 168 -173 c 1
 138 -156 114 -129 89 -112 c 0
 0 -50 -31 11 -31 59 c 0
 -31 114 13 150 59 153 c 0
 66 153 73 152 80 150 c 0
 91 147 103 143 114 136 c 0
 120 131 127 122 136 122 c 0
 138 122 139 122 141 123 c 0
 148 126 152 133 152 140 c 0
 151 162 145 402 145 422 c 0
 145 433 154 439 164 439 c 0
 178 439 194 429 195 411 c 2
 195 411 191 -160 183 -170 c 0
148 -81 m 2
 148 -81 151 -21 151 19 c 0
 151 35 150 47 149 51 c 0
 145 63 119 85 105 93 c 0
 96 98 87 100 79 100 c 0
 69 100 60 96 54 89 c 0
 44 78 38 61 38 42 c 0
 38 24 43 3 55 -18 c 0
 68 -42 97 -74 127 -93 c 0
 131 -95 134 -96 137 -96 c 0
 146 -96 148 -86 148 -81 c 2
EndSplineSet
EndChar

StartChar: accidentals.mirroredflat.backslash
Encoding: 58 57635 36
Width: 174
Flags: MW
LayerCount: 2
Fore
SplineSet
-10 153 m 0
 -4 153 3 152 9 150 c 0
 21 147 32 143 45 136 c 0
 52 131 59 123 67 123 c 0
 69 123 71 123 73 124 c 0
 80 126 84 133 84 140 c 0
 84 146 82 186 82 192 c 0
 82 199 79 201 76 202 c 0
 73 203 -66 257 -66 257 c 2
 -73 259 -76 263 -76 267 c 2
 -76 315 l 2
 -76 318 -75 324 -70 324 c 0
 -69 324 -67 324 -66 323 c 2
 -66 323 70 273 74 271 c 0
 79 271 80 274 80 277 c 0
 79 343 77 412 77 422 c 0
 77 433 86 439 96 439 c 0
 109 439 125 429 126 411 c 2
 126 411 126 348 125 262 c 0
 125 259 125 250 133 247 c 0
 141 244 178 230 178 230 c 2
 184 229 187 227 187 222 c 2
 187 172 l 2
 187 168 185 164 180 164 c 0
 178 164 132 181 130 183 c 0
 126 183 124 181 124 179 c 0
 122 21 119 -164 114 -170 c 0
 111 -174 108 -175 106 -175 c 0
 103 -175 100 -173 100 -173 c 1
 70 -157 45 -129 20 -112 c 0
 -69 -50 -100 12 -100 58 c 0
 -100 115 -56 150 -10 153 c 0
-15 -17 m 0
 -2 -43 26 -74 60 -93 c 0
 64 -95 67 -96 70 -96 c 0
 78 -96 80 -87 80 -81 c 2
 80 -81 83 -21 83 19 c 0
 83 35 82 47 81 51 c 0
 77 64 51 86 35 94 c 0
 26 98 17 100 9 100 c 0
 -1 100 -10 97 -16 90 c 0
 -25 79 -31 63 -31 43 c 0
 -31 25 -26 4 -15 -17 c 0
EndSplineSet
EndChar

StartChar: accidentals.flatflat
Encoding: 59 57636 37
Width: 386
Flags: MW
LayerCount: 2
Fore
SplineSet
289 151 m 2
 295 151 l 2
 342 150 386 113 386 57 c 0
 386 11 354 -50 264 -113 c 0
 241 -129 217 -157 186 -173 c 1
 186 -173 183 -175 180 -175 c 0
 178 -175 175 -174 172 -170 c 0
 169 -167 167 -110 165 -35 c 1
 146 -59 118 -86 81 -112 c 0
 58 -129 33 -157 2 -173 c 1
 2 -173 -1 -175 -4 -175 c 0
 -7 -175 -10 -174 -13 -170 c 0
 -20 -161 -25 411 -25 411 c 2
 -24 428 -8 437 6 437 c 0
 16 437 25 432 25 421 c 0
 25 402 18 161 18 140 c 0
 18 132 22 125 29 123 c 0
 31 122 32 122 34 122 c 0
 43 122 50 131 58 135 c 0
 68 141 79 147 91 150 c 0
 95 151 100 151 105 151 c 2
 111 151 l 2
 130 151 147 145 162 135 c 1
 160 274 159 411 159 411 c 2
 161 428 177 437 190 437 c 0
 200 437 209 432 209 421 c 0
 209 402 203 161 203 140 c 0
 203 132 206 125 213 123 c 0
 214 122 216 122 218 122 c 0
 227 122 235 131 242 135 c 0
 252 141 263 147 275 150 c 0
 280 151 284 151 289 151 c 2
116 -18 m 0
 127 2 132 23 132 41 c 0
 132 61 126 78 116 90 c 0
 110 97 102 100 92 100 c 0
 84 100 75 98 66 93 c 0
 52 85 25 63 21 50 c 0
 20 46 19 34 19 18 c 0
 19 -21 22 -80 22 -80 c 2
 22 -86 25 -96 33 -96 c 0
 35 -96 39 -95 42 -93 c 0
 74 -73 103 -42 116 -18 c 0
299 -18 m 0
 310 3 315 23 315 41 c 0
 315 61 309 78 300 90 c 0
 294 97 286 100 276 100 c 0
 268 100 259 98 250 93 c 0
 235 85 208 63 204 50 c 0
 203 47 203 38 203 27 c 0
 203 -11 206 -80 206 -80 c 2
 206 -86 209 -96 217 -96 c 0
 219 -96 222 -95 226 -93 c 0
 258 -73 287 -42 299 -18 c 0
EndSplineSet
EndChar

StartChar: accidentals.flatflat.slash
Encoding: 60 57637 38
Width: 385
Flags: MW
LayerCount: 2
Fore
SplineSet
298 -18 m 0
 309 3 314 23 314 41 c 0
 314 61 308 78 299 90 c 0
 293 97 285 100 275 100 c 0
 267 100 258 98 249 93 c 0
 234 85 207 63 203 50 c 0
 202 47 202 38 202 27 c 0
 202 -11 205 -80 205 -80 c 2
 205 -86 208 -96 216 -96 c 0
 218 -96 221 -95 225 -93 c 0
 257 -73 286 -42 298 -18 c 0
115 -18 m 0
 126 2 131 23 131 41 c 0
 131 61 125 78 115 90 c 0
 109 97 101 100 91 100 c 0
 83 100 74 98 65 93 c 0
 51 85 24 63 20 50 c 0
 19 46 18 34 18 18 c 0
 18 -21 21 -80 21 -80 c 2
 21 -86 24 -96 32 -96 c 0
 34 -96 38 -95 41 -93 c 0
 73 -73 102 -42 115 -18 c 0
204 249 m 0
 203 196 202 149 202 140 c 0
 202 132 205 125 212 123 c 0
 213 122 215 122 217 122 c 0
 226 122 234 131 241 135 c 0
 251 141 262 147 274 150 c 0
 279 151 283 151 288 151 c 2
 294 151 l 2
 341 150 385 113 385 57 c 0
 385 11 353 -50 263 -113 c 0
 240 -129 216 -157 185 -173 c 1
 185 -173 182 -175 179 -175 c 0
 177 -175 174 -174 171 -170 c 0
 168 -167 166 -110 164 -35 c 1
 145 -59 117 -86 80 -112 c 0
 57 -129 32 -157 1 -173 c 1
 1 -173 -2 -175 -5 -175 c 0
 -8 -175 -11 -174 -14 -170 c 0
 -18 -165 -21 12 -23 169 c 0
 -23 171 -29 174 -32 173 c 2
 -76 157 l 2
 -81 155 -86 157 -86 162 c 2
 -86 218 l 2
 -86 223 -82 224 -78 226 c 2
 -34 242 l 2
 -26 245 -24 255 -24 259 c 0
 -25 346 -26 411 -26 411 c 2
 -25 428 -9 437 5 437 c 0
 15 437 24 432 24 421 c 0
 24 411 22 341 20 273 c 0
 20 269 25 262 29 264 c 2
 151 308 l 2
 157 310 159 320 159 324 c 0
 158 376 158 411 158 411 c 2
 160 428 176 437 189 437 c 0
 199 437 208 432 208 421 c 0
 208 414 207 380 206 337 c 0
 206 334 209 329 212 330 c 2
 351 380 l 2
 355 381 361 380 362 372 c 2
 362 321 l 2
 362 314 356 313 352 312 c 2
 212 261 l 2
 207 259 204 252 204 249 c 0
152 239 m 2
 24 193 l 2
 20 191 18 186 18 183 c 0
 17 161 17 145 17 140 c 0
 17 132 21 125 28 123 c 0
 30 122 31 122 33 122 c 0
 42 122 49 131 57 135 c 0
 67 141 78 147 90 150 c 0
 94 151 99 151 104 151 c 2
 110 151 l 2
 129 151 146 145 161 135 c 1
 161 169 160 203 160 235 c 0
 160 238 155 240 152 239 c 2
EndSplineSet
EndChar

StartChar: accidentals.doublesharp
Encoding: 61 57638 39
Width: 250
Flags: MW
LayerCount: 2
Fore
SplineSet
190 -32 m 1
 200 -32 l 2
 217 -32 235 -34 240 -39 c 0
 244 -44 247 -62 247 -79 c 0
 247 -95 245 -110 240 -115 c 0
 233 -122 218 -125 202 -125 c 0
 185 -125 169 -121 162 -115 c 0
 158 -112 157 -95 157 -77 c 1
 153 -63 136 -31 123 -31 c 0
 110 -31 98 -59 92 -73 c 0
 91 -74 90 -76 90 -77 c 0
 90 -93 88 -110 82 -115 c 0
 76 -122 60 -125 45 -125 c 0
 28 -125 12 -121 5 -115 c 0
 2 -113 0 -95 0 -77 c 0
 0 -59 2 -42 5 -39 c 0
 11 -34 30 -32 48 -32 c 2
 58 -32 l 1
 72 -27 104 -11 104 2 c 0
 104 15 68 29 57 35 c 0
 54 35 51 34 47 34 c 0
 30 34 12 38 5 44 c 0
 2 47 0 65 0 83 c 0
 0 101 2 118 5 120 c 0
 11 125 29 127 46 127 c 0
 62 127 78 125 82 120 c 0
 87 116 90 98 90 81 c 1
 94 67 110 34 124 34 c 0
 138 34 152 70 157 81 c 1
 157 99 158 117 162 120 c 0
 167 125 185 127 203 127 c 0
 220 127 236 125 240 120 c 0
 244 115 247 97 247 80 c 0
 247 64 245 49 240 44 c 0
 233 38 218 34 202 34 c 0
 198 34 194 35 190 35 c 0
 176 30 143 15 143 1 c 0
 143 -12 179 -26 190 -32 c 1
EndSplineSet
EndChar

StartChar: accidentals.rightparen
Encoding: 62 57639 40
Width: 201
Flags: MW
LayerCount: 2
Fore
SplineSet
38.025390625 -247 m 2
 38.025390625 -234 l 2
 38.025390625 -231 39.025390625 -229 42.025390625 -228 c 0
 105.025390625 -177 142.025390625 -111 142.025390625 0 c 0
 142.025390625 111 108.025390625 178 41.025390625 227 c 0
 38.025390625 230 38.025390625 235 38.025390625 235 c 1
 38.025390625 246 l 2
 38.025390625 248 39.025390625 250 42.025390625 250 c 1
 42.025390625 249 l 1
 151.025390625 189 201.025390625 102 201.025390625 0 c 0
 201.025390625 -101 153.025390625 -189 42.025390625 -250 c 0
 42.025390625 -251 41.025390625 -251 39.025390625 -251 c 2
 39.025390625 -251 38.025390625 -248 38.025390625 -247 c 2
EndSplineSet
EndChar

StartChar: accidentals.leftparen
Encoding: 63 57640 41
Width: 163
Flags: MW
LayerCount: 2
Fore
SplineSet
-37 -234 m 2
 -37 -247 l 2
 -37 -248 -38 -251 -38 -251 c 2
 -40 -251 -41 -251 -41 -250 c 0
 -152 -189 -200 -101 -200 0 c 0
 -200 102 -150 189 -41 249 c 1
 -41 250 l 1
 -38 250 -37 248 -37 246 c 2
 -37 235 l 1
 -37 235 -37 230 -40 227 c 0
 -107 178 -141 111 -141 0 c 0
 -141 -111 -104 -177 -41 -228 c 0
 -38 -229 -37 -231 -37 -234 c 2
EndSplineSet
EndChar

StartChar: arrowheads.open.01
Encoding: 64 57641 42
Width: 20
Flags: MW
LayerCount: 2
Fore
SplineSet
14 -5 m 2
 -229 -103 l 2
 -231 -104 -233 -104 -235 -104 c 0
 -242 -104 -248 -100 -251 -94 c 2
 -257 -83 l 2
 -258 -81 -259 -79 -259 -77 c 0
 -259 -72 -255 -66 -249 -64 c 2
 -87 -5 l 2
 -83 -4 -81 -2 -81 0 c 0
 -81 2 -83 4 -87 6 c 2
 -249 65 l 2
 -255 67 -259 72 -259 78 c 0
 -259 80 -258 83 -257 85 c 2
 -251 96 l 2
 -248 102 -241 105 -235 105 c 0
 -233 105 -231 105 -229 104 c 2
 14 7 l 2
 18 5 20 3 20 1 c 0
 20 -1 18 -4 14 -5 c 2
EndSplineSet
EndChar

StartChar: arrowheads.open.0M1
Encoding: 65 57642 43
Width: 259
Flags: MW
LayerCount: 2
Fore
SplineSet
229 -103 m 2
 -14 -5 l 2
 -18 -4 -20 -1 -20 1 c 0
 -20 3 -18 5 -14 7 c 2
 229 104 l 2
 231 105 233 105 235 105 c 0
 241 105 248 102 251 96 c 2
 257 85 l 2
 258 83 259 80 259 78 c 0
 259 72 255 67 249 65 c 2
 87 6 l 2
 83 4 81 2 81 0 c 0
 81 -2 83 -4 87 -5 c 2
 249 -64 l 2
 255 -66 259 -72 259 -77 c 0
 259 -79 258 -81 257 -83 c 2
 251 -94 l 2
 248 -100 242 -104 235 -104 c 0
 233 -104 231 -104 229 -103 c 2
EndSplineSet
EndChar

StartChar: arrowheads.open.11
Encoding: 66 57643 44
Width: 105
Flags: MW
LayerCount: 2
Fore
SplineSet
7 15 m 2
 104 -228 l 2
 105 -230 105 -232 105 -234 c 0
 105 -240 102 -247 96 -250 c 2
 85 -256 l 2
 83 -257 80 -258 78 -258 c 0
 72 -258 67 -254 65 -248 c 2
 6 -86 l 2
 4 -82 2 -80 0 -80 c 0
 -2 -80 -4 -82 -5 -86 c 2
 -64 -248 l 2
 -66 -254 -72 -258 -77 -258 c 0
 -79 -258 -81 -257 -83 -256 c 2
 -94 -250 l 2
 -100 -247 -104 -241 -104 -234 c 0
 -104 -232 -104 -230 -103 -228 c 2
 -5 15 l 2
 -4 19 -1 21 1 21 c 0
 3 21 5 19 7 15 c 2
EndSplineSet
EndChar

StartChar: arrowheads.open.1M1
Encoding: 67 57644 45
Width: 105
Flags: MW
LayerCount: 2
Fore
SplineSet
104 228 m 2
 7 -15 l 2
 5 -19 3 -21 1 -21 c 0
 -1 -21 -4 -19 -5 -15 c 2
 -103 228 l 2
 -104 230 -104 232 -104 234 c 0
 -104 241 -100 247 -94 250 c 2
 -83 256 l 2
 -81 257 -79 258 -77 258 c 0
 -72 258 -66 254 -64 248 c 2
 -5 86 l 2
 -4 82 -2 80 0 80 c 0
 2 80 4 82 6 86 c 2
 65 248 l 2
 67 254 72 258 78 258 c 0
 80 258 83 257 85 256 c 2
 96 250 l 2
 102 247 105 240 105 234 c 0
 105 232 105 230 104 228 c 2
EndSplineSet
EndChar

StartChar: arrowheads.close.01
Encoding: 68 57645 46
Width: 0
Flags: MW
LayerCount: 2
Fore
SplineSet
26 0 m 1
 -82 -38 -255 -112 -255 -112 c 2
 -256 -113 -258 -113 -259 -113 c 0
 -265 -113 -273 -108 -273 -102 c 0
 -273 -101 -272 -100 -272 -99 c 2
 -272 -99 -249 -40 -243 -22 c 0
 -240 -14 -238 -7 -238 0 c 0
 -238 8 -240 15 -243 24 c 0
 -248 39 -272 102 -272 102 c 2
 -272 103 -273 104 -273 105 c 0
 -273 111 -265 115 -259 115 c 0
 -258 115 -256 114 -255 114 c 2
 -255 114 -82 38 26 0 c 1
EndSplineSet
EndChar

StartChar: arrowheads.close.0M1
Encoding: 69 57646 47
Width: 271
Flags: MW
LayerCount: 2
Fore
SplineSet
-28 0 m 1
 80 38 253 114 253 114 c 2
 254 114 256 115 257 115 c 0
 263 115 271 111 271 105 c 0
 271 104 270 103 270 102 c 2
 270 102 246 39 241 24 c 0
 238 15 236 8 236 0 c 0
 236 -7 238 -14 241 -22 c 0
 247 -40 270 -99 270 -99 c 2
 270 -100 271 -101 271 -102 c 0
 271 -108 263 -113 257 -113 c 0
 256 -113 254 -113 253 -112 c 2
 253 -112 80 -38 -28 0 c 1
EndSplineSet
EndChar

StartChar: arrowheads.close.11
Encoding: 70 57647 48
Width: 113
Flags: MW
LayerCount: 2
Fore
SplineSet
0 26 m 1
 38 -83 113 -252 113 -259 c 0
 113 -265 108 -273 102 -273 c 0
 101 -273 100 -272 99 -272 c 0
 86 -264 4 -238 0 -238 c 0
 -4 -238 -85 -262 -102 -272 c 0
 -103 -272 -104 -273 -105 -273 c 0
 -111 -273 -115 -265 -115 -259 c 0
 -115 -252 -38 -83 0 26 c 1
EndSplineSet
EndChar

StartChar: arrowheads.close.1M1
Encoding: 71 57648 49
Width: 113
Flags: MW
LayerCount: 2
Fore
SplineSet
0 -28 m 1
 -38 81 -115 250 -115 257 c 0
 -115 263 -111 271 -105 271 c 0
 -104 271 -103 270 -102 270 c 0
 -85 260 -4 236 0 236 c 0
 4 236 86 262 99 270 c 0
 100 270 101 271 102 271 c 0
 108 271 113 263 113 257 c 0
 113 250 38 81 0 -28 c 1
EndSplineSet
EndChar

StartChar: dots.dot
Encoding: 72 57649 50
Width: 100
Flags: MW
LayerCount: 2
Fore
SplineSet
50 -50 m 0
 22 -50 0 -28 0 0 c 0
 0 28 22 50 50 50 c 0
 78 50 100 28 100 0 c 0
 100 -28 78 -50 50 -50 c 0
EndSplineSet
EndChar

StartChar: scripts.ufermata
Encoding: 73 57650 51
Width: 301
Flags: MW
LayerCount: 2
Fore
SplineSet
54 52 m 0
 54 22 29 -3 -1 -3 c 0
 -30 -3 -55 22 -55 52 c 0
 -55 81 -30 106 -1 106 c 0
 29 106 54 81 54 52 c 0
-2 221 m 0
 -210 221 -253 68 -265 27 c 0
 -266 23 -267 19 -268 18 c 0
 -274 4 -279 -3 -288 -3 c 0
 -296 -3 -301 0 -301 10 c 0
 -301 13 -301 17 -300 21 c 0
 -239 327 -32 329 0 329 c 0
 29 329 238 327 300 21 c 0
 301 17 301 14 301 11 c 0
 301 1 296 -3 287 -3 c 0
 275 -3 273 4 266 18 c 0
 265 19 265 22 264 25 c 0
 254 63 211 221 -2 221 c 0
EndSplineSet
EndChar

StartChar: scripts.dfermata
Encoding: 74 57651 52
Width: 303
Flags: MW
LayerCount: 2
Fore
SplineSet
56 -55 m 0
 56 -84 31 -109 1 -109 c 0
 -28 -109 -53 -84 -53 -55 c 0
 -53 -25 -28 0 1 0 c 0
 31 0 56 -25 56 -55 c 0
0 -224 m 0
 213 -224 256 -66 266 -28 c 0
 267 -25 267 -22 268 -21 c 0
 275 -7 277 0 289 0 c 0
 298 0 303 -4 303 -14 c 0
 303 -17 303 -20 302 -24 c 0
 240 -330 31 -332 2 -332 c 0
 -30 -332 -237 -330 -298 -24 c 0
 -299 -20 -299 -16 -299 -13 c 0
 -299 -3 -294 0 -286 0 c 0
 -277 0 -272 -7 -266 -21 c 0
 -265 -22 -264 -26 -263 -30 c 0
 -251 -71 -208 -224 0 -224 c 0
EndSplineSet
EndChar

StartChar: scripts.ushortfermata
Encoding: 75 57652 53
Width: 303
Flags: MW
LayerCount: 2
Fore
SplineSet
55 65 m 0
 55 34 30 9 0 9 c 0
 -30 9 -55 34 -55 65 c 0
 -55 94 -30 119 0 119 c 0
 30 119 55 94 55 65 c 0
-298 0 m 1
 -298 0 -301 1 -301 3 c 0
 -301 4 -300 6 -299 7 c 0
 -253 52 -25 341 1 341 c 0
 28 341 258 48 301 7 c 0
 302 6 303 4 303 3 c 0
 303 1 300 0 300 0 c 1
 250 0 l 1
 250 0 245 1 243 2 c 0
 214 27 17 228 1 228 c 0
 -15 228 -208 31 -240 4 c 0
 -244 2 -245 0 -247 0 c 2
 -298 0 l 1
EndSplineSet
EndChar

StartChar: scripts.dshortfermata
Encoding: 76 57653 54
Width: 303
Flags: MW
LayerCount: 2
Fore
SplineSet
55 -65 m 0
 55 -94 30 -119 0 -119 c 0
 -30 -119 -55 -94 -55 -65 c 0
 -55 -34 -30 -9 0 -9 c 0
 30 -9 55 -34 55 -65 c 0
-298 0 m 1
 -247 0 l 1
 -247 0 -244 -2 -240 -4 c 0
 -208 -31 -15 -228 1 -228 c 0
 17 -228 214 -27 243 -2 c 0
 245 -1 250 0 250 0 c 1
 300 0 l 1
 300 0 303 -1 303 -3 c 0
 303 -4 302 -6 301 -7 c 0
 258 -48 28 -341 1 -341 c 0
 -25 -341 -253 -52 -299 -7 c 0
 -300 -6 -301 -4 -301 -3 c 0
 -301 -1 -298 0 -298 0 c 1
EndSplineSet
EndChar

StartChar: scripts.ulongfermata
Encoding: 77 57654 55
Width: 302
Flags: MW
LayerCount: 2
Fore
SplineSet
55 54 m 0
 55 24 31 -1 0 -1 c 0
 -30 -1 -54 24 -54 54 c 0
 -54 84 -30 108 0 108 c 0
 31 108 55 84 55 54 c 0
252 333 m 2
 280 333 302 321 302 306 c 2
 302 13 l 2
 302 6 291 0 277 0 c 0
 264 0 253 6 253 13 c 2
 253 201 l 2
 253 213 126 219 0 219 c 0
 -126 219 -252 213 -252 201 c 2
 -252 13 l 2
 -252 6 -263 0 -277 0 c 0
 -290 0 -301 6 -301 13 c 2
 -301 306 l 2
 -301 321 -279 333 -251 333 c 2
 252 333 l 2
EndSplineSet
EndChar

StartChar: scripts.dlongfermata
Encoding: 78 57655 56
Width: 302
Flags: MW
LayerCount: 2
Fore
SplineSet
55 -54 m 0
 55 -84 31 -108 0 -108 c 0
 -30 -108 -54 -84 -54 -54 c 0
 -54 -24 -30 1 0 1 c 0
 31 1 55 -24 55 -54 c 0
252 -333 m 2
 -251 -333 l 2
 -279 -333 -301 -321 -301 -306 c 2
 -301 -13 l 2
 -301 -6 -290 0 -277 0 c 0
 -263 0 -252 -6 -252 -13 c 2
 -252 -201 l 2
 -252 -213 -126 -219 0 -219 c 0
 126 -219 253 -213 253 -201 c 2
 253 -13 l 2
 253 -6 264 0 277 0 c 0
 291 0 302 -6 302 -13 c 2
 302 -306 l 2
 302 -321 280 -333 252 -333 c 2
EndSplineSet
EndChar

StartChar: scripts.uverylongfermata
Encoding: 79 57656 57
Width: 353
Flags: MW
LayerCount: 2
Fore
SplineSet
-213 270 m 2
 204 270 l 2
 234 270 257 257 257 241 c 2
 257 15 l 2
 257 7 246 1 231 1 c 0
 217 1 205 7 205 15 c 2
 205 151 l 2
 205 163 100 170 -5 170 c 0
 -110 170 -214 163 -214 151 c 2
 -214 15 l 2
 -214 7 -226 1 -241 1 c 0
 -255 1 -266 7 -266 15 c 2
 -266 241 l 2
 -266 257 -243 270 -213 270 c 2
59 58 m 0
 59 27 33 0 0 0 c 0
 -32 0 -57 27 -57 58 c 0
 -57 90 -32 116 0 116 c 0
 33 116 59 90 59 58 c 0
-309 408 m 2
 300 408 l 2
 329 408 353 395 353 379 c 2
 353 15 l 2
 353 7 341 1 326 1 c 0
 312 1 301 7 301 15 c 2
 301 299 l 2
 301 312 148 318 -5 318 c 0
 -158 318 -310 312 -310 299 c 2
 -310 15 l 2
 -310 7 -321 1 -336 1 c 0
 -350 1 -362 7 -362 15 c 2
 -362 379 l 2
 -362 395 -338 408 -309 408 c 2
EndSplineSet
EndChar

StartChar: scripts.dverylongfermata
Encoding: 80 57657 58
Width: 353
Flags: MW
LayerCount: 2
Fore
SplineSet
204 -270 m 2
 -213 -270 l 2
 -243 -270 -266 -257 -266 -241 c 2
 -266 -15 l 2
 -266 -7 -255 -1 -241 -1 c 0
 -226 -1 -214 -7 -214 -15 c 2
 -214 -151 l 2
 -214 -163 -110 -170 -5 -170 c 0
 100 -170 205 -163 205 -151 c 2
 205 -15 l 2
 205 -7 217 -1 231 -1 c 0
 246 -1 257 -7 257 -15 c 2
 257 -241 l 2
 257 -257 234 -270 204 -270 c 2
59 -58 m 0
 59 -90 33 -116 0 -116 c 0
 -32 -116 -57 -90 -57 -58 c 0
 -57 -27 -32 0 0 0 c 0
 33 0 59 -27 59 -58 c 0
300 -408 m 2
 -309 -408 l 2
 -338 -408 -362 -395 -362 -379 c 2
 -362 -15 l 2
 -362 -7 -350 -1 -336 -1 c 0
 -321 -1 -310 -7 -310 -15 c 2
 -310 -299 l 2
 -310 -312 -158 -318 -5 -318 c 0
 148 -318 301 -312 301 -299 c 2
 301 -15 l 2
 301 -7 312 -1 326 -1 c 0
 341 -1 353 -7 353 -15 c 2
 353 -379 l 2
 353 -395 329 -408 300 -408 c 2
EndSplineSet
EndChar

StartChar: scripts.thumb
Encoding: 81 57658 59
Width: 100
Flags: MW
LayerCount: 2
Fore
SplineSet
100 0 m 0
 100 -50 63 -91 16 -99 c 1
 16 -200 l 1
 -16 -200 l 1
 -16 -99 l 1
 -64 -91 -100 -50 -100 0 c 0
 -100 56 -55 100 0 100 c 0
 55 100 100 56 100 0 c 0
16 -71 m 1
 49 -64 73 -35 73 0 c 0
 73 41 41 73 0 73 c 0
 -40 73 -73 41 -73 0 c 0
 -73 -35 -48 -64 -16 -71 c 1
 16 -71 l 1
EndSplineSet
EndChar

StartChar: scripts.sforzato
Encoding: 82 57659 60
Width: 169
Flags: MW
LayerCount: 2
Fore
SplineSet
-150 -121 m 0
 -151 -122 -153 -122 -154 -122 c 0
 -161 -122 -165 -114 -168 -107 c 0
 -169 -104 -170 -101 -170 -98 c 0
 -170 -93 -167 -88 -156 -83 c 2
 -156 -83 58 -10 69 -7 c 0
 75 -5 77 -3 77 0 c 0
 77 3 75 6 70 7 c 0
 60 11 -156 84 -156 84 c 2
 -167 88 -170 93 -170 98 c 0
 -170 101 -169 104 -168 108 c 0
 -165 116 -162 122 -153 122 c 0
 -150 122 -148 121 -144 120 c 2
 156 18 l 2
 169 14 169 8 169 0 c 0
 169 -8 169 -15 156 -18 c 2
 156 -18 -147 -120 -150 -121 c 0
EndSplineSet
EndChar

StartChar: scripts.espr
Encoding: 83 57660 61
Width: 181
Flags: MW
LayerCount: 2
Fore
SplineSet
-42 -121 m 0
 -45 -120 -348 -18 -348 -18 c 2
 -361 -15 -361 -8 -361 0 c 0
 -361 8 -361 14 -348 18 c 2
 -48 120 l 2
 -44 121 -42 122 -39 122 c 0
 -30 122 -27 116 -24 108 c 0
 -23 104 -22 101 -22 98 c 0
 -22 93 -25 88 -36 84 c 2
 -36 84 -252 11 -262 7 c 0
 -267 6 -269 3 -269 0 c 0
 -269 -3 -267 -5 -261 -7 c 0
 -250 -10 -36 -83 -36 -83 c 2
 -25 -88 -22 -93 -22 -98 c 0
 -22 -101 -23 -104 -24 -107 c 0
 -27 -114 -31 -122 -38 -122 c 0
 -39 -122 -41 -122 -42 -121 c 0
42 -121 m 0
 41 -122 39 -122 38 -122 c 0
 31 -122 27 -114 24 -107 c 0
 23 -104 22 -101 22 -98 c 0
 22 -93 25 -88 36 -83 c 2
 36 -83 250 -10 261 -7 c 0
 267 -5 269 -3 269 0 c 0
 269 3 267 6 262 7 c 0
 252 11 36 84 36 84 c 2
 25 88 22 93 22 98 c 0
 22 101 23 104 24 108 c 0
 27 116 30 122 39 122 c 0
 42 122 44 121 48 120 c 2
 348 18 l 2
 361 14 361 8 361 0 c 0
 361 -8 361 -15 348 -18 c 2
 348 -18 45 -120 42 -121 c 0
EndSplineSet
EndChar

StartChar: scripts.staccato
Encoding: 84 57661 62
Width: 61
Flags: MW
LayerCount: 2
Fore
SplineSet
61 0 m 0
 61 -34 34 -61 0 -61 c 0
 -34 -61 -61 -34 -61 0 c 0
 -61 34 -34 61 0 61 c 0
 34 61 61 34 61 0 c 0
EndSplineSet
EndChar

StartChar: scripts.ustaccatissimo
Encoding: 85 57662 63
Width: 50
Flags: MW
LayerCount: 2
Fore
SplineSet
0 280 m 0
 27 280 50 272 50 257 c 0
 50 234 25 -15 0 -15 c 0
 -23 -15 -49 243 -49 258 c 0
 -48 271 -26 280 0 280 c 0
EndSplineSet
EndChar

StartChar: scripts.dstaccatissimo
Encoding: 86 57663 64
Width: 50
Flags: MW
LayerCount: 2
Fore
SplineSet
0 -280 m 0
 -26 -280 -48 -271 -49 -258 c 0
 -49 -243 -23 15 0 15 c 0
 25 15 50 -234 50 -257 c 0
 50 -272 27 -280 0 -280 c 0
EndSplineSet
EndChar

StartChar: scripts.tenuto
Encoding: 87 57664 65
Width: 169
Flags: MW
LayerCount: 2
Fore
SplineSet
145 -24 m 2
 -146 -24 l 2
 -170 -24 -170 -13 -170 0 c 0
 -170 13 -170 24 -146 24 c 2
 145 24 l 2
 169 24 169 13 169 0 c 0
 169 -13 168 -24 145 -24 c 2
EndSplineSet
EndChar

StartChar: scripts.uportato
Encoding: 88 57665 66
Width: 150
Flags: MW
LayerCount: 2
Fore
SplineSet
61 157 m 0
 61 123 34 96 0 96 c 0
 -34 96 -61 123 -61 157 c 0
 -61 191 -34 218 0 218 c 0
 34 218 61 191 61 157 c 0
147 -24 m 2
 -144 -24 l 2
 -168 -24 -168 -13 -168 0 c 0
 -168 13 -168 24 -144 24 c 2
 147 24 l 2
 171 24 171 13 171 0 c 0
 171 -13 170 -24 147 -24 c 2
EndSplineSet
EndChar

StartChar: scripts.dportato
Encoding: 89 57666 67
Width: 150
Flags: MW
LayerCount: 2
Fore
SplineSet
144 -24 m 2
 -147 -24 l 2
 -171 -24 -171 -13 -171 0 c 0
 -171 13 -171 24 -147 24 c 2
 144 24 l 2
 168 24 168 13 168 0 c 0
 168 -13 167 -24 144 -24 c 2
61 -155 m 0
 61 -189 34 -216 0 -216 c 0
 -34 -216 -61 -189 -61 -155 c 0
 -61 -121 -34 -94 0 -94 c 0
 34 -94 61 -121 61 -155 c 0
EndSplineSet
EndChar

StartChar: scripts.umarcato
Encoding: 90 57667 68
Width: 125
Flags: MW
LayerCount: 2
Fore
SplineSet
118 16 m 2
 119 15 119 13 119 11 c 0
 119 5 115 1 108 0 c 2
 40 0 l 2
 36 0 32 2 29 6 c 2
 29 6 -27 125 -28 129 c 0
 -30 131 -32 132 -34 132 c 0
 -36 132 -37 131 -38 129 c 0
 -40 125 -94 6 -94 6 c 2
 -96 1 -101 -1 -105 -1 c 0
 -106 -1 -109 -1 -110 0 c 0
 -115 1 -117 6 -117 11 c 0
 -117 13 -117 14 -116 16 c 2
 -10 247 l 1
 -10 247 -7 253 0 253 c 0
 4 253 7 251 10 247 c 2
 118 16 l 2
EndSplineSet
EndChar

StartChar: scripts.dmarcato
Encoding: 91 57668 69
Width: 125
Flags: MW
LayerCount: 2
Fore
SplineSet
118 -17 m 2
 10 -248 l 2
 7 -252 4 -254 0 -254 c 0
 -7 -254 -10 -248 -10 -248 c 1
 -116 -17 l 2
 -117 -15 -117 -14 -117 -12 c 0
 -117 -7 -115 -2 -110 -1 c 0
 -109 0 -106 0 -105 0 c 0
 -101 0 -96 -2 -94 -7 c 2
 -94 -7 -40 -126 -38 -130 c 0
 -37 -132 -36 -133 -34 -133 c 0
 -32 -133 -30 -132 -28 -130 c 0
 -27 -126 29 -7 29 -7 c 2
 32 -3 36 -1 40 -1 c 2
 108 -1 l 2
 115 -2 119 -6 119 -12 c 0
 119 -14 119 -16 118 -17 c 2
EndSplineSet
EndChar

StartChar: scripts.open
Encoding: 92 57669 70
Width: 152
Flags: MW
LayerCount: 2
Fore
SplineSet
0 -152 m 0
 -84 -152 -152 -84 -152 0 c 0
 -152 84 -84 152 0 152 c 0
 84 152 152 84 152 0 c 0
 152 -84 84 -152 0 -152 c 0
0 120 m 0
 -66 120 -120 66 -120 0 c 0
 -120 -66 -66 -120 0 -120 c 0
 66 -120 120 -66 120 0 c 0
 120 66 66 120 0 120 c 0
EndSplineSet
EndChar

StartChar: scripts.halfopen
Encoding: 93 57670 71
Width: 100
Flags: MW
LayerCount: 2
Fore
SplineSet
-125 -169 m 0
 -132 -169 -138 -163 -138 -156 c 0
 -138 -153 -137 -150 -135 -148 c 2
 -79 -78 l 1
 -93 -56 -100 -28 -100 0 c 0
 -100 65 -60 125 0 125 c 0
 25 125 46 115 62 99 c 1
 115 164 l 2
 118 167 121 169 125 169 c 0
 132 169 138 163 138 156 c 0
 138 153 137 150 135 148 c 2
 79 78 l 1
 93 56 100 28 100 0 c 0
 100 -65 60 -125 0 -125 c 0
 -25 -125 -46 -115 -62 -99 c 1
 -115 -164 l 2
 -118 -167 -121 -169 -125 -169 c 0
-52 -44 m 1
 40 71 l 1
 31 85 18 95 0 95 c 0
 -41 95 -57 47 -57 0 c 0
 -57 -15 -56 -30 -52 -44 c 1
-40 -71 m 1
 -31 -85 -18 -95 0 -95 c 0
 41 -95 57 -47 57 0 c 0
 57 15 56 30 52 44 c 1
 -40 -71 l 1
EndSplineSet
EndChar

StartChar: scripts.halfopenvertical
Encoding: 94 57671 72
Width: 100
Flags: MW
LayerCount: 2
Fore
SplineSet
13 124 m 1
 66 116 100 60 100 0 c 0
 100 -60 66 -116 13 -124 c 1
 13 -188 l 2
 13 -195 7 -201 0 -201 c 0
 -7 -201 -13 -195 -13 -188 c 2
 -13 -124 l 1
 -66 -116 -100 -60 -100 0 c 0
 -100 60 -66 116 -13 124 c 1
 -13 188 l 2
 -13 195 -7 201 0 201 c 0
 7 201 13 195 13 188 c 2
 13 124 l 1
13 -93 m 1
 44 -84 57 -41 57 0 c 0
 57 41 44 84 13 93 c 1
 13 -93 l 1
-13 -93 m 1
 -13 93 l 1
 -44 84 -57 41 -57 0 c 0
 -57 -41 -44 -84 -13 -93 c 1
EndSplineSet
EndChar

StartChar: scripts.stopped
Encoding: 95 57672 73
Width: 136
Flags: MW
LayerCount: 2
Fore
SplineSet
136 16 m 1
 136 -16 l 1
 16 -16 l 1
 16 -136 l 1
 -16 -136 l 1
 -16 -16 l 1
 -136 -16 l 1
 -136 16 l 1
 -16 16 l 1
 -16 136 l 1
 16 136 l 1
 16 16 l 1
 136 16 l 1
EndSplineSet
EndChar

StartChar: scripts.upbow
Encoding: 96 57673 74
Width: 162
Flags: MW
LayerCount: 2
Fore
SplineSet
0 0 m 0
 -10 0 -17 6 -19 14 c 2
 -124 473 l 2
 -125 475 -125 476 -125 478 c 0
 -125 485 -119 492 -111 494 c 2
 -107 494 l 2
 -99 494 -92 489 -89 481 c 2
 -1 96 l 1
 88 481 l 2
 90 489 97 494 105 494 c 2
 109 494 l 2
 118 492 123 485 123 477 c 2
 123 473 l 1
 17 14 l 2
 15 6 8 0 0 0 c 0
EndSplineSet
EndChar

StartChar: scripts.downbow
Encoding: 97 57674 75
Width: 187
Flags: MW
LayerCount: 2
Fore
SplineSet
130 318 m 2
 144 318 156 306 156 292 c 2
 156 12 l 2
 156 5 150 0 144 0 c 2
 131 0 l 2
 124 0 118 5 118 12 c 2
 118 176 l 2
 118 187 59 193 0 193 c 0
 -59 193 -118 187 -118 176 c 2
 -118 12 l 2
 -118 5 -124 0 -130 0 c 2
 -144 0 l 2
 -150 0 -156 5 -156 12 c 2
 -156 292 l 2
 -156 306 -144 318 -130 318 c 2
 130 318 l 2
EndSplineSet
EndChar

StartChar: scripts.reverseturn
Encoding: 98 57675 76
Width: 229
Flags: MW
LayerCount: 2
Fore
SplineSet
-131 108 m 0
 -110 108 -82 94 -82 67 c 0
 -82 45 -96 28 -120 28 c 0
 -142 28 -148 51 -166 51 c 0
 -182 51 -203 30 -203 1 c 0
 -203 -33 -174 -54 -143 -57 c 2
 -135 -57 l 2
 -98 -57 -71 -34 -48 -7 c 0
 -15 32 17 70 63 94 c 0
 83 104 105 108 128 108 c 0
 184 108 229 72 229 10 c 0
 229 -74 162 -107 132 -107 c 0
 112 -107 84 -93 84 -65 c 0
 84 -44 98 -27 120 -27 c 0
 144 -27 150 -50 166 -50 c 0
 184 -50 204 -29 204 1 c 0
 204 43 164 59 132 59 c 0
 99 59 70 26 50 3 c 0
 26 -25 4 -57 -27 -79 c 0
 -56 -99 -91 -107 -126 -107 c 0
 -182 -107 -228 -71 -228 -8 c 0
 -228 76 -161 108 -131 108 c 0
EndSplineSet
EndChar

StartChar: scripts.turn
Encoding: 99 57676 77
Width: 273
Flags: MW
LayerCount: 2
Fore
SplineSet
132 108 m 0
 162 108 229 76 229 -8 c 0
 229 -71 183 -107 127 -107 c 0
 92 -107 57 -99 28 -79 c 0
 -3 -57 -25 -25 -49 3 c 0
 -69 26 -98 59 -131 59 c 0
 -163 59 -203 43 -203 1 c 0
 -203 -29 -183 -50 -165 -50 c 0
 -149 -50 -143 -27 -119 -27 c 0
 -97 -27 -83 -44 -83 -65 c 0
 -83 -93 -111 -107 -131 -107 c 0
 -161 -107 -228 -74 -228 10 c 0
 -228 72 -183 108 -127 108 c 0
 -104 108 -82 104 -62 94 c 0
 -16 70 16 32 49 -7 c 0
 72 -34 99 -57 136 -57 c 2
 144 -57 l 2
 175 -54 204 -33 204 1 c 0
 204 30 183 51 167 51 c 0
 149 51 143 28 121 28 c 0
 97 28 83 45 83 67 c 0
 83 94 111 108 132 108 c 0
EndSplineSet
EndChar

StartChar: scripts.trill
Encoding: 100 57677 78
Width: 196
Flags: MW
LayerCount: 2
Fore
SplineSet
-198 146 m 0
 -243 146 -264 172 -264 203 c 0
 -264 245 -229 273 -182 273 c 0
 -167 273 -154 270 -140 264 c 0
 -131 260 -125 255 -121 255 c 0
 -118 255 -117 257 -113 267 c 2
 -77 355 l 2
 -73 365 -69 368 -60 371 c 2
 -11 387 l 2
 -8 388 -2 390 2 390 c 0
 6 390 8 388 8 384 c 0
 8 381 7 378 5 373 c 2
 -45 249 l 2
 -47 244 -50 238 -50 234 c 0
 -50 232 -49 231 -47 231 c 0
 -42 231 -36 235 -23 242 c 0
 -2 253 36 273 76 273 c 0
 98 273 113 264 120 251 c 0
 128 236 124 229 129 229 c 0
 133 229 134 233 143 243 c 0
 158 260 179 274 205 274 c 0
 242 274 257 250 257 221 c 0
 257 186 239 166 215 166 c 0
 194 166 179 178 179 198 c 0
 179 226 201 229 201 238 c 0
 201 242 197 244 191 244 c 0
 169 244 137 207 124 174 c 2
 59 12 l 2
 55 2 52 0 43 0 c 2
 -6 0 l 2
 -14 0 -17 2 -17 6 c 0
 -17 9 -16 12 -14 17 c 2
 59 198 l 2
 62 205 65 217 65 227 c 0
 65 239 61 242 52 242 c 0
 33 242 9 228 -26 207 c 2
 -32 204 l 2
 -48 195 -54 190 -54 184 c 0
 -54 181 -53 179 -51 174 c 0
 -42 152 -38 130 -38 106 c 0
 -38 32 -88 -10 -140 -10 c 0
 -178 -10 -197 12 -197 40 c 0
 -197 61 -189 81 -178 108 c 2
 -167 135 l 2
 -165 140 -164 143 -164 145 c 0
 -164 147 -165 148 -167 148 c 0
 -173 148 -186 146 -198 146 c 0
-182 250 m 0
 -222 250 -237 227 -237 209 c 0
 -237 195 -229 179 -196 179 c 0
 -186 179 -174 181 -161 184 c 0
 -148 187 -144 190 -139 203 c 2
 -135 213 l 2
 -133 218 -131 223 -131 226 c 0
 -131 241 -171 250 -182 250 c 0
-128 33 m 0
 -128 26 -125 21 -117 21 c 0
 -88 21 -61 61 -61 105 c 0
 -61 123 -65 145 -70 159 c 0
 -71.8115234375 164.071289062 -72 167 -75 167 c 0
 -78 167 -79 165 -81 160 c 0
 -119 65 -120 65 -120 64 c 0
 -124 54 -128 41 -128 33 c 0
EndSplineSet
EndChar

StartChar: scripts.upedalheel
Encoding: 101 57678 79
Width: 213
Flags: MW
LayerCount: 2
Fore
SplineSet
213 161 m 1
 213 -197 l 2
 213 -221 203 -262 176 -297 c 0
 158 -319 136 -336 110 -348 c 0
 79 -362 42 -370 0 -370 c 0
 -42 -370 -79 -362 -110 -348 c 0
 -136 -336 -159 -319 -176 -297 c 0
 -203 -262 -213 -221 -213 -197 c 2
 -213 161 l 1
 -152 161 l 1
 -152 -197 l 2
 -152 -210 -150 -231 -129 -258 c 0
 -100 -294 -64 -309 0 -309 c 0
 63 -309 99 -294 127 -258 c 0
 149 -231 151 -210 151 -197 c 2
 151 161 l 1
 213 161 l 1
EndSplineSet
EndChar

StartChar: scripts.dpedalheel
Encoding: 102 57679 80
Width: 213
Flags: MW
LayerCount: 2
Fore
SplineSet
213 189 m 2
 213 -169 l 1
 151 -169 l 1
 151 189 l 2
 151 202 149 223 127 250 c 0
 99 286 63 301 0 301 c 0
 -64 301 -100 286 -129 250 c 0
 -150 223 -152 202 -152 189 c 2
 -152 -169 l 1
 -213 -169 l 1
 -213 189 l 2
 -213 213 -203 254 -176 289 c 0
 -159 311 -136 328 -110 340 c 0
 -79 354 -42 362 0 362 c 0
 42 362 79 354 110 340 c 0
 136 328 158 311 176 289 c 0
 203 254 213 213 213 189 c 2
EndSplineSet
EndChar

StartChar: scripts.upedaltoe
Encoding: 103 57680 81
Width: 219
Flags: MW
LayerCount: 2
Fore
SplineSet
158 532 m 1
 219 532 l 1
 27 18 l 2
 23 7 12 0 0 0 c 0
 -12 0 -22 7 -26 18 c 2
 -219 532 l 1
 -157 532 l 1
 0 109 l 1
 158 532 l 1
EndSplineSet
EndChar

StartChar: scripts.dpedaltoe
Encoding: 104 57681 82
Width: 219
Flags: MW
LayerCount: 2
Fore
SplineSet
219 -532 m 1
 158 -532 l 1
 0 -109 l 1
 -157 -532 l 1
 -219 -532 l 1
 -26 -18 l 2
 -22 -7 -12 0 0 0 c 0
 12 0 23 -7 27 -18 c 2
 219 -532 l 1
EndSplineSet
EndChar

StartChar: scripts.flageolet
Encoding: 105 57682 83
Width: 133
Flags: MW
LayerCount: 2
Fore
SplineSet
0 -152 m 0
 -84 -152 -152 -84 -152 0 c 0
 -152 84 -84 152 0 152 c 0
 84 152 152 84 152 0 c 0
 152 -84 84 -152 0 -152 c 0
0 120 m 0
 -66 120 -120 66 -120 0 c 0
 -120 -66 -66 -120 0 -120 c 0
 66 -120 120 -66 120 0 c 0
 120 66 66 120 0 120 c 0
EndSplineSet
EndChar

StartChar: scripts.segno
Encoding: 106 57683 84
Width: 296
Flags: MW
LayerCount: 2
Fore
SplineSet
-234 111 m 0
 -245 136 -250 161 -250 185 c 0
 -250 284 -171 370 -101 370 c 0
 -50 370 17 353 33 307 c 0
 38 291 41 275 41 260 c 0
 41 217 13 193 -28 193 c 0
 -79 193 -94 252 -101 279 c 2
 -103 286 l 2
 -106 297 -113 299 -119 299 c 2
 -125 299 l 1
 -167 292 -179 264 -179 237 c 0
 -179 216 -171 195 -165 184 c 0
 -139 139 12 81 21 78 c 0
 25 76 28 75 31 75 c 0
 35 75 37 78 40 83 c 0
 46 92 205 379 205 379 c 2
 210 388 220 393 230 393 c 0
 245 393 258 381 258 365 c 0
 258 360 257 356 254 351 c 2
 254 351 99 72 94 64 c 0
 93 62 92 60 92 58 c 0
 92 53 97 49 109 42 c 0
 121 36 279 -53 294 -163 c 0
 295 -173 296 -183 296 -192 c 0
 296 -275 243 -340 163 -367 c 0
 148 -372 134 -374 121 -374 c 0
 62 -374 0 -321 0 -260 c 0
 0 -220 34 -204 71 -195 c 0
 75 -194 79 -193 83 -193 c 0
 111 -193 136 -221 136 -259 c 2
 136 -270 l 2
 136 -301 153 -315 172 -315 c 0
 174 -315 177 -314 179 -314 c 0
 211 -309 235 -283 235 -244 c 0
 235 -149 35 -90 20 -87 c 0
 16 -87 8 -93 8 -92 c 1
 5 -98 -150 -378 -150 -378 c 2
 -155 -387 -165 -393 -175 -393 c 0
 -191 -393 -203 -380 -203 -364 c 0
 -203 -360 -202 -355 -200 -351 c 2
 -200 -351 -56 -92 -49 -78 c 0
 -45 -71 -43 -66 -43 -62 c 0
 -43 -58 -45 -56 -49 -54 c 0
 -57 -51 -202 38 -234 111 c 0
218 43 m 0
 187 43 161 69 161 100 c 0
 161 132 187 157 218 157 c 0
 250 157 275 132 275 100 c 0
 275 69 250 43 218 43 c 0
-171 -159 m 0
 -202 -159 -228 -134 -228 -102 c 0
 -228 -71 -202 -45 -171 -45 c 0
 -139 -45 -114 -71 -114 -102 c 0
 -114 -134 -139 -159 -171 -159 c 0
EndSplineSet
EndChar

StartChar: scripts.varsegno
Encoding: 107 57684 85
Width: 85
Flags: MW
LayerCount: 2
Fore
SplineSet
-314 -112 m 0
 -314 -67 -277 -14 -271 -4 c 0
 -268 1 -265 5 -265 9 c 0
 -265 13 -268 18 -274 25 c 0
 -285 38 -310 75 -310 121 c 0
 -310 168 -272 214 -256 225 c 0
 -250 229 -247 234 -247 240 c 0
 -247 244 -249 249 -253 254 c 2
 -256 257 l 2
 -268 271 -297 305 -297 368 c 0
 -297 437 -235 516 -114 516 c 2
 -109 516 l 2
 -64 515 54 488 54 420 c 0
 54 367 24 358 -2 358 c 0
 -29 358 -51 366 -70 411 c 0
 -85 448 -137 465 -152 465 c 0
 -173 465 -228 456 -228 406 c 0
 -228 359 -127 303 -78 276 c 2
 -54 263 l 2
 -8 237 87 184 87 116 c 0
 87 41 54 15 38 -4 c 0
 32 -12 30 -17 30 -21 c 0
 30 -27 34 -31 38 -35 c 2
 41 -39 l 2
 49 -50 80 -93 80 -144 c 0
 80 -200 33 -241 22 -254 c 0
 17 -260 16 -265 16 -270 c 0
 16 -276 19 -281 23 -286 c 2
 25 -289 l 2
 36 -300 68 -334 68 -388 c 2
 68 -397 l 1
 64 -459 24 -548 -109 -548 c 0
 -240 -548 -281 -467 -281 -436 c 0
 -281 -404 -263 -382 -232 -382 c 0
 -202 -382 -186 -399 -171 -421 c 0
 -157 -443 -133 -512 -79 -512 c 0
 -25 -512 -4 -472 -3 -439 c 0
 -3 -407 -72 -348 -114 -321 c 0
 -160 -292 -314 -229 -314 -112 c 0
-214 -36 m 0
 -235 -36 -263 -60 -263 -82 c 0
 -263 -104 -225 -131 -207 -144 c 2
 -207 -144 -68 -220 -40 -227 c 0
 -34 -228 -28 -229 -23 -229 c 0
 -7 -229 3 -221 11 -203 c 0
 15 -196 16 -190 16 -184 c 0
 16 -167 5 -151 -4 -144 c 0
 -18 -133 -191 -44 -198 -40 c 0
 -201 -38 -207 -36 -214 -36 c 0
-238 169 m 0
 -241 163 -243 158 -243 153 c 0
 -243 127 -207 108 -190 96 c 2
 -190 96 -57 26 -31 20 c 0
 -24 18 -18 17 -13 17 c 0
 2 17 10 25 19 41 c 0
 23 47 24 54 24 60 c 0
 24 76 14 90 5 96 c 0
 -8 107 -173 188 -182 193 c 0
 -185 195 -189 196 -195 196 c 0
 -207 196 -224 190 -238 169 c 0
EndSplineSet
EndChar

StartChar: scripts.coda
Encoding: 108 57685 86
Width: 659
Flags: MW
LayerCount: 2
Fore
SplineSet
664 24 m 2
 678 24 682 13 682 0 c 0
 682 -13 678 -24 664 -24 c 2
 545 -24 l 1
 535 -211 395 -363 233 -376 c 1
 233 -516 l 2
 233 -530 222 -534 209 -534 c 0
 196 -534 185 -530 185 -516 c 2
 185 -376 l 1
 23 -363 -116 -211 -127 -24 c 1
 -259 -24 l 2
 -273 -24 -277 -13 -277 0 c 0
 -277 13 -273 24 -259 24 c 2
 -127 24 l 1
 -116 213 23 363 185 376 c 1
 185 505 l 2
 185 518 196 522 209 522 c 0
 222 522 233 518 233 505 c 2
 233 376 l 1
 395 363 535 212 545 24 c 1
 664 24 l 2
380 24 m 1
 380 186 373 308 233 320 c 1
 233 24 l 1
 380 24 l 1
185 320 m 1
 43 308 43 186 43 24 c 1
 185 24 l 1
 185 320 l 1
43 -24 m 1
 44 -178 56 -313 185 -328 c 1
 185 -24 l 1
 43 -24 l 1
233 -328 m 1
 358 -313 377 -177 380 -24 c 1
 233 -24 l 1
 233 -328 l 1
EndSplineSet
EndChar

StartChar: scripts.varcoda
Encoding: 109 57686 87
Width: 509
Flags: MW
LayerCount: 2
Fore
SplineSet
517 25 m 2
 525 25 532 16 532 4 c 2
 532 -4 l 2
 532 -17 525 -25 517 -25 c 2
 393 -25 l 1
 393 -365 l 2
 393 -375 386 -382 379 -382 c 2
 145 -382 l 1
 145 -508 l 2
 145 -519 137 -529 124 -529 c 2
 118 -529 l 2
 106 -529 97 -519 97 -508 c 2
 97 -382 l 1
 -137 -382 l 2
 -145 -382 -151 -375 -151 -365 c 2
 -151 -25 l 1
 -274 -25 l 2
 -283 -25 -290 -17 -290 -4 c 2
 -290 4 l 2
 -290 16 -283 25 -274 25 c 2
 -151 25 l 1
 -151 348 l 2
 -151 356 -145 363 -137 363 c 2
 97 363 l 1
 97 507 l 2
 97 519 106 528 118 528 c 2
 124 528 l 2
 137 528 145 519 145 507 c 2
 145 363 l 1
 379 363 l 2
 386 363 393 356 393 348 c 2
 393 25 l 1
 517 25 l 2
251 313 m 2
 145 313 l 1
 145 25 l 1
 262 25 l 1
 262 300 l 2
 262 308 259 313 251 313 c 2
-20 304 m 2
 -20 25 l 1
 97 25 l 1
 97 313 l 1
 -11 313 l 2
 -16 313 -20 311 -20 304 c 2
-8 -332 m 2
 97 -332 l 1
 97 -25 l 1
 -20 -25 l 1
 -20 -317 l 2
 -20 -327 -15 -332 -8 -332 c 2
262 -317 m 2
 262 -25 l 1
 145 -25 l 1
 145 -332 l 1
 252 -332 l 2
 259 -332 262 -327 262 -317 c 2
EndSplineSet
EndChar

StartChar: scripts.rcomma
Encoding: 110 57687 88
Width: 153
Flags: MW
LayerCount: 2
Fore
SplineSet
1 188 m 0
 1 223 29 251 72 251 c 0
 118 251 152 220 152 173 c 2
 152 166 l 2
 152 137 146 102 126 71 c 0
 110 46 59 2 26 2 c 0
 23 2 20 4 19 10 c 0
 19 11 18 12 18 13 c 0
 18 18 22 20 26 22 c 0
 28 24 54 39 71 61 c 0
 80 73 87 86 87 100 c 0
 87 104 86 107 85 111 c 2
 85 111 82 132 57 132 c 0
 24 132 1 154 1 188 c 0
EndSplineSet
EndChar

StartChar: scripts.lcomma
Encoding: 111 57688 89
Width: 153
Flags: MW
LayerCount: 2
Fore
SplineSet
152 65 m 0
 152 30 124 2 81 2 c 0
 35 2 1 33 1 80 c 2
 1 87 l 2
 1 116 7 151 27 182 c 0
 43 207 94 251 127 251 c 0
 130 251 133 249 134 243 c 0
 134 242 135 241 135 240 c 0
 135 235 131 233 127 231 c 0
 125 229 99 214 82 192 c 0
 73 180 66 167 66 153 c 0
 66 149 67 146 68 142 c 2
 68 142 71 121 96 121 c 0
 129 121 152 99 152 65 c 0
EndSplineSet
EndChar

StartChar: scripts.rvarcomma
Encoding: 112 57689 90
Width: 62
Flags: MW
LayerCount: 2
Fore
SplineSet
76 108 m 0
 76 98 67 73 16 -11 c 0
 -15 -62 -48 -111 -48 -112 c 0
 -49 -113 -51 -113 -54 -113 c 2
 -64 -108 l 2
 -66 -107 -66 -105 -66 -103 c 0
 -65 -102 -43 -48 -18 7 c 0
 33 118 42 123 46 124 c 0
 50 126 54 127 58 127 c 0
 65 127 73 124 76 108 c 0
EndSplineSet
EndChar

StartChar: scripts.lvarcomma
Encoding: 113 57690 91
Width: 62
Flags: MW
LayerCount: 2
Fore
SplineSet
-74 -109 m 0
 -74 -99 -65 -74 -14 10 c 0
 17 61 50 110 50 111 c 0
 51 112 53 112 56 112 c 2
 66 107 l 2
 68 106 68 104 68 102 c 0
 67 101 45 47 20 -8 c 0
 -31 -119 -40 -124 -44 -125 c 0
 -48 -127 -52 -128 -56 -128 c 0
 -63 -128 -71 -125 -74 -109 c 0
EndSplineSet
EndChar

StartChar: scripts.arpeggio
Encoding: 114 57691 92
Width: 163
Flags: MW
LayerCount: 2
Fore
SplineSet
134 -90 m 0
 134 -97 131 -103 126 -103 c 0
 123 -103 120 -101 116 -97 c 0
 100 -80 44 -59 44 20 c 0
 44 47 57 75 67 97 c 0
 74 114 85 131 88 151 c 0
 89 155 89 159 89 162 c 0
 89 175 82 185 73 198 c 0
 70 202 66 210 66 216 c 0
 66 219 68 222 71 222 c 0
 72 222 73 222 75 221 c 0
 91 215 163 181 163 102 c 0
 163 24 119 14 119 -31 c 0
 119 -50 124 -62 131 -77 c 0
 133 -81 134 -86 134 -90 c 0
EndSplineSet
EndChar

StartChar: scripts.trill_element
Encoding: 115 57692 93
Width: 249
Flags: MW
LayerCount: 2
Fore
SplineSet
-32 29 m 0
 -32 35 -28 43 -19 53 c 2
 1 74 l 2
 32 99 66 111 88 111 c 0
 158 111 159 58 211 58 c 0
 219 58 228.165039062 61.69921875 232 64 c 0
 247 73 256 81 267 81 c 0
 269 81 270 81 271 80 c 0
 273 79 274 77 274 75 c 0
 274 68 266 56 254 44 c 0
 216 10 180 0 159 0 c 0
 88 0 87 53 35 53 c 0
 17.0878689017 53 -4 34 -26 26 c 4
 -29.759173694 24.6330277477 -32 25 -32 29 c 0
EndSplineSet
EndChar

StartChar: scripts.arpeggio.arrow.M1
Encoding: 116 57693 94
Width: 199
Flags: MW
LayerCount: 2
Fore
SplineSet
213 46 m 1
 91 -229 l 1
 -22 46 l 1
 -5 28 39 13 87 10 c 1
 87 28 l 2
 87 74 43 136 43 213 c 0
 43 292 106 327 122 333 c 0
 124 334 125 334 126 334 c 0
 129 334 131 331 131 328 c 0
 131 322 127 314 124 310 c 0
 115 298 103 278 103 258 c 0
 103 255 104 253 104 250 c 0
 111 201 133 163 133 105 c 0
 133 72 130 41 124 10 c 1
 159 13 191 23 213 46 c 1
EndSplineSet
EndChar

StartChar: scripts.arpeggio.arrow.1
Encoding: 117 57694 95
Width: 199
Flags: MW
LayerCount: 2
Fore
SplineSet
139 -238 m 0
 139 -241 137 -244 134 -244 c 0
 133 -244 132 -244 130 -243 c 0
 114 -237 51 -202 51 -123 c 0
 51 -46 95 16 95 62 c 2
 95 80 l 1
 47 77 3 62 -14 44 c 1
 99 319 l 1
 221 44 l 1
 199 67 167 77 132 80 c 1
 138 49 141 18 141 -15 c 0
 141 -73 119 -111 112 -160 c 0
 112 -163 111 -165 111 -168 c 0
 111 -188 123 -208 132 -220 c 0
 135 -224 139 -232 139 -238 c 0
EndSplineSet
EndChar

StartChar: scripts.trilelement
Encoding: 118 57695 96
Width: 104
Flags: MW
LayerCount: 2
Fore
SplineSet
-80 1 m 1
 -88 -11 l 1
 -121 11 l 1
 -51 116 l 2
 -47 122 -41 125 -34 125 c 0
 -28 125 -23 123 -19 118 c 2
 80 -1 l 1
 88 11 l 1
 121 -11 l 1
 51 -116 l 2
 47 -122 41 -125 34 -125 c 0
 28 -125 23 -123 19 -118 c 2
 -80 1 l 1
EndSplineSet
EndChar

StartChar: scripts.prall
Encoding: 119 57696 97
Width: 302
Flags: MW
LayerCount: 2
Fore
SplineSet
-362 -72 m 0
 -362 -69 -354 -55 -350 -48 c 2
 -229 89 l 2
 -221 97 -215 106 -206 114 c 0
 -197 121 -191 123 -184 123 c 0
 -166 121 -160 113 -153 104 c 2
 -53 -12 l 1
 -48 -6 l 2
 -21 26 8 57 36 89 c 0
 43 97 50 106 59 114 c 0
 68 121 74 122 83 122 c 0
 90 122 98 116 106 108 c 0
 116 99 182 18 191 9 c 0
 196 4 201 -1 208 -1 c 0
 213 -1 219 2 227 9 c 0
 238 20 307 107 318 116 c 0
 324 120 330 123 336 123 c 0
 345 123 363 115 363 105 c 0
 363 101 355 90 349 82 c 0
 336 67 172 -111 165 -117 c 0
 161 -120 154 -122 146 -122 c 0
 138 -122 130 -120 126 -115 c 0
 118 -105 44 -28 39 -23 c 0
 33 -15 28 -11 23 -11 c 0
 20 -11 14 -15 8 -19 c 0
 7 -19 7 -20 5 -21 c 2
 2 -24 l 2
 -11 -35 -24 -46 -36 -58 c 0
 -43 -64 -50 -72 -59 -77 c 2
 -100 -117 l 2
 -104 -120 -111 -122 -119 -122 c 0
 -127 -122 -135 -120 -139 -115 c 0
 -147 -105 -221 -28 -225 -23 c 0
 -232 -15 -236 -11 -241 -11 c 0
 -245 -11 -252 -16 -260 -22 c 0
 -261 -22 -262 -23 -263 -24 c 0
 -276 -35 -289 -46 -301 -58 c 0
 -312 -68 -327 -82 -342 -82 c 0
 -357 -82 -362 -78 -362 -72 c 0
EndSplineSet
EndChar

StartChar: scripts.mordent
Encoding: 120 57697 98
Width: 317
Flags: MW
LayerCount: 2
Fore
SplineSet
-341 -81 m 0
 -356 -81 -361 -77 -361 -71 c 0
 -361 -64 -354 -54 -348 -48 c 2
 -312 -6 l 2
 -286 25 -259 55 -232 85 c 2
 -228 89 l 2
 -221 98 -214 107 -205 114 c 0
 -197 120 -192 123 -183 123 c 0
 -166 122 -160 113 -152 105 c 0
 -147 98 -86 28 -50 -14 c 1
 -48 -11 -46 -8 -43 -6 c 2
 -14 28 l 1
 -14 197 l 1
 17 197 l 1
 17 62 l 1
 41 89 l 2
 48 97 55 107 64 114 c 0
 73 121 78 123 86 123 c 0
 94 123 102 117 111 109 c 0
 121 100 187 18 195 10 c 0
 200 5 206 0 213 0 c 0
 218 0 223 3 231 10 c 0
 243 21 312 107 323 116 c 0
 328 120 334 123 341 123 c 0
 349 123 367 116 367 106 c 0
 367 99 361 92 355 86 c 2
 353 83 l 2
 340 68 177 -110 169 -116 c 0
 165 -120 158 -122 150 -122 c 0
 143 -122 135 -120 131 -115 c 0
 122 -105 48 -28 44 -22 c 0
 38 -14 33 -11 28 -11 c 0
 24 -11 20 -13 16 -16 c 1
 16 -195 l 1
 -16 -195 l 1
 -16 -43 l 1
 -32 -57 -90 -110 -100 -116 c 0
 -104 -120 -111 -122 -118 -122 c 0
 -126 -122 -134 -120 -138 -115 c 2
 -225 -22 l 2
 -231 -14 -235 -10 -240 -10 c 0
 -245 -10 -252 -15 -262 -23 c 0
 -276 -34 -288 -46 -301 -57 c 0
 -311 -67 -325 -81 -341 -81 c 0
EndSplineSet
EndChar

StartChar: scripts.prallprall
Encoding: 121 57698 99
Width: 447
Flags: MW
LayerCount: 2
Fore
SplineSet
-481 -72 m 0
 -481 -69 -473 -55 -469 -48 c 2
 -348 89 l 2
 -340 97 -333 106 -324 113 c 0
 -317 120 -312 122 -303 122 c 0
 -287 121 -280 113 -272 104 c 0
 -266 98 -210 32 -174 -10 c 1
 -87 89 l 2
 -79 97 -72 106 -64 113 c 0
 -56 120 -51 122 -42 122 c 0
 -26 121 -19 113 -11 104 c 2
 88 -11 l 1
 89 -9 91 -8 92 -7 c 0
 119 25 148 57 176 89 c 0
 183 97 190 106 199 113 c 0
 208 121 214 122 221 122 c 0
 229 122 237 116 246 108 c 0
 256 99 322 17 331 9 c 0
 336 4 341 -1 348 -1 c 0
 353 -1 359 2 367 9 c 0
 378 20 447 106 458 115 c 0
 464 120 470 122 477 122 c 0
 486 122 503 116 503 105 c 0
 503 101 495 90 489 82 c 0
 476 67 312 -111 305 -117 c 0
 301 -120 294 -122 287 -122 c 0
 279 -122 271 -120 266 -115 c 2
 179 -23 l 2
 173 -15 169 -11 164 -11 c 0
 159 -11 152 -16 142 -24 c 2
 42 -117 l 2
 38 -120 31 -122 23 -122 c 0
 15 -122 7 -120 3 -115 c 0
 -5 -106 -79 -29 -83 -23 c 0
 -90 -15 -94 -11 -99 -11 c 0
 -103 -11 -110 -16 -118 -22 c 0
 -119 -22 -120 -23 -121 -24 c 0
 -129 -30 -136 -37 -143 -45 c 0
 -172 -72 -214 -113 -219 -117 c 0
 -223 -120 -230 -122 -238 -122 c 0
 -246 -122 -253 -120 -257 -115 c 0
 -266 -106 -340 -29 -344 -23 c 0
 -351 -15 -355 -11 -360 -11 c 0
 -364 -11 -371 -16 -379 -22 c 0
 -380 -22 -380 -23 -382 -24 c 2
 -420 -58 l 2
 -431 -68 -446 -82 -461 -82 c 0
 -476 -82 -481 -78 -481 -72 c 0
EndSplineSet
EndChar

StartChar: scripts.prallmordent
Encoding: 122 57699 100
Width: 430
Flags: MW
LayerCount: 2
Fore
SplineSet
-505 -71 m 0
 -505 -64 -498 -54 -493 -49 c 0
 -480 -34 -469 -20 -455 -6 c 0
 -428 26 -400 59 -371 90 c 0
 -364 98 -357 108 -348 115 c 0
 -339 122 -333 124 -325 124 c 0
 -312 123 -303 117 -294 106 c 0
 -289 99 -231 32 -195 -10 c 1
 -194 -9 -193 -7 -191 -6 c 0
 -164 26 -136 59 -107 90 c 0
 -100 98 -93 108 -84 115 c 0
 -74 122 -69 124 -61 124 c 0
 -48 123 -39 117 -30 106 c 0
 -26 100 25 41 62 -1 c 1
 62 211 l 1
 92 211 l 1
 92 18 l 1
 155 90 l 2
 163 98 170 107 179 115 c 0
 188 122 194 124 201 124 c 0
 209 124 217 118 227 109 c 0
 236 101 304 18 313 9 c 0
 317 5 323 0 329 0 c 0
 334 0 340 3 348 10 c 0
 359 20 430 108 441 117 c 0
 446 121 453 124 459 124 c 0
 467 124 485 116 485 106 c 0
 485 100 477 91 471 84 c 0
 458 69 292 -111 285 -118 c 0
 281 -121 274 -123 266 -123 c 0
 258 -123 250 -121 246 -116 c 0
 238 -106 163 -28 159 -22 c 0
 152 -14 148 -11 143 -11 c 0
 131 -11 107 -35 99 -44 c 0
 97 -46 94 -48 92 -51 c 2
 92 -184 l 1
 62 -184 l 1
 62 -80 l 1
 43 -98 26 -115 22 -118 c 0
 18 -121 11 -123 4 -123 c 0
 -4 -123 -12 -121 -16 -116 c 0
 -25 -106 -100 -28 -104 -22 c 0
 -110 -14 -114 -10 -119 -10 c 0
 -124 -10 -131 -15 -141 -23 c 0
 -150 -30 -157 -37 -165 -44 c 0
 -194 -71 -236 -113 -242 -118 c 0
 -246 -121 -253 -123 -260 -123 c 0
 -268 -123 -276 -121 -280 -116 c 0
 -289 -106 -364 -28 -368 -22 c 0
 -374 -14 -378 -10 -383 -10 c 0
 -388 -10 -395 -15 -405 -23 c 0
 -419 -34 -431 -46 -444 -58 c 0
 -454 -67 -466 -81 -485 -82 c 0
 -500 -82 -505 -77 -505 -71 c 0
EndSplineSet
EndChar

StartChar: scripts.upprall
Encoding: 123 57700 101
Width: 476
Flags: MW
LayerCount: 2
Fore
SplineSet
-619 -222 m 0
 -619 -104 -442 117 -330 117 c 0
 -258 117 -217 69 -194 41 c 2
 -149 -11 l 1
 -145 -6 l 2
 -118 26 -90 58 -61 89 c 0
 -54 97 -47 107 -38 114 c 0
 -29 121 -24 123 -16 123 c 0
 -3 122 6 116 15 105 c 0
 20 98 78 31 114 -11 c 1
 202 89 l 2
 210 97 216 106 225 114 c 0
 234 121 240 123 247 123 c 0
 255 123 263 117 273 108 c 0
 282 100 349 18 358 9 c 0
 362 5 368 0 374 0 c 0
 379 0 385 3 393 10 c 0
 404 20 474 107 485 116 c 0
 490 120 497 123 503 123 c 0
 511 123 529 115 529 105 c 0
 529 99 521 90 515 83 c 0
 502 68 338 -110 331 -117 c 0
 327 -120 320 -122 312 -122 c 0
 304 -122 296 -120 292 -115 c 0
 284 -105 210 -28 206 -22 c 0
 199 -14 195 -11 190 -11 c 0
 184 -11 178 -15 168 -23 c 0
 155 -34 142 -46 130 -58 c 0
 124 -64 117 -71 109 -76 c 0
 89 -96 71 -114 67 -117 c 0
 63 -120 56 -122 49 -122 c 0
 41 -122 33 -120 29 -115 c 0
 20 -105 -54 -28 -58 -22 c 0
 -64 -14 -68 -10 -73 -10 c 0
 -82 -10 -112 -37 -119 -44 c 0
 -148 -71 -189 -112 -195 -117 c 0
 -198 -120 -206 -122 -213 -122 c 0
 -221 -122 -228 -120 -233 -115 c 0
 -238 -109 -267 -79 -290 -55 c 0
 -306 -40 -334 5 -393 5 c 0
 -442 5 -481 -40 -493 -55 c 0
 -532 -103 -573 -164 -573 -227 c 0
 -573 -316 -486 -393 -486 -393 c 1
 -414 -461 -321 -465 -272 -467 c 2
 -264 -467 l 2
 -245 -468 -238 -471 -238 -475 c 0
 -238 -481 -252 -487 -264 -487 c 0
 -271 -487 -284 -489 -303 -489 c 0
 -336 -489 -385 -484 -450 -457 c 0
 -552 -415 -604 -341 -618 -239 c 0
 -619 -233 -619 -228 -619 -222 c 0
EndSplineSet
EndChar

StartChar: scripts.upmordent
Encoding: 124 57701 102
Width: 456
Flags: MW
LayerCount: 2
Fore
SplineSet
-541 -222 m 0
 -541 -155 -494 -79 -460 -37 c 0
 -424 7 -388 47 -350 89 c 0
 -343 97 -336 107 -327 114 c 0
 -318 121 -312 123 -305 123 c 2
 -301 123 l 2
 -288 122 -279 116 -270 105 c 0
 -266 98 -208 31 -171 -10 c 1
 -170 -9 -169 -7 -167 -6 c 0
 -140 26 -112 58 -83 89 c 0
 -76 97 -69 107 -60 114 c 0
 -51 121 -46 123 -38 123 c 0
 -25 122 -16 116 -7 105 c 0
 -3 98 55 31 92 -11 c 1
 139 43 l 1
 139 209 l 1
 180 209 l 1
 180 89 l 1
 188 97 194 106 203 114 c 0
 212 121 218 123 225 123 c 0
 233 123 241 117 251 108 c 0
 260 100 327 18 336 9 c 0
 340 5 346 0 352 0 c 0
 357 0 363 3 371 10 c 0
 382 20 452 107 463 116 c 0
 468 120 475 123 481 123 c 0
 489 123 507 115 507 105 c 0
 507 99 499 90 493 83 c 0
 480 68 316 -110 309 -117 c 0
 305 -120 298 -122 290 -122 c 0
 282 -122 274 -120 270 -115 c 0
 262 -105 188 -28 184 -22 c 2
 179 -17 l 1
 179 -183 l 1
 139 -183 l 1
 139 -29 l 1
 128 -38 118 -48 108 -58 c 0
 101 -64 95 -71 87 -76 c 0
 67 -96 49 -114 45 -117 c 0
 41 -120 34 -122 27 -122 c 0
 19 -122 11 -120 7 -115 c 0
 -2 -105 -76 -28 -80 -22 c 0
 -86 -14 -90 -10 -95 -10 c 0
 -100 -10 -107 -15 -117 -23 c 0
 -131 -34 -143 -46 -156 -58 c 0
 -161 -62 -166 -68 -172 -72 c 2
 -218 -117 l 2
 -222 -120 -229 -122 -236 -122 c 0
 -244 -122 -252 -120 -256 -115 c 0
 -265 -105 -339 -28 -343 -22 c 0
 -349 -14 -353 -10 -358 -10 c 0
 -363 -10 -370 -15 -380 -23 c 0
 -391 -31 -400 -40 -410 -49 c 0
 -453 -98 -495 -162 -495 -227 c 0
 -495 -287 -453 -355 -408 -393 c 0
 -336 -461 -243 -465 -194 -467 c 2
 -186 -467 l 2
 -167 -468 -160 -471 -160 -475 c 0
 -160 -481 -174 -487 -186 -487 c 0
 -193 -487 -206 -489 -225 -489 c 0
 -258 -489 -307 -484 -372 -457 c 0
 -474 -415 -526 -341 -540 -239 c 0
 -541 -233 -541 -228 -541 -222 c 0
EndSplineSet
EndChar

StartChar: scripts.pralldown
Encoding: 125 57702 103
Width: 392
Flags: MW
LayerCount: 2
Fore
SplineSet
-396 -71 m 0
 -396 -64 -389 -54 -384 -49 c 0
 -371 -34 -360 -20 -347 -6 c 0
 -320 27 -292 59 -262 90 c 0
 -255 98 -248 108 -239 115 c 0
 -230 122 -225 124 -217 124 c 0
 -204 123 -195 117 -186 106 c 0
 -181 99 -123 32 -86 -10 c 1
 -83 -6 l 2
 -56 27 -28 59 2 90 c 0
 9 98 16 108 25 115 c 0
 34 122 39 124 47 124 c 0
 60 123 69 117 78 106 c 0
 83 99 140 34 176 -8 c 1
 179 -6 l 1
 219 29 265 80 306 112 c 0
 315 119 312 122 320 122 c 0
 342 122 394 58 412 29 c 0
 450 -37 463 -70 463 -157 c 0
 463 -260 362 -344 262 -344 c 0
 215 -344 166 -328 160 -322 c 0
 156 -318 154 -308 154 -307 c 1
 164 -310 l 2
 194 -318 232 -328 262 -328 c 0
 332 -328 407 -264 407 -193 c 2
 407 -184 l 2
 407 -118 387 -78 355 -48 c 0
 320 -16 274 5 267 5 c 0
 259 5 214 -37 207 -44 c 0
 178 -71 137 -113 131 -118 c 0
 127 -121 120 -123 113 -123 c 0
 105 -123 96 -121 92 -116 c 0
 83 -106 9 -28 5 -22 c 0
 -1 -14 -5 -10 -10 -10 c 0
 -15 -10 -22 -15 -33 -23 c 2
 -57 -44 l 2
 -86 -71 -127 -113 -133 -118 c 0
 -137 -121 -144 -123 -151 -123 c 0
 -160 -123 -168 -121 -172 -116 c 0
 -181 -106 -255 -28 -259 -22 c 0
 -265 -14 -269 -10 -274 -10 c 0
 -279 -10 -287 -15 -297 -23 c 0
 -311 -34 -323 -46 -336 -58 c 0
 -346 -67 -357 -81 -376 -82 c 0
 -391 -82 -396 -77 -396 -71 c 0
EndSplineSet
EndChar

StartChar: scripts.downprall
Encoding: 126 57703 104
Width: 569
Flags: MW
LayerCount: 2
Fore
SplineSet
-576 -18 m 0
 -591 3 -598 27 -599 54 c 2
 -599 64 l 2
 -599 141 -555 226 -526 267 c 1
 -526 267 -521 269 -520 269 c 1
 -520 268 -520 265 -522 261 c 0
 -526 247 -576 156 -576 76 c 0
 -576 -44 -447 -49 -356 -51 c 0
 -355 -50 -354 -49 -354 -48 c 0
 -341 -33 -330 -19 -316 -5 c 0
 -289 27 -261 60 -232 91 c 0
 -225 99 -218 109 -209 116 c 0
 -199 123 -194 125 -186 125 c 0
 -173 124 -164 118 -155 107 c 0
 -150 100 -92 33 -56 -9 c 1
 -55 -7 -54 -6 -52 -5 c 0
 -25 27 3 60 32 91 c 0
 39 99 46 109 56 116 c 0
 65 123 70 125 78 125 c 0
 91 124 100 118 109 107 c 0
 114 100 171 35 207 -8 c 1
 294 91 l 2
 302 99 309 108 318 116 c 0
 327 123 333 125 340 125 c 0
 348 125 356 119 366 110 c 0
 375 102 443 19 452 10 c 0
 456 6 462 1 468 1 c 0
 473 1 479 4 487 11 c 0
 498 21 569 109 580 118 c 0
 585 122 592 125 598 125 c 0
 606 125 624 117 624 107 c 0
 624 101 616 92 610 85 c 0
 597 70 432 -110 424 -117 c 0
 420 -120 413 -122 405 -122 c 0
 397 -122 389 -120 385 -115 c 0
 377 -105 302 -27 298 -21 c 0
 291 -13 287 -10 282 -10 c 0
 270 -10 246 -34 238 -43 c 0
 209 -70 167 -112 161 -117 c 0
 157 -120 150 -122 143 -122 c 0
 135 -122 127 -120 123 -115 c 0
 114 -105 39 -27 35 -21 c 0
 29 -13 25 -9 20 -9 c 0
 15 -9 8 -14 -2 -22 c 0
 -11 -29 -18 -36 -26 -43 c 0
 -55 -70 -97 -112 -103 -117 c 0
 -107 -120 -114 -122 -121 -122 c 0
 -129 -122 -137 -120 -141 -115 c 0
 -150 -105 -225 -27 -229 -21 c 0
 -235 -13 -239 -9 -244 -9 c 0
 -249 -9 -256 -14 -266 -22 c 0
 -280 -33 -292 -45 -305 -57 c 0
 -307 -58 -308 -59 -309 -61 c 2
 -342 -101 l 1
 -351 -101 l 2
 -398 -101 -524 -100 -576 -18 c 0
EndSplineSet
EndChar

StartChar: scripts.downmordent
Encoding: 127 57704 105
Width: 563
Flags: MW
LayerCount: 2
Fore
SplineSet
-605 53 m 1
 -605 63 l 2
 -605 140 -562 225 -533 266 c 1
 -533 266 -528 268 -527 268 c 1
 -527 267 -527 264 -529 260 c 0
 -533 246 -583 155 -583 75 c 0
 -583 -45 -453 -50 -362 -52 c 1
 -362 -51 -361 -50 -360 -49 c 0
 -347 -34 -336 -20 -323 -6 c 0
 -296 27 -268 59 -238 90 c 0
 -231 98 -224 108 -215 115 c 0
 -206 122 -201 124 -193 124 c 0
 -180 123 -171 117 -162 106 c 0
 -157 99 -99 32 -62 -10 c 1
 -59 -6 l 2
 -32 27 -4 59 26 90 c 0
 33 98 40 108 49 115 c 0
 58 122 63 124 71 124 c 0
 84 123 93 117 102 106 c 2
 194 -1 l 1
 194 211 l 1
 224 211 l 1
 224 18 l 1
 288 90 l 2
 296 98 302 107 311 115 c 0
 320 122 326 124 333 124 c 0
 341 124 349 118 359 109 c 0
 368 101 436 18 445 9 c 0
 449 5 455 0 461 0 c 0
 466 0 472 3 480 10 c 0
 491 20 562 108 573 117 c 0
 578 121 585 124 591 124 c 0
 599 124 617 116 617 106 c 0
 617 100 609 91 603 84 c 0
 590 69 425 -111 418 -118 c 0
 414 -121 407 -123 399 -123 c 0
 391 -123 383 -121 379 -116 c 0
 370 -106 296 -28 292 -22 c 0
 285 -14 281 -11 276 -11 c 0
 265 -11 239 -35 231 -44 c 2
 224 -51 l 1
 224 -184 l 1
 194 -184 l 1
 194 -80 l 1
 155 -118 l 2
 151 -121 144 -123 137 -123 c 0
 129 -123 120 -121 116 -116 c 0
 107 -106 33 -28 29 -22 c 0
 23 -14 19 -10 14 -10 c 0
 9 -10 2 -15 -9 -23 c 2
 -33 -44 l 2
 -62 -71 -103 -113 -109 -118 c 0
 -113 -121 -120 -123 -127 -123 c 0
 -136 -123 -144 -121 -148 -116 c 0
 -157 -106 -231 -28 -235 -22 c 0
 -241 -14 -245 -10 -250 -10 c 0
 -256 -10 -263 -15 -273 -23 c 0
 -287 -34 -299 -46 -312 -58 c 2
 -348 -101 l 1
 -357 -101 l 2
 -463 -101 -600 -77 -605 53 c 1
EndSplineSet
EndChar

StartChar: scripts.prallup
Encoding: 128 57705 106
Width: 379
Flags: MW
LayerCount: 2
Fore
SplineSet
-505 -71 m 0
 -505 -64 -498 -54 -493 -49 c 0
 -480 -34 -469 -20 -456 -6 c 0
 -429 26 -401 58 -372 89 c 0
 -365 97 -358 107 -349 114 c 0
 -340 121 -335 123 -327 123 c 0
 -314 122 -305 116 -296 105 c 0
 -291 98 -234 32 -197 -10 c 1
 -194 -6 l 2
 -167 26 -139 58 -110 89 c 0
 -103 97 -96 107 -87 114 c 0
 -78 121 -73 123 -65 123 c 0
 -52 122 -43 116 -34 105 c 0
 -29 98 28 32 65 -10 c 1
 68 -6 l 2
 95 26 123 58 152 89 c 0
 159 97 166 107 175 114 c 0
 184 121 189 123 197 123 c 0
 210 122 219 116 228 105 c 0
 233 98 288 35 324 -7 c 0
 327 -5 329 -3 329 -3 c 2
 370 30 414 65 414 122 c 0
 414 216 319 237 244 239 c 0
 238 239 235 242 235 245 c 0
 235 249 239 253 247 257 c 0
 250 259 256 259 264 259 c 0
 290 259 336 251 363 240 c 0
 410 213 444 169 444 96 c 0
 444 40 396 -11 353 -47 c 0
 325 -74 286 -112 280 -117 c 0
 276 -120 269 -122 262 -122 c 0
 254 -122 246 -120 242 -115 c 0
 233 -105 159 -28 155 -22 c 0
 149 -14 145 -10 140 -10 c 0
 131 -10 101 -37 94 -44 c 0
 65 -71 24 -112 18 -117 c 0
 14 -120 7 -122 0 -122 c 0
 -8 -122 -16 -120 -20 -115 c 0
 -29 -105 -103 -28 -107 -22 c 0
 -113 -14 -117 -10 -122 -10 c 0
 -131 -10 -161 -37 -168 -44 c 0
 -197 -71 -238 -112 -244 -117 c 0
 -248 -120 -255 -122 -262 -122 c 0
 -270 -122 -278 -120 -282 -115 c 0
 -291 -105 -365 -28 -369 -22 c 0
 -375 -14 -379 -10 -384 -10 c 0
 -389 -10 -396 -15 -406 -23 c 0
 -420 -34 -432 -46 -445 -58 c 0
 -455 -67 -466 -81 -485 -82 c 0
 -500 -82 -505 -77 -505 -71 c 0
EndSplineSet
EndChar

StartChar: scripts.lineprall
Encoding: 129 57706 107
Width: 520
Flags: MW
LayerCount: 2
Fore
SplineSet
-458 -122 m 0
 -495 -122 -542 -94 -542 22 c 2
 -542 306 l 2
 -542 312 -540 345 -506 358 c 0
 -504 359 -502 359 -500 359 c 0
 -493 359 -487 352 -487 328 c 2
 -487 15 l 2
 -487 9 -486 -61 -442 -61 c 0
 -423 -61 -381 -36 -374 -22 c 1
 -359 -5 l 2
 -332 27 -304 59 -275 90 c 0
 -268 98 -261 108 -252 115 c 0
 -243 122 -238 124 -230 124 c 0
 -217 123 -208 117 -199 106 c 0
 -194 99 -136 33 -100 -9 c 0
 -98 -8 -97 -6 -96 -5 c 0
 -69 27 -41 59 -12 90 c 0
 -5 98 2 108 11 115 c 0
 20 122 25 124 33 124 c 0
 46 123 55 117 64 106 c 0
 69 99 127 33 163 -9 c 1
 250 90 l 2
 258 98 264 107 273 115 c 0
 282 122 288 124 295 124 c 0
 303 124 311 118 321 109 c 0
 330 101 397 19 406 10 c 0
 410 6 416 1 422 1 c 0
 427 1 433 4 441 11 c 0
 452 21 522 108 533 117 c 0
 538 121 545 124 551 124 c 0
 559 124 577 116 577 106 c 0
 577 100 569 91 563 84 c 0
 550 69 386 -109 379 -116 c 0
 375 -119 368 -121 360 -121 c 0
 352 -121 344 -119 340 -114 c 0
 332 -104 258 -27 254 -21 c 0
 247 -13 243 -10 238 -10 c 0
 232 -10 226 -14 216 -22 c 0
 203 -33 190 -45 178 -57 c 0
 173 -62 168 -68 161 -73 c 2
 116 -116 l 2
 112 -119 105 -121 98 -121 c 0
 90 -121 82 -119 78 -114 c 0
 69 -104 -5 -27 -9 -21 c 0
 -15 -13 -19 -9 -24 -9 c 0
 -29 -9 -36 -14 -46 -22 c 0
 -60 -33 -72 -45 -85 -57 c 2
 -100 -71 l 2
 -122 -92 -142 -112 -147 -116 c 0
 -151 -119 -158 -121 -165 -121 c 0
 -173 -121 -181 -119 -185 -114 c 0
 -194 -104 -268 -27 -272 -21 c 0
 -278 -13 -282 -9 -287 -9 c 0
 -292 -9 -299 -14 -309 -22 c 0
 -323 -33 -335 -45 -348 -57 c 0
 -354 -62 -360 -70 -369 -75 c 0
 -381 -85 -425 -122 -458 -122 c 0
EndSplineSet
EndChar

StartChar: scripts.caesura.curved
Encoding: 130 57707 108
Width: 500
Flags: MW
LayerCount: 2
Fore
SplineSet
341 332 m 0
 360 332 373 318 373 300 c 0
 373 135 268 -37 192 -186 c 0
 189 -193 182 -198 175 -198 c 0
 162 -198 155 -188 155 -178 c 0
 155 -175 156 -173 157 -170 c 2
 175 -130 l 2
 236 7 300 155 309 302 c 0
 310 320 325 332 341 332 c 0
20 -198 m 0
 8 -198 0 -188 0 -178 c 0
 0 -175 1 -172 2 -170 c 2
 20 -130 l 2
 81 7 145 155 154 302 c 0
 155 320 170 332 186 332 c 0
 205 332 218 318 218 300 c 0
 218 149 130 -15 57 -150 c 2
 37 -186 l 2
 33 -193 27 -198 20 -198 c 0
EndSplineSet
EndChar

StartChar: scripts.caesura.straight
Encoding: 131 57708 109
Width: 500
Flags: MW
LayerCount: 2
Fore
SplineSet
28 -202 m 0
 25 -202 22 -202 19 -200 c 0
 7 -196 0 -185 0 -174 c 0
 0 -171 1 -167 2 -164 c 2
 170 312 l 2
 174 324 184 332 196 332 c 0
 199 332 203 331 206 330 c 0
 217 326 224 315 224 304 c 0
 224 301 224 297 223 294 c 2
 54 -182 l 2
 50 -194 40 -202 28 -202 c 0
214 -182 m 2
 210 -194 199 -202 188 -202 c 0
 185 -202 182 -202 179 -200 c 0
 167 -196 160 -185 160 -174 c 0
 160 -171 160 -167 161 -164 c 2
 330 312 l 2
 334 324 344 332 356 332 c 0
 359 332 363 331 366 330 c 0
 377 326 384 315 384 304 c 0
 384 301 384 297 383 294 c 2
 214 -182 l 2
EndSplineSet
EndChar

StartChar: scripts.tickmark
Encoding: 132 57709 110
Width: 367
Flags: MW
LayerCount: 2
Fore
SplineSet
-127 255 m 0
 -114 249 -34 185 -11 129 c 1
 -11 129 -9 122 -4 122 c 0
 -2 122 2 124 4 129 c 0
 13 140 183 496 352 502 c 0
 361 502 367 500 367 496 c 0
 367 494 363 489 352 487 c 0
 219 457 37 137 13 13 c 0
 11 4 4 0 0 0 c 0
 -4 0 -9 2 -9 13 c 0
 -19 84 -105 217 -127 232 c 0
 -133 238 -133 255 -133 260 c 1
 -131 260 -129 258 -127 255 c 0
EndSplineSet
EndChar

StartChar: scripts.snappizzicato
Encoding: 133 57710 111
Width: 133
Flags: MW
LayerCount: 2
Fore
SplineSet
-100 0 m 0
 -100 49 -64 91 -16 98 c 1
 -16 200 l 1
 16 200 l 1
 16 98 l 1
 63 91 100 49 100 0 c 0
 100 -56 55 -100 0 -100 c 0
 -55 -100 -100 -56 -100 0 c 0
-16 71 m 1
 -49 64 -73 34 -73 0 c 0
 -73 -41 -41 -73 0 -73 c 0
 40 -73 73 -41 73 0 c 0
 73 34 48 64 16 71 c 1
 16 0 l 1
 -16 0 l 1
 -16 71 l 1
EndSplineSet
EndChar

StartChar: clefs.C
Encoding: 134 57711 112
Width: 699
Flags: MW
LayerCount: 2
Fore
SplineSet
187 -482 m 2
 187 482 l 2
 187 496 194 503 208 503 c 2
 209 503 l 2
 223 503 230 496 230 482 c 2
 230 44 l 2
 230 36 235 37 239 38 c 0
 265 45 307 71 328 184 c 0
 331 200 337 209 347 209 c 0
 358 209 363 199 368 182 c 0
 381 138 404 89 475 89 c 0
 540 89 558 153 558 284 c 0
 558 415 535 474 452 474 c 0
 438 474 367 468 367 447 c 0
 367 442 383 436 394 432 c 0
 414 425 434 405 434 367 c 0
 434 323 405 298 366 298 c 0
 323 298 289 327 289 380 c 0
 289 443 344 506 463 506 c 0
 627 506 699 391 699 287 c 0
 699 149 623 53 490 53 c 0
 461 53 442 58 429 62 c 0
 419 65 409 67 400 61 c 0
 386 52 364 20 364 0 c 0
 364 -20 386 -52 400 -61 c 0
 409 -67 419 -65 429 -62 c 0
 442 -58 461 -53 490 -53 c 0
 623 -53 699 -149 699 -287 c 0
 699 -391 627 -506 463 -506 c 0
 344 -506 289 -443 289 -380 c 0
 289 -327 323 -298 366 -298 c 0
 405 -298 434 -323 434 -367 c 0
 434 -405 414 -425 394 -432 c 0
 383 -436 367 -442 367 -447 c 0
 367 -468 438 -474 452 -474 c 0
 535 -474 558 -415 558 -284 c 0
 558 -153 540 -89 475 -89 c 0
 404 -89 381 -138 368 -182 c 0
 363 -199 358 -209 347 -209 c 0
 337 -209 331 -200 328 -184 c 0
 307 -71 265 -45 239 -38 c 0
 235 -37 230 -36 230 -44 c 2
 230 -482 l 2
 230 -496 223 -503 209 -503 c 2
 208 -503 l 2
 194 -503 187 -496 187 -482 c 2
21 -503 m 2
 7 -503 0 -496 0 -482 c 2
 0 482 l 2
 0 496 7 503 21 503 c 2
 107 503 l 2
 121 503 128 496 128 482 c 2
 128 -482 l 2
 128 -496 121 -503 107 -503 c 2
 21 -503 l 2
EndSplineSet
EndChar

StartChar: clefs.C_change
Encoding: 135 57712 113
Width: 506
Flags: MW
LayerCount: 2
Fore
SplineSet
150 317 m 2
 150 326 156 332 164 332 c 0
 172 332 187 326 187 317 c 2
 187 34 l 1
 206 36 232 40 249 119 c 0
 251 128 257 138 264 138 c 0
 269 138 274 133 279 119 c 0
 289 86 306 68 349 68 c 0
 393 68 395 86 395 137 c 2
 395 216 l 2
 395 257 382 306 325 306 c 0
 310 306 295 302 282 289 c 0
 280 288 280 287 280 286 c 0
 280 282 290 280 292 278 c 0
 298 273 328 257 328 234 c 0
 328 208 301 184 273 184 c 0
 244 184 222 214 222 242 c 0
 222 269 251 332 347 332 c 0
 442 332 506 254 506 178 c 0
 506 102 456 26 360 26 c 0
 328 26 317 45 308 45 c 0
 300 45 290 31 284 22 c 0
 284 20 282 20 281 18 c 0
 277 9 274 2 274 0 c 0
 274 -7 279 -13 282 -21 c 0
 288 -31 298 -46 308 -46 c 0
 317 -46 328 -25 360 -25 c 0
 456 -25 506 -102 506 -179 c 0
 506 -254 442 -332 347 -332 c 0
 251 -332 222 -268 222 -241 c 0
 222 -214 244 -183 273 -183 c 0
 301 -183 328 -207 328 -233 c 0
 328 -260 297 -271 290 -278 c 0
 288 -280 280 -282 280 -286 c 0
 280 -287 281 -288 283 -290 c 0
 289 -296 298 -305 325 -305 c 0
 382 -305 395 -258 395 -216 c 2
 395 -138 l 2
 395 -86 393 -67 349 -67 c 0
 306 -67 289 -86 279 -119 c 0
 274 -133 269 -138 264 -138 c 0
 257 -138 251 -128 249 -119 c 0
 232 -40 206 -36 187 -34 c 1
 187 -318 l 2
 187 -326 172 -332 164 -332 c 0
 156 -332 150 -326 150 -318 c 2
 150 317 l 2
15 -332 m 2
 7 -332 0 -325 0 -317 c 2
 0 317 l 2
 0 325 7 332 15 332 c 2
 87 332 l 2
 96 332 102 325 102 317 c 2
 102 -317 l 2
 102 -325 96 -332 87 -332 c 2
 15 -332 l 2
EndSplineSet
EndChar

StartChar: clefs.F
Encoding: 136 57713 114
Width: 684
Flags: MW
LayerCount: 2
Fore
SplineSet
8 -635 m 0
 -1 -635 -5 -629 -5 -623 c 0
 -5 -615 1 -610 10 -605 c 0
 243 -472 381 -316 381 -37 c 0
 381 120 335 224 229 224 c 0
 127 224 67 151 67 111 c 0
 67 101 70 93 83 93 c 0
 96 93 106 100 133 100 c 0
 182 100 229 60 229 -4 c 0
 229 -66 186 -110 123 -110 c 0
 42 -110 0 -41 0 39 c 0
 0 135 78 262 252 262 c 0
 425 262 531 146 531 -28 c 0
 531 -332 271 -510 25 -630 c 0
 19 -633 13 -635 8 -635 c 0
629 70 m 0
 598 70 574 94 574 125 c 0
 574 156 598 180 629 180 c 0
 660 180 684 156 684 125 c 0
 684 94 660 70 629 70 c 0
630 -179 m 0
 599 -179 576 -156 576 -125 c 0
 576 -94 599 -71 630 -71 c 0
 661 -71 684 -94 684 -125 c 0
 684 -156 661 -179 630 -179 c 0
EndSplineSet
EndChar

StartChar: clefs.F_change
Encoding: 137 57714 115
Width: 462
Flags: MW
LayerCount: 2
Fore
SplineSet
-15 -403 m 0
 -15 -400 -12 -391 -2 -385 c 0
 32 -366 67 -351 98 -327 c 0
 197 -251 234 -150 234 -28 c 0
 234 -16 234 -3 232 9 c 0
 232 14 231 16 231 17 c 0
 224 76 209 136 137 136 c 0
 119 136 78 130 55 77 c 1
 55 77 54 75 54 73 c 0
 54 67 56 59 70 59 c 2
 89 59 l 2
 117 59 169 49 169 -10 c 0
 169 -50 128 -94 88 -94 c 2
 84 -94 l 2
 46 -94 8 -63 1 -3 c 0
 0 0 0 3 0 6 c 0
 0 67 50 170 162 170 c 2
 166 170 l 1
 166 170 234 166 288 122 c 0
 321 95 348 51 350 -18 c 2
 350 -22 l 2
 350 -119 281 -229 215 -295 c 0
 165 -345 75 -414 -2 -414 c 0
 -6 -414 -15 -408 -15 -403 c 0
418 39 m 0
 393 39 374 59 374 84 c 0
 374 108 393 127 418 127 c 0
 442 127 462 108 462 84 c 0
 462 59 442 39 418 39 c 0
375 -85 m 0
 375 -61 395 -41 418 -41 c 0
 443 -41 463 -61 463 -85 c 0
 463 -109 443 -129 418 -129 c 0
 395 -129 375 -109 375 -85 c 0
EndSplineSet
EndChar

StartChar: clefs.G
Encoding: 138 57715 116
Width: 671
Flags: MW
LayerCount: 2
Fore
SplineSet
364 -252 m 0
 119 -252 0 -87 0 87 c 0
 0 289 153 432 297 551 c 0
 309 561 308 563 306 575 c 0
 299 616 292 681 292 739 c 0
 292 843 316 968 390 1050 c 0
 410 1072 441 1098 455 1098 c 0
 466 1098 492 1070 507 1048 c 0
 548 988 572 902 572 815 c 0
 572 662 490 535 382 434 c 0
 376 428 374 427 376 415 c 2
 401 270 l 2
 404 252 404 252 430 252 c 0
 577 252 671 139 671 11 c 0
 671 -102 604 -187 503 -227 c 0
 489 -233 488 -232 490 -244 c 0
 501 -306 519 -401 519 -458 c 0
 519 -628 389 -658 322 -658 c 0
 171 -658 132 -560 132 -495 c 0
 132 -433 172 -380 239 -380 c 0
 300 -380 335 -427 335 -482 c 0
 335 -540 299 -567 268 -576 c 0
 245 -583 236 -586 236 -593 c 0
 236 -606 262 -622 316 -622 c 0
 375 -622 475 -604 475 -456 c 0
 475 -409 460 -322 448 -255 c 0
 446 -243 444 -244 433 -246 c 0
 413 -250 387 -252 364 -252 c 0
80 20 m 0
 80 -119 193 -216 368 -216 c 0
 388 -216 408 -214 424 -211 c 0
 439 -208 440 -208 438 -197 c 2
 388 101 l 2
 386 112 384 113 368 109 c 0
 307 92 268 49 268 -8 c 0
 268 -54 298 -97 340 -115 c 0
 347 -118 355 -121 355 -128 c 0
 355 -134 351 -139 343 -139 c 0
 336 -139 324 -136 316 -133 c 0
 248 -110 201 -46 201 44 c 0
 201 129 258 208 346 238 c 0
 364 244 364 243 361 262 c 2
 340 390 l 2
 338 401 336 402 326 394 c 0
 279 356 233 319 173 252 c 0
 90 158 80 79 80 20 c 0
470 943 m 0
 409 943 337 847 337 691 c 0
 337 659 339 625 343 599 c 0
 345 586 349 585 356 591 c 0
 435 660 530 750 530 861 c 0
 530 916 503 943 470 943 c 0
441 117 m 0
 429 118 428 115 430 103 c 2
 479 -182 l 2
 481 -194 483 -194 495 -188 c 0
 551 -160 589 -109 589 -46 c 0
 589 42 522 110 441 117 c 0
EndSplineSet
EndChar

StartChar: clefs.G_change
Encoding: 139 57716 117
Width: 440
Flags: MW
LayerCount: 2
Fore
SplineSet
1 28 m 0
 0 35 0 42 0 48 c 0
 0 174 108 271 205 353 c 1
 197 395 l 2
 193 418 192 440 192 461 c 0
 192 580 236 679 298 707 c 1
 298 707 322 703 347 644 c 0
 366 602 376 560 376 519 c 0
 376 403 344 320 256 239 c 1
 263 203 266 193 273 150 c 1
 275 151 279 151 281 151 c 2
 288 151 l 2
 372 151 434 85 440 1 c 1
 440 -9 l 2
 440 -82 397 -142 324 -169 c 1
 331 -215 345 -262 345 -312 c 0
 345 -415 271 -451 225 -454 c 0
 220 -454 214 -455 210 -455 c 0
 102 -455 85 -380 85 -343 c 0
 85 -330 87 -320 88 -320 c 0
 93 -279 129 -248 168 -248 c 0
 178 -248 187 -250 197 -255 c 0
 224 -266 236 -292 236 -320 c 2
 236 -325 l 2
 236 -364 200 -385 173 -393 c 0
 167 -396 162 -396 156 -397 c 0
 153 -399 150 -400 150 -403 c 0
 150 -418 201 -423 211 -423 c 2
 224 -423 l 2
 232 -423 312 -422 312 -315 c 0
 312 -302 308 -265 305 -249 c 2
 292 -178 l 1
 278 -178 264 -181 244 -181 c 0
 137 -181 13 -131 1 28 c 0
61 -11 m 1
 65 -125 173 -149 244 -149 c 0
 263 -149 277 -147 287 -143 c 1
 253 45 l 1
 218 38 182 22 182 -24 c 2
 182 -30 l 2
 183 -57 206 -83 219 -88 c 0
 224 -91 229 -96 229 -100 c 0
 229 -103 226 -106 221 -106 c 0
 179 -106 145 -51 137 -16 c 0
 134 -7 133 3 133 13 c 0
 133 72 179 128 238 145 c 1
 226 224 l 1
 140 160 61 101 61 -5 c 2
 61 -11 l 1
226 434 m 0
 226 426 226 418 227 411 c 0
 227 407 230 394 232 378 c 1
 302 432 330 457 338 511 c 0
 339 516 339 521 339 525 c 0
 339 561 325 578 303 578 c 0
 251 576 226 502 226 434 c 0
291 48 m 1
 305 -26 309 -77 319 -136 c 1
 366 -116 386 -92 386 -46 c 2
 386 -39 l 2
 383 16 346 48 291 48 c 1
EndSplineSet
EndChar

StartChar: clefs.percussion
Encoding: 140 57717 118
Width: 382
Flags: MW
LayerCount: 2
Fore
SplineSet
160 -235 m 2
 160 -243 154 -250 146 -250 c 2
 14 -250 l 2
 6 -250 0 -243 0 -235 c 2
 0 235 l 2
 0 243 6 250 14 250 c 2
 146 250 l 2
 154 250 160 243 160 235 c 2
 160 -235 l 2
382 235 m 2
 382 -235 l 2
 382 -243 376 -250 368 -250 c 2
 236 -250 l 2
 228 -250 222 -243 222 -235 c 2
 222 235 l 2
 222 243 228 250 236 250 c 2
 368 250 l 2
 376 250 382 243 382 235 c 2
EndSplineSet
EndChar

StartChar: clefs.percussion_change
Encoding: 141 57718 119
Width: 306
Flags: MW
LayerCount: 2
Fore
SplineSet
128 -188 m 2
 128 -194 123 -200 117 -200 c 2
 11 -200 l 2
 5 -200 0 -194 0 -188 c 2
 0 188 l 2
 0 194 5 200 11 200 c 2
 117 200 l 2
 123 200 128 194 128 188 c 2
 128 -188 l 2
306 188 m 2
 306 -188 l 2
 306 -194 300 -200 294 -200 c 2
 189 -200 l 2
 183 -200 178 -194 178 -188 c 2
 178 188 l 2
 178 194 183 200 189 200 c 2
 294 200 l 2
 300 200 306 194 306 188 c 2
EndSplineSet
EndChar

StartChar: clefs.tab
Encoding: 142 57719 120
Width: 408
Flags: MW
LayerCount: 2
Fore
SplineSet
387 711 m 1
 233 711 l 1
 233 293 l 1
 173 293 l 1
 173 711 l 1
 18 711 l 1
 18 764 l 1
 387 764 l 1
 387 711 l 1
408 -228 m 1
 341 -228 l 1
 292 -87 l 1
 111 -87 l 1
 61 -228 l 1
 -3 -228 l 1
 165 242 l 1
 243 242 l 1
 408 -228 l 1
276 -36 m 1
 203 178 l 1
 126 -36 l 1
 276 -36 l 1
378 -613 m 0
 378 -691 324 -748 239 -748 c 2
 27 -748 l 1
 27 -277 l 1
 218 -277 l 2
 307 -277 357 -328 357 -397 c 0
 357 -444 335 -479 292 -499 c 1
 352 -522 378 -557 378 -613 c 0
297 -405 m 0
 297 -357 270 -330 203 -330 c 2
 87 -330 l 1
 87 -480 l 1
 203 -480 l 2
 270 -480 297 -453 297 -405 c 0
318 -614 m 0
 318 -568 290 -533 234 -533 c 2
 87 -533 l 1
 87 -695 l 1
 234 -695 l 2
 290 -695 318 -659 318 -614 c 0
EndSplineSet
EndChar

StartChar: clefs.tab_change
Encoding: 143 57720 121
Width: 272
Flags: MW
LayerCount: 2
Fore
SplineSet
258 469 m 1
 155 469 l 1
 155 189 l 1
 115 189 l 1
 115 469 l 1
 11 469 l 1
 11 504 l 1
 258 504 l 1
 258 469 l 1
272 -160 m 1
 227 -160 l 1
 195 -65 l 1
 73 -65 l 1
 40 -160 l 1
 -3 -160 l 1
 110 155 l 1
 162 155 l 1
 272 -160 l 1
184 -32 m 1
 135 112 l 1
 83 -32 l 1
 184 -32 l 1
252 -418 m 0
 252 -470 216 -508 159 -508 c 2
 17 -508 l 1
 17 -193 l 1
 145 -193 l 2
 205 -193 238 -227 238 -273 c 0
 238 -305 223 -328 195 -342 c 1
 235 -357 252 -380 252 -418 c 0
198 -279 m 0
 198 -247 180 -228 135 -228 c 2
 57 -228 l 1
 57 -329 l 1
 135 -329 l 2
 180 -329 198 -311 198 -279 c 0
212 -418 m 0
 212 -388 194 -364 156 -364 c 2
 57 -364 l 1
 57 -472 l 1
 156 -472 l 2
 194 -472 212 -449 212 -418 c 0
EndSplineSet
EndChar

StartChar: timesig.C44
Encoding: 144 57721 122
Width: 424
Flags: MW
LayerCount: 2
Fore
SplineSet
70 -182 m 0
 29 -132 5 -75 5 -10 c 0
 5 125 91 251 233 251 c 0
 252 251 403 239 403 108 c 0
 403 25 327 22 327 22 c 1
 299 22 250 40 250 97 c 0
 250 128 273 171 313 171 c 0
 328 171 331 184 331 193 c 0
 331 203 310 227 258 227 c 0
 204 227 128 193 128 28 c 0
 128 -137 171 -216 252 -216 c 0
 284 -216 394 -186 394 -57 c 0
 394 -40 401 -39 409 -39 c 0
 413 -39 424 -39 424 -61 c 0
 424 -90 398 -249 223 -249 c 0
 163 -249 108 -228 70 -182 c 0
EndSplineSet
EndChar

StartChar: timesig.C22
Encoding: 145 57722 123
Width: 417
Flags: MW
LayerCount: 2
Fore
SplineSet
156 -240 m 0
 60 -215 0 -104 0 -10 c 0
 0 85 46 191 136 230 c 1
 163 240 l 2
 165 240 175 249 175 256 c 2
 175 344 l 2
 175 352 184 361 192 361 c 0
 203 361 210 352 210 344 c 2
 210 271 l 2
 210 266 215 249 221 248 c 0
 306 248 397 205 397 107 c 0
 397 24 321 21 321 21 c 1
 293 21 244 39 244 95 c 0
 244 126 267 169 307 169 c 0
 322 169 325 183 325 191 c 0
 325 201 303 225 252 225 c 0
 247 225 241 225 235 224 c 0
 228 223 210 206 210 199 c 2
 210 -197 l 2
 210 -205 216 -211 220 -212 c 0
 228 -214 236 -215 246 -215 c 0
 278 -215 388 -185 388 -57 c 0
 388 -42 394 -40 398 -40 c 2
 402 -40 l 2
 407 -40 417 -40 418 -59 c 0
 418 -90 391 -246 221 -249 c 0
 214 -252 210 -257 210 -263 c 2
 210 -342 l 2
 210 -351 203 -359 192 -359 c 0
 184 -359 175 -351 175 -342 c 2
 175 -265 l 2
 175 -256 163 -243 156 -240 c 0
161 180 m 0
 139 149 123 102 123 26 c 0
 123 -67 137 -134 164 -172 c 0
 165 -174 167 -175 169 -175 c 0
 172 -175 175 -172 175 -163 c 2
 175 166 l 2
 175 174 169 182 164 182 c 0
 163 182 162 182 161 180 c 0
EndSplineSet
EndChar

StartChar: pedal.*
Encoding: 146 57723 124
Width: 450
Flags: MW
LayerCount: 2
Fore
SplineSet
46 175 m 0
 16 175 0 198 0 225 c 0
 0 252 16 275 46 275 c 0
 65 275 80 267 92 255 c 0
 106 241 112 236 127 236 c 2
 132 236 l 2
 150 236 164 242 164 262 c 0
 164 269 159 275 150 284 c 2
 146 288 l 2
 137 297 128 298 110 298 c 0
 79 298 51 314 51 348 c 0
 51 376 74 399 102 399 c 0
 136 399 152 371 152 340 c 0
 152 322 153 313 162 304 c 2
 166 300 l 2
 175 291 181 286 188 286 c 0
 208 286 214 300 214 318 c 2
 214 323 l 2
 214 338 209 344 195 358 c 0
 183 370 175 385 175 404 c 0
 175 434 198 450 225 450 c 0
 252 450 275 434 275 404 c 0
 275 385 267 370 255 358 c 0
 241 344 236 338 236 323 c 2
 236 318 l 2
 236 300 242 286 262 286 c 0
 269 286 275 291 284 300 c 2
 288 304 l 2
 297 313 298 322 298 340 c 0
 298 371 314 399 348 399 c 0
 376 399 399 376 399 348 c 0
 399 314 371 298 340 298 c 0
 322 298 313 297 304 288 c 2
 300 284 l 2
 291 275 286 269 286 262 c 0
 286 242 300 236 318 236 c 2
 323 236 l 2
 338 236 344 241 358 255 c 0
 370 267 385 275 404 275 c 0
 434 275 450 252 450 225 c 0
 450 198 434 175 404 175 c 0
 385 175 370 183 358 195 c 0
 344 209 338 214 323 214 c 2
 318 214 l 2
 300 214 286 208 286 188 c 0
 286 181 291 175 300 166 c 2
 304 162 l 2
 313 153 322 152 340 152 c 0
 371 152 399 136 399 102 c 0
 399 74 376 51 348 51 c 0
 314 51 298 79 298 110 c 0
 298 128 297 137 288 146 c 2
 284 150 l 2
 275 159 269 164 262 164 c 0
 242 164 236 150 236 132 c 2
 236 127 l 2
 236 112 241 106 255 92 c 0
 267 80 275 65 275 46 c 0
 275 16 252 0 225 0 c 0
 198 0 175 16 175 46 c 0
 175 65 183 80 195 92 c 0
 209 106 214 112 214 127 c 2
 214 132 l 2
 214 150 208 164 188 164 c 0
 181 164 175 159 166 150 c 2
 162 146 l 2
 153 137 152 128 152 110 c 0
 152 79 136 51 102 51 c 0
 74 51 51 74 51 102 c 0
 51 136 79 152 110 152 c 0
 128 152 137 153 146 162 c 2
 150 166 l 2
 159 175 164 181 164 188 c 0
 164 208 150 214 132 214 c 2
 127 214 l 2
 112 214 106 209 92 195 c 0
 80 183 65 175 46 175 c 0
188 225 m 0
 188 202 202 188 225 188 c 0
 248 188 262 202 262 225 c 0
 262 248 248 262 225 262 c 0
 202 262 188 248 188 225 c 0
EndSplineSet
EndChar

StartChar: pedal.M
Encoding: 147 57724 125
Width: 296
Flags: MW
LayerCount: 2
Fore
SplineSet
1 183 m 0
 0 184 0 185 0 186 c 0
 0 198 23 237 26 242 c 0
 36 262 63 272 84 272 c 0
 137 272 195 226 247 226 c 0
 262 226 277 230 291 240 c 0
 292 241 293 241 294 241 c 0
 295 241 296 240 296 239 c 0
 296 234 273 182 266 175 c 0
 250 161 234 155 216 155 c 0
 164 155 105 201 52 201 c 0
 35 201 19 196 4 184 c 0
 3 183 2 183 1 183 c 0
EndSplineSet
EndChar

StartChar: pedal.P
Encoding: 148 57726 126
Width: 474
Flags: MW
LayerCount: 2
Fore
SplineSet
66 261 m 0
 7 261 -19 315 -19 359 c 0
 -19 439 55 495 105 520 c 0
 162 548 208 554 268 555 c 2
 274 555 l 2
 366 555 475 515 475 408 c 0
 475 364 446 327 400 327 c 0
 335 327 300 396 300 419 c 0
 300 427 304 432 310 432 c 0
 319 432 323 424 329 418 c 0
 342 404 356 399 373 399 c 0
 391 399 405 411 405 433 c 0
 405 489 356 530 302 530 c 0
 291 530 276 527 260 500 c 0
 248 480 237 450 237 437 c 0
 237 416 250 396 279 362 c 0
 314 321 335 302 335 270 c 0
 335 236 303 187 284 160 c 0
 279 153 277 150 277 147 c 0
 277 143 283 144 294 141 c 0
 310 137 326 128 343 111 c 0
 360 94 378 77 401 77 c 0
 418 77 430 85 452 101 c 0
 457 105 462 108 468 108 c 0
 476 108 481 101 481 96 c 0
 481 92 480 89 472 81 c 2
 419 29 l 2
 388 0 375 -3 358 -3 c 0
 305 -3 290 104 250 104 c 0
 242 104 238 98 233 92 c 2
 219 75 l 2
 175 23 147 -8 117 -8 c 0
 100 -8 83 3 83 20 c 0
 83 61 169 116 213 132 c 0
 232 139 233 140 246 158 c 0
 261 178 267 191 267 211 c 0
 267 244 239 271 226 289 c 0
 212 308 171 353 171 379 c 0
 171 406 210 469 225 492 c 0
 231 502 240 514 240 522 c 0
 240 528 234 529 226 529 c 0
 141 529 43 479 40 385 c 2
 40 381 l 2
 40 359 48 333 77 333 c 0
 107 333 119 366 123 381 c 0
 128 398 129 407 137 407 c 0
 143 407 148 402 148 375 c 0
 148 314 112 261 66 261 c 0
EndSplineSet
EndChar

StartChar: pedal.d
Encoding: 149 57727 127
Width: 257
Flags: MW
LayerCount: 2
Fore
SplineSet
-158 488 m 0
 -158 494 -155 500 -145 500 c 0
 -139 500 -132 499 -127 498 c 0
 50 462 246 386 246 172 c 0
 246 57 183 -3 123 -3 c 0
 34 -3 0 78 0 150 c 0
 0 234 33 283 82 310 c 0
 93 316 100 318 105 318 c 0
 112 318 116 313 116 307 c 0
 116 303 115 300 109 294 c 0
 77 262 68 218 68 159 c 0
 68 92 90 27 123 27 c 0
 160 27 172 85 172 154 c 0
 172 350 37 431 -135 472 c 0
 -152 476 -158 481 -158 488 c 0
EndSplineSet
EndChar

StartChar: pedal.e
Encoding: 150 57728 128
Width: 212
Flags: MW
LayerCount: 2
Fore
SplineSet
100 -6 m 0
 26 -6 0 87 0 151 c 0
 0 230 32 315 124 315 c 0
 163 315 189 293 189 254 c 0
 189 197 140 163 94 130 c 2
 84 123 l 2
 77 118 75 116 75 113 c 0
 75 110 76 107 77 103 c 0
 84 81 105 48 130 48 c 0
 147 48 162 53 193 84 c 0
 208 99 222 116 233 129 c 0
 237 134 241 136 245 136 c 0
 250 136 255 132 255 126 c 0
 255 115 205 56 195 46 c 0
 159 9 131 -6 100 -6 c 0
63 196 m 0
 63 182 64 170 65 158 c 0
 65 153 67 151 69 151 c 0
 71 151 75 153 80 157 c 0
 110 181 127 205 127 238 c 0
 127 266 120 280 104 280 c 0
 74 280 63 240 63 196 c 0
EndSplineSet
EndChar

StartChar: pedal.Ped
Encoding: 151 57729 129
Width: 1019
Flags: HMW
LayerCount: 2
Fore
SplineSet
85 261 m 4
 26 261 0 315 0 359 c 4
 0 439 74 495 124 520 c 4
 181 548 227 554 287 555 c 6
 293 555 l 6
 385 555 494 515 494 408 c 4
 494 364 465 327 419 327 c 4
 354 327 319 396 319 419 c 4
 319 427 323 432 329 432 c 4
 338 432 342 424 348 418 c 4
 361 404 375 399 392 399 c 4
 410 399 424 411 424 433 c 4
 424 489 375 530 321 530 c 4
 310 530 295 527 279 500 c 4
 267 480 256 450 256 437 c 4
 256 416 269 396 298 362 c 4
 333 321 354 302 354 270 c 4
 354 236 322 187 303 160 c 4
 298 153 296 150 296 147 c 4
 296 143 302 144 313 141 c 4
 329 137 345 128 362 111 c 4
 379 94 397 77 420 77 c 4
 434 77 444 82 460 93 c 4
 465 97 466 99 466 102 c 6
 466 106 l 6
 463 122 462 137 462 151 c 4
 462 230 494 315 586 315 c 4
 625 315 651 293 651 254 c 4
 651 197 602 163 556 130 c 6
 546 123 l 6
 539 118 537 116 537 113 c 4
 537 110 538 107 539 103 c 4
 546 81 567 48 592 48 c 4
 609 48 624 53 655 84 c 4
 675 104 677 111 677 132 c 6
 677 150 l 6
 677 234 710 283 759 310 c 4
 770 316 777 318 782 318 c 4
 789 318 793 313 793 307 c 4
 793 303 792 300 786 294 c 4
 754 262 745 218 745 159 c 4
 745 92 767 27 800 27 c 4
 837 27 849 85 849 154 c 4
 849 350 714 431 542 472 c 4
 525 476 519 481 519 488 c 4
 519 494 522 500 532 500 c 4
 538 500 545 499 550 498 c 4
 727 462 923 386 923 172 c 4
 923 57 860 -3 800 -3 c 4
 748 -3 715 25 696 62 c 4
 692 69 690 74 686 74 c 4
 681 74 674 64 657 46 c 4
 621 9 593 -6 562 -6 c 4
 523 -6 498 20 483 52 c 4
 479 60 478 62 476 62 c 4
 472 62 468 58 464 54 c 6
 438 29 l 6
 407 0 394 -3 377 -3 c 4
 324 -3 309 104 269 104 c 4
 261 104 257 98 252 92 c 6
 238 75 l 6
 194 23 166 -8 136 -8 c 4
 119 -8 102 3 102 20 c 4
 102 61 188 116 232 132 c 4
 251 139 252 140 265 158 c 4
 280 178 286 191 286 211 c 4
 286 244 258 271 245 289 c 4
 231 308 190 353 190 379 c 4
 190 406 229 469 244 492 c 4
 250 502 259 514 259 522 c 4
 259 528 253 529 245 529 c 4
 160 529 62 479 59 385 c 6
 59 381 l 6
 59 359 67 333 96 333 c 4
 126 333 138 366 142 381 c 4
 147 398 148 407 156 407 c 4
 162 407 167 402 167 375 c 4
 167 314 131 261 85 261 c 4
976 0 m 4
 951 0 933 18 933 43 c 4
 933 68 951 86 976 86 c 4
 1001 86 1019 68 1019 43 c 4
 1019 18 1001 0 976 0 c 4
525 196 m 4
 525 182 526 170 527 158 c 4
 527 153 529 151 531 151 c 4
 533 151 537 153 542 157 c 4
 572 181 589 205 589 238 c 4
 589 266 582 280 566 280 c 4
 536 280 525 240 525 196 c 4
EndSplineSet
EndChar

StartChar: brackettips.up
Encoding: 152 57730 130
Width: 540
Flags: MW
LayerCount: 2
Fore
SplineSet
17 -60 m 5
 8 -60 l 6
 2 -60 0 -60 0 -50 c 6
 0 46 l 6
 0 61 2 61 10 61 c 4
 389 78 471 344 485 390 c 4
 486 393 487 395 487 396 c 4
 492 415 503 439 514 439 c 4
 516 439 517 438 519 437 c 4
 526 433 529 429 529 420 c 4
 529 412 527 401 523 383 c 4
 420 -41 136 -60 32 -60 c 6
 17 -60 l 5
EndSplineSet
EndChar

StartChar: brackettips.down
Encoding: 153 57731 131
Width: 540
Flags: MW
LayerCount: 2
Fore
SplineSet
8 60 m 6
 32 60 l 6
 136 60 420 41 524 -383 c 4
 528 -400 529 -411 529 -419 c 4
 529 -429 526 -433 519 -437 c 4
 517 -438 516 -439 514 -439 c 4
 503 -439 492 -415 487 -396 c 4
 487 -395 486 -393 485 -390 c 4
 471 -344 389 -78 10 -61 c 4
 2 -61 0 -61 0 -46 c 6
 0 50 l 6
 0 60 2 60 8 60 c 6
EndSplineSet
EndChar

StartChar: accordion.discant
Encoding: 154 57732 132
Width: 391
Flags: MW
LayerCount: 2
Fore
SplineSet
0 -16 m 0
 -52 -16 -104 -6 -152 15 c 0
 -198 34 -240 63 -276 98 c 0
 -312 134 -340 176 -360 223 c 0
 -380 271 -391 322 -391 375 c 0
 -391 428 -380 479 -360 527 c 0
 -340 574 -312 616 -276 651 c 0
 -240 687 -198 716 -152 735 c 0
 -104 756 -52 766 0 766 c 0
 53 766 104 756 153 735 c 0
 199 716 241 687 277 651 c 0
 313 616 341 574 361 527 c 0
 381 479 391 428 391 375 c 0
 391 322 381 271 361 223 c 0
 341 176 313 134 277 98 c 0
 241 63 199 34 153 15 c 0
 104 -6 53 -16 0 -16 c 0
-330 234 m 1
 -312 192 -287 154 -254 121 c 0
 -186 53 -96 16 0 16 c 0
 96 16 186 53 254 121 c 0
 287 154 313 192 331 234 c 1
 -330 234 l 1
-342 266 m 1
 343 266 l 1
 354 301 359 337 359 375 c 0
 359 412 354 449 343 484 c 1
 -342 484 l 1
 -353 449 -359 412 -359 375 c 0
 -359 337 -353 301 -342 266 c 1
-330 516 m 1
 331 516 l 1
 313 558 287 596 254 629 c 0
 186 697 96 734 0 734 c 0
 -96 734 -186 697 -254 629 c 0
 -287 596 -312 558 -330 516 c 1
EndSplineSet
EndChar

StartChar: accordion.dot
Encoding: 155 57733 133
Width: 62
Flags: MW
LayerCount: 2
Fore
SplineSet
0 62 m 0
 35 62 62 34 62 0 c 0
 62 -34 35 -62 0 -62 c 0
 -34 -62 -62 -34 -62 0 c 0
 -62 34 -34 62 0 62 c 0
EndSplineSet
EndChar

StartChar: accordion.freebass
Encoding: 156 57734 134
Width: 266
Flags: MW
LayerCount: 2
Fore
SplineSet
0 -16 m 0
 -52 -16 -104 -6 -152 15 c 0
 -198 34 -240 63 -276 98 c 0
 -312 134 -340 176 -360 223 c 0
 -380 271 -391 322 -391 375 c 0
 -391 428 -380 479 -360 527 c 0
 -340 574 -312 616 -276 651 c 0
 -240 687 -198 716 -152 735 c 0
 -104 756 -52 766 0 766 c 0
 53 766 104 756 153 735 c 0
 199 716 241 687 277 651 c 0
 313 616 341 574 361 527 c 0
 381 479 391 428 391 375 c 0
 391 322 381 271 361 223 c 0
 341 176 313 134 277 98 c 0
 241 63 199 34 153 15 c 0
 104 -6 53 -16 0 -16 c 0
-358 359 m 1
 -354 269 -318 185 -254 121 c 0
 -186 53 -96 16 0 16 c 0
 96 16 186 53 254 121 c 0
 318 185 355 269 359 359 c 1
 -358 359 l 1
-358 391 m 1
 359 391 l 1
 355 481 318 565 254 629 c 0
 186 697 96 734 0 734 c 0
 -96 734 -186 697 -254 629 c 0
 -318 565 -354 481 -358 391 c 1
EndSplineSet
EndChar

StartChar: accordion.stdbass
Encoding: 157 57735 135
Width: 516
Flags: MW
LayerCount: 2
Fore
SplineSet
0 -16 m 0
 -52 -16 -104 -6 -152 15 c 0
 -198 34 -240 63 -276 98 c 0
 -312 134 -340 176 -360 223 c 0
 -380 271 -391 322 -391 375 c 0
 -391 428 -380 479 -360 527 c 0
 -340 574 -312 616 -276 651 c 0
 -240 687 -198 716 -152 735 c 0
 -104 756 -52 766 0 766 c 0
 53 766 104 756 153 735 c 0
 199 716 241 687 277 651 c 0
 313 616 341 574 361 527 c 0
 381 479 391 428 391 375 c 0
 391 322 381 271 361 223 c 0
 341 176 313 134 277 98 c 0
 241 63 199 34 153 15 c 0
 104 -6 53 -16 0 -16 c 0
-296 171 m 1
 -283 154 -269 137 -254 121 c 0
 -186 53 -96 16 0 16 c 0
 96 16 186 53 254 121 c 0
 270 137 284 154 296 171 c 1
 -296 171 l 1
-315 203 m 1
 316 203 l 1
 342 251 357 304 359 359 c 1
 -358 359 l 1
 -356 304 -341 251 -315 203 c 1
-358 391 m 1
 359 391 l 1
 357 446 342 499 316 546 c 1
 -315 546 l 1
 -341 499 -356 446 -358 391 c 1
-296 578 m 1
 296 578 l 1
 284 596 270 613 254 629 c 0
 186 697 96 734 0 734 c 0
 -96 734 -186 697 -254 629 c 0
 -269 613 -283 596 -296 578 c 1
EndSplineSet
EndChar

StartChar: accordion.bayanbass
Encoding: 158 57736 136
Width: 321
Flags: MW
LayerCount: 2
Fore
SplineSet
-317 784 m 1
 321 784 l 1
 321 0 l 1
 -317 0 l 1
 -317 784 l 1
289 32 m 1
 289 251 l 1
 -285 251 l 1
 -285 32 l 1
 289 32 l 1
289 283 m 1
 289 501 l 1
 -285 501 l 1
 -285 283 l 1
 289 283 l 1
-285 534 m 1
 289 534 l 1
 289 752 l 1
 -285 752 l 1
 -285 534 l 1
EndSplineSet
EndChar

StartChar: accordion.oldEE
Encoding: 159 57737 137
Width: 266
Flags: MW
LayerCount: 2
Fore
SplineSet
234 261 m 0
 234 392 130 500 0 500 c 0
 -130 500 -234 392 -234 261 c 0
 -234 130 -130 23 0 23 c 0
 130 23 234 130 234 261 c 0
266 261 m 0
 266 116 146 0 0 0 c 0
 -146 0 -266 116 -266 261 c 0
 -266 406 -146 523 0 523 c 0
 146 523 266 406 266 261 c 0
59 367 m 0
 59 393 80 415 106 415 c 0
 132 415 154 393 154 367 c 0
 154 341 132 320 106 320 c 0
 100 320 94 321 89 323 c 1
 34 277 l 2
 34 276 35 275 35 274 c 1
 106 280 l 1
 113 297 130 309 150 309 c 0
 176 309 198 287 198 261 c 0
 198 235 176 214 150 214 c 0
 130 214 113 226 106 243 c 1
 35 248 l 1
 35 247 34 247 34 246 c 2
 89 199 l 1
 94 201 100 203 106 203 c 0
 132 203 154 181 154 155 c 0
 154 129 132 108 106 108 c 0
 80 108 59 129 59 155 c 0
 59 161 60 168 62 173 c 1
 16 227 l 2
 15 227 14 226 13 226 c 1
 19 155 l 1
 36 148 47 131 47 111 c 0
 47 85 26 64 0 64 c 0
 -26 64 -47 85 -47 111 c 0
 -47 131 -36 148 -19 155 c 1
 -13 226 l 1
 -14 226 -15 227 -16 227 c 2
 -62 173 l 1
 -60 168 -59 161 -59 155 c 0
 -59 129 -80 108 -106 108 c 0
 -132 108 -154 129 -154 155 c 0
 -154 181 -132 203 -106 203 c 0
 -100 203 -94 201 -89 199 c 1
 -34 246 l 2
 -34 247 -35 247 -35 248 c 1
 -106 243 l 1
 -113 226 -130 214 -150 214 c 0
 -176 214 -197 235 -197 261 c 0
 -197 287 -176 309 -150 309 c 0
 -130 309 -113 297 -106 280 c 1
 -35 274 l 1
 -35 275 -34 276 -34 277 c 2
 -89 323 l 1
 -94 321 -100 320 -106 320 c 0
 -132 320 -154 341 -154 367 c 0
 -154 393 -132 415 -106 415 c 0
 -80 415 -59 393 -59 367 c 0
 -59 361 -60 355 -62 350 c 1
 -16 295 l 2
 -15 295 -14 297 -13 297 c 1
 -19 368 l 1
 -36 375 -47 391 -47 411 c 0
 -47 437 -26 459 0 459 c 0
 26 459 47 437 47 411 c 0
 47 391 36 375 19 368 c 1
 13 297 l 1
 14 297 15 295 16 295 c 2
 62 350 l 1
 60 355 59 361 59 367 c 0
EndSplineSet
EndChar

StartChar: accordion.push
Encoding: 160 57738 138
Width: 0
Flags: MW
LayerCount: 2
Fore
SplineSet
-230 556 m 0
 -230 566 -222 575 -211 575 c 0
 -205 575 -200 572 -196 567 c 2
 -4 298 l 2
 -2 295 0 292 0 288 c 0
 0 284 -2 280 -4 277 c 2
 -196 8 l 2
 -200 3 -205 0 -211 0 c 0
 -222 0 -230 9 -230 19 c 0
 -230 23 -228 27 -226 30 c 2
 -42 288 l 1
 -226 545 l 2
 -228 548 -230 552 -230 556 c 0
EndSplineSet
EndChar

StartChar: accordion.pull
Encoding: 161 57739 139
Width: 37
Flags: MW
LayerCount: 2
Fore
SplineSet
38 19 m 2
 38 9 29 0 19 0 c 0
 9 0 0 9 0 19 c 2
 0 500 l 1
 -174 500 l 2
 -184 500 -192 509 -192 519 c 2
 -192 556 l 2
 -192 566 -184 575 -174 575 c 2
 19 575 l 2
 29 575 38 566 38 556 c 2
 38 19 l 2
EndSplineSet
EndChar

StartChar: ties.lyric.short
Encoding: 162 57740 140
Width: 0
Flags: MW
LayerCount: 2
Fore
SplineSet
0 -183 m 0
 -64 -183 -128 -159 -168 -109 c 0
 -171 -106 -172 -103 -172 -100 c 0
 -172 -92 -164 -85 -156 -85 c 0
 -152 -85 -148 -87 -145 -91 c 0
 -112 -132 -53 -133 0 -133 c 0
 53 -133 112 -132 145 -91 c 0
 148 -87 152 -85 156 -85 c 0
 164 -85 172 -92 172 -100 c 0
 172 -103 171 -106 168 -109 c 0
 128 -159 64 -183 0 -183 c 0
EndSplineSet
EndChar

StartChar: ties.lyric.default
Encoding: 163 57741 141
Width: 0
Flags: MW
LayerCount: 2
Fore
SplineSet
226 -47 m 1
 194 -142 106 -190 -1 -190 c 0
 -112 -190 -190 -143 -219 -47 c 1
 -205 -47 l 1
 -175 -108 -73 -139 0 -139 c 0
 73 -139 177 -108 212 -47 c 1
 226 -47 l 1
EndSplineSet
EndChar

StartChar: noteheads.uM2
Encoding: 164 57742 142
Width: 494
Flags: MW
LayerCount: 2
Fore
SplineSet
-1 -162 m 2
 -1 -166 -6 -169 -11 -169 c 2
 -25 -169 l 2
 -31 -169 -35 -166 -35 -162 c 2
 -35 161 l 2
 -35 165 -31 169 -25 169 c 2
 -11 169 l 2
 -6 169 -1 165 -1 161 c 2
 -1 -162 l 2
234 136 m 0
 336 136 458 78 458 0 c 0
 458 -75 401 -137 223 -137 c 0
 62 -137 0 -71 0 0 c 0
 0 75 90 136 234 136 c 0
120 68 m 0
 118 60 117 52 117 43 c 0
 117 8 134 -29 154 -55 c 0
 161 -63 169 -72 177 -79 c 0
 192 -92 210 -102 229 -108 c 0
 239 -111 248 -112 258 -112 c 0
 269 -112 280 -111 290 -108 c 0
 317 -101 333 -82 338 -55 c 0
 339 -49 340 -42 340 -35 c 0
 340 31 280 110 206 110 c 0
 172 110 132 105 120 68 c 0
494 -162 m 2
 494 -166 489 -169 484 -169 c 2
 469 -169 l 2
 464 -169 459 -166 459 -162 c 2
 459 851 l 2
 459 855 464 859 469 859 c 2
 484 859 l 2
 489 859 494 855 494 851 c 2
 494 -162 l 2
EndSplineSet
EndChar

StartChar: noteheads.dM2
Encoding: 165 57743 143
Width: 494
Flags: MW
LayerCount: 2
Fore
SplineSet
-1 -856 m 2
 -1 -860 -6 -863 -11 -863 c 2
 -25 -863 l 2
 -31 -863 -35 -860 -35 -856 c 2
 -35 161 l 2
 -35 165 -31 169 -25 169 c 2
 -11 169 l 2
 -6 169 -1 165 -1 161 c 2
 -1 -856 l 2
234 136 m 0
 336 136 458 78 458 0 c 0
 458 -75 401 -137 223 -137 c 0
 62 -137 0 -71 0 0 c 0
 0 75 90 136 234 136 c 0
120 68 m 0
 118 60 117 52 117 43 c 0
 117 8 134 -29 154 -55 c 0
 161 -63 169 -72 177 -79 c 0
 192 -92 210 -102 229 -108 c 0
 239 -111 248 -112 258 -112 c 0
 269 -112 280 -111 290 -108 c 0
 317 -101 333 -82 338 -55 c 0
 339 -49 340 -42 340 -35 c 0
 340 31 280 110 206 110 c 0
 172 110 132 105 120 68 c 0
494 -162 m 2
 494 -166 489 -169 484 -169 c 2
 469 -169 l 2
 464 -169 459 -166 459 -162 c 2
 459 161 l 2
 459 165 464 169 469 169 c 2
 484 169 l 2
 489 169 494 165 494 161 c 2
 494 -162 l 2
EndSplineSet
EndChar

StartChar: noteheads.sM1
Encoding: 166 57744 144
Width: 494
Flags: MW
LayerCount: 2
Fore
SplineSet
-1 -162 m 2
 -1 -166 -6 -169 -11 -169 c 2
 -25 -169 l 2
 -31 -169 -35 -166 -35 -162 c 2
 -35 161 l 2
 -35 165 -31 169 -25 169 c 2
 -11 169 l 2
 -6 169 -1 165 -1 161 c 2
 -1 -162 l 2
234 136 m 0
 336 136 458 78 458 0 c 0
 458 -75 401 -137 223 -137 c 0
 62 -137 0 -71 0 0 c 0
 0 75 90 136 234 136 c 0
120 68 m 0
 118 60 117 52 117 43 c 0
 117 8 134 -29 154 -55 c 0
 161 -63 169 -72 177 -79 c 0
 192 -92 210 -102 229 -108 c 0
 239 -111 248 -112 258 -112 c 0
 269 -112 280 -111 290 -108 c 0
 317 -101 333 -82 338 -55 c 0
 339 -49 340 -42 340 -35 c 0
 340 31 280 110 206 110 c 0
 172 110 132 105 120 68 c 0
494 -162 m 2
 494 -166 489 -169 484 -169 c 2
 469 -169 l 2
 464 -169 459 -166 459 -162 c 2
 459 161 l 2
 459 165 464 169 469 169 c 2
 484 169 l 2
 489 169 494 165 494 161 c 2
 494 -162 l 2
EndSplineSet
EndChar

StartChar: noteheads.sM1double
Encoding: 167 57745 145
Width: 557
Flags: MW
LayerCount: 2
Fore
SplineSet
-64 -162 m 2
 -64 -166 -68 -169 -74 -169 c 2
 -88 -169 l 2
 -94 -169 -98 -166 -98 -162 c 2
 -98 161 l 2
 -98 165 -94 169 -88 169 c 2
 -74 169 l 2
 -68 169 -64 165 -64 161 c 2
 -64 -162 l 2
-1 -162 m 2
 -1 -166 -6 -169 -11 -169 c 2
 -25 -169 l 2
 -31 -169 -35 -166 -35 -162 c 2
 -35 161 l 2
 -35 165 -31 169 -25 169 c 2
 -11 169 l 2
 -6 169 -1 165 -1 161 c 2
 -1 -162 l 2
234 136 m 0
 336 136 458 78 458 0 c 0
 458 -75 401 -137 223 -137 c 0
 62 -137 0 -71 0 0 c 0
 0 75 90 136 234 136 c 0
120 68 m 0
 118 60 117 52 117 43 c 0
 117 8 134 -29 154 -55 c 0
 161 -63 169 -72 177 -79 c 0
 192 -92 210 -102 229 -108 c 0
 239 -111 248 -112 258 -112 c 0
 269 -112 280 -111 290 -108 c 0
 317 -101 333 -82 338 -55 c 0
 339 -49 340 -42 340 -35 c 0
 340 31 280 110 206 110 c 0
 172 110 132 105 120 68 c 0
494 -162 m 2
 494 -166 489 -169 484 -169 c 2
 469 -169 l 2
 464 -169 459 -166 459 -162 c 2
 459 161 l 2
 459 165 464 169 469 169 c 2
 484 169 l 2
 489 169 494 165 494 161 c 2
 494 -162 l 2
557 -162 m 2
 557 -166 552 -169 546 -169 c 2
 532 -169 l 2
 527 -169 521 -166 521 -162 c 2
 521 161 l 2
 521 165 527 169 532 169 c 2
 546 169 l 2
 552 169 557 165 557 161 c 2
 557 -162 l 2
EndSplineSet
EndChar

StartChar: noteheads.s0
Encoding: 168 57746 146
Width: 495
Flags: MW
LayerCount: 2
Fore
SplineSet
235 137 m 0
 336 137 459 79 459 2 c 0
 459 -74 402 -136 224 -136 c 0
 62 -136 0 -71 0 2 c 0
 0 76 90 137 235 137 c 0
121 69 m 0
 118 60 117 51 117 42 c 0
 117 8 134 -29 155 -54 c 0
 162 -63 170 -71 178 -78 c 0
 193 -91 211 -101 229 -107 c 0
 239 -110 248 -111 258 -111 c 0
 269 -111 280 -110 291 -107 c 0
 318 -100 334 -81 339 -54 c 0
 340 -48 341 -41 341 -34 c 0
 341 32 281 112 207 112 c 0
 173 112 133 106 121 69 c 0
EndSplineSet
EndChar

StartChar: noteheads.s1
Encoding: 169 57747 147
Width: 341
Flags: MW
LayerCount: 2
Fore
SplineSet
112 -145 m 0
 49 -145 0 -110 0 -49 c 0
 0 11 54 145 227 145 c 0
 294 145 341 108 341 49 c 0
 341 11 303 -145 112 -145 c 0
200 -53 m 0
 281 0 305 28 305 51 c 0
 305 59 302 66 298 73 c 0
 290 87 278 97 256 97 c 0
 232 97 196 85 139 52 c 0
 59 6 34 -26 34 -51 c 0
 34 -59 37 -67 41 -74 c 0
 49 -88 63 -100 87 -100 c 0
 112 -100 148 -88 200 -53 c 0
EndSplineSet
EndChar

StartChar: noteheads.s2
Encoding: 170 57748 148
Width: 332
Flags: MW
LayerCount: 2
Fore
SplineSet
109 -141 m 0
 48 -141 0 -106 0 -47 c 0
 0 50 99 141 222 141 c 0
 287 141 332 104 332 47 c 0
 332 -48 209 -141 109 -141 c 0
EndSplineSet
EndChar

StartChar: noteheads.s0diamond
Encoding: 171 57749 149
Width: 495
Flags: MW
LayerCount: 2
Fore
SplineSet
210 75 m 0
 181 75 184 30 184 1 c 0
 184 -46 209 -55 245 -66 c 0
 258 -70 273 -75 285 -75 c 0
 314 -75 311 -30 311 -1 c 0
 311 46 286 55 250 66 c 0
 237 70 222 75 210 75 c 0
495 0 m 0
 495 -58 415 -43 370 -68 c 0
 328 -91 297 -138 248 -138 c 0
 199 -138 167 -91 125 -68 c 0
 80 -43 0 -58 0 0 c 0
 0 58 80 43 125 68 c 0
 167 91 199 138 248 138 c 0
 297 138 328 91 370 68 c 0
 415 43 495 58 495 0 c 0
EndSplineSet
EndChar

StartChar: noteheads.s1diamond
Encoding: 172 57750 150
Width: 364
Flags: MW
LayerCount: 2
Fore
SplineSet
292 55 m 0
 292 72 278 81 263 81 c 0
 259 81 255 80 251 79 c 0
 226 71 191 49 162 30 c 0
 133 11 98 -11 81 -31 c 0
 75 -38 72 -47 72 -55 c 0
 72 -72 86 -81 101 -81 c 0
 105 -81 109 -80 113 -79 c 0
 138 -71 173 -49 202 -30 c 0
 231 -11 266 11 283 31 c 0
 289 38 292 47 292 55 c 0
323 138 m 0
 341 138 364 121 364 97 c 0
 364 69 332 42 322 11 c 0
 310 -26 325 -74 291 -97 c 0
 275 -108 257 -111 239 -111 c 0
 214 -111 187 -105 161 -105 c 0
 117 -105 77 -137 41 -137 c 0
 23 -137 0 -121 0 -97 c 0
 0 -69 32 -42 42 -11 c 0
 54 26 39 74 73 97 c 0
 89 108 107 111 125 111 c 0
 150 111 177 105 203 105 c 0
 247 105 287 138 323 138 c 0
EndSplineSet
EndChar

StartChar: noteheads.s2diamond
Encoding: 173 57751 151
Width: 368
Flags: MW
LayerCount: 2
Fore
SplineSet
331 138 m 0
 350 138 369 119 369 99 c 0
 369 62 306 36 283 -3 c 0
 258 -45 250 -99 209 -128 c 0
 200 -134 190 -137 180 -137 c 0
 157 -137 132 -125 107 -125 c 0
 84 -125 58 -138 37 -138 c 0
 18 -138 0 -119 0 -99 c 0
 0 -62 63 -36 86 3 c 0
 111 45 119 99 160 128 c 0
 169 134 178 137 188 137 c 0
 211 137 236 125 261 125 c 0
 284 125 310 138 331 138 c 0
EndSplineSet
EndChar

StartChar: noteheads.s0triangle
Encoding: 174 57752 152
Width: 578
Flags: MW
LayerCount: 2
Fore
SplineSet
131 83 m 1
 158 34 177 -23 177 -93 c 0
 177 -99 176 -104 176 -110 c 1
 239 -57 313 -12 396 19 c 1
 301 31 212 53 131 83 c 1
0 160 m 0
 0 176 23 183 43 183 c 0
 46 183 48 183 50 182 c 0
 184 111 346 61 537 61 c 2
 543 61 l 2
 561 61 579 52 579 37 c 0
 579 20 560 15 543 11 c 0
 385 -28 252 -110 153 -214 c 0
 149 -218 143 -219 138 -219 c 0
 117 -219 93 -213 93 -196 c 0
 93 -192 95 -188 96 -184 c 0
 101 -158 103 -133 103 -107 c 0
 103 -3 68 74 16 137 c 0
 10 144 0 149 0 160 c 0
EndSplineSet
EndChar

StartChar: noteheads.d1triangle
Encoding: 175 57753 153
Width: 418
Flags: MW
LayerCount: 2
Fore
SplineSet
102 69 m 1
 121 24 133 -27 133 -87 c 1
 174 -46 224 -11 278 16 c 1
 214 27 155 45 102 69 c 1
0 142 m 0
 0 157 15 165 32 165 c 0
 37 165 41 165 45 162 c 0
 131 104 251 52 388 57 c 1
 389 57 l 2
 404 57 418 47 418 33 c 0
 418 19 406 11 393 7 c 0
 279 -28 183 -99 119 -188 c 0
 114 -195 106 -197 98 -197 c 0
 81 -197 66 -188 66 -173 c 0
 66 -170 67 -168 67 -165 c 0
 71 -141 74 -118 74 -94 c 0
 74 -3 47 64 7 124 c 0
 3 129 0 135 0 142 c 0
EndSplineSet
EndChar

StartChar: noteheads.u1triangle
Encoding: 176 57754 154
Width: 418
Flags: MW
LayerCount: 2
Fore
SplineSet
102 69 m 1
 121 24 133 -27 133 -87 c 1
 174 -46 224 -11 278 16 c 1
 214 27 155 45 102 69 c 1
0 142 m 0
 0 157 15 165 32 165 c 0
 37 165 41 165 45 162 c 0
 131 104 251 52 388 57 c 1
 389 57 l 2
 404 57 418 47 418 33 c 0
 418 19 406 11 393 7 c 0
 279 -28 183 -99 119 -188 c 0
 114 -195 106 -197 98 -197 c 0
 81 -197 66 -188 66 -173 c 0
 66 -170 67 -168 67 -165 c 0
 71 -141 74 -118 74 -94 c 0
 74 -3 47 64 7 124 c 0
 3 129 0 135 0 142 c 0
EndSplineSet
EndChar

StartChar: noteheads.u2triangle
Encoding: 177 57755 155
Width: 348
Flags: MW
LayerCount: 2
Fore
SplineSet
55 -173 m 0
 55 -147 62 -120 62 -93 c 0
 62 -3 40 64 4 128 c 0
 -6 145 6 165 25 165 c 0
 31 165 36 163 41 159 c 0
 110 102 207 57 324 57 c 0
 337 57 348 45 348 32 c 0
 348 21 340 12 330 8 c 0
 232 -29 152 -98 102 -184 c 0
 97 -192 89 -197 80 -197 c 0
 66 -197 55 -187 55 -173 c 0
EndSplineSet
EndChar

StartChar: noteheads.d2triangle
Encoding: 178 57756 156
Width: 348
Flags: MW
LayerCount: 2
Fore
SplineSet
55 -173 m 0
 55 -147 62 -120 62 -93 c 0
 62 -3 40 64 4 128 c 0
 -6 145 6 165 25 165 c 0
 31 165 36 163 41 159 c 0
 110 102 207 57 324 57 c 0
 337 57 348 45 348 32 c 0
 348 21 340 12 330 8 c 0
 232 -29 152 -98 102 -184 c 0
 97 -192 89 -197 80 -197 c 0
 66 -197 55 -187 55 -173 c 0
EndSplineSet
EndChar

StartChar: noteheads.s0slash
Encoding: 179 57757 157
Width: 980
Flags: MW
LayerCount: 2
Fore
SplineSet
845 220 m 1
 495 220 l 1
 125 -220 l 1
 475 -220 l 1
 845 220 l 1
430 250 m 1
 980 250 l 1
 550 -250 l 1
 0 -250 l 1
 430 250 l 1
EndSplineSet
EndChar

StartChar: noteheads.s1slash
Encoding: 180 57758 158
Width: 780
Flags: MW
LayerCount: 2
Fore
SplineSet
645 220 m 1
 495 220 l 1
 125 -220 l 1
 275 -220 l 1
 645 220 l 1
430 250 m 1
 780 250 l 1
 350 -250 l 1
 0 -250 l 1
 430 250 l 1
EndSplineSet
EndChar

StartChar: noteheads.s2slash
Encoding: 181 57759 159
Width: 530
Flags: MW
LayerCount: 2
Fore
SplineSet
430 250 m 1
 530 250 l 1
 100 -250 l 1
 0 -250 l 1
 430 250 l 1
EndSplineSet
EndChar

StartChar: noteheads.s0cross
Encoding: 182 57760 160
Width: 429
Flags: MW
LayerCount: 2
Fore
SplineSet
223 44 m 2
 221 42 218 42 215 42 c 0
 212 42 208 42 206 44 c 2
 99 117 l 1
 42 78 l 1
 139 12 l 2
 143 9 146 5 146 0 c 0
 146 -5 143 -9 139 -12 c 2
 42 -78 l 1
 99 -117 l 1
 206 -44 l 2
 208 -42 212 -42 215 -42 c 0
 218 -42 221 -42 223 -44 c 2
 330 -117 l 1
 387 -78 l 1
 290 -12 l 2
 286 -9 283 -5 283 0 c 0
 283 5 286 9 290 12 c 2
 387 78 l 1
 330 117 l 1
 223 44 l 2
215 75 m 1
 322 147 l 2
 324 149 327 150 330 150 c 0
 333 150 337 149 339 147 c 2
 422 91 l 2
 426 88 429 83 429 78 c 0
 429 73 426 69 422 66 c 2
 325 0 l 1
 422 -66 l 2
 426 -69 429 -73 429 -78 c 0
 429 -83 426 -88 422 -91 c 2
 339 -147 l 2
 337 -149 333 -150 330 -150 c 0
 327 -150 324 -149 322 -147 c 2
 215 -75 l 1
 107 -147 l 2
 105 -149 102 -150 99 -150 c 0
 96 -150 92 -149 90 -147 c 2
 7 -91 l 2
 3 -88 0 -83 0 -78 c 0
 0 -73 3 -69 7 -66 c 2
 104 0 l 1
 7 66 l 2
 3 69 0 73 0 78 c 0
 0 83 3 88 7 91 c 2
 90 147 l 2
 92 149 96 150 99 150 c 0
 102 150 105 149 107 147 c 2
 215 75 l 1
EndSplineSet
EndChar

StartChar: noteheads.s1cross
Encoding: 183 57761 161
Width: 379
Flags: MW
LayerCount: 2
Fore
SplineSet
198 35 m 2
 195 33 193 32 190 32 c 0
 187 32 184 33 181 35 c 2
 78 110 l 1
 40 82 l 1
 135 12 l 2
 139 9 141 5 141 0 c 0
 141 -5 139 -9 135 -12 c 2
 40 -82 l 1
 78 -110 l 1
 181 -35 l 2
 184 -33 187 -32 190 -32 c 0
 193 -32 195 -33 198 -35 c 2
 301 -110 l 1
 339 -82 l 1
 244 -12 l 2
 240 -9 238 -5 238 0 c 0
 238 5 240 9 244 12 c 2
 339 82 l 1
 301 110 l 1
 198 35 l 2
190 65 m 1
 292 141 l 2
 295 143 298 144 301 144 c 0
 304 144 307 143 310 141 c 2
 373 94 l 2
 377 91 379 87 379 82 c 0
 379 77 377 73 373 70 c 2
 278 0 l 1
 373 -70 l 2
 377 -73 379 -77 379 -82 c 0
 379 -87 377 -91 373 -94 c 2
 310 -141 l 2
 307 -143 304 -144 301 -144 c 0
 298 -144 295 -143 292 -141 c 2
 190 -65 l 1
 87 -141 l 2
 84 -143 81 -144 78 -144 c 0
 75 -144 72 -143 69 -141 c 2
 6 -94 l 2
 2 -91 0 -87 0 -82 c 0
 0 -77 2 -73 6 -70 c 2
 101 0 l 1
 6 70 l 2
 2 73 0 77 0 82 c 0
 0 87 2 91 6 94 c 2
 69 141 l 2
 72 143 75 144 78 144 c 0
 81 144 84 143 87 141 c 2
 190 65 l 1
EndSplineSet
EndChar

StartChar: noteheads.s2cross
Encoding: 184 57762 162
Width: 329
Flags: MW
LayerCount: 2
Fore
SplineSet
165 36 m 1
 285 134 l 2
 288 136 291 138 294 138 c 0
 297 138 301 136 304 134 c 2
 324 118 l 2
 327 115 329 110 329 106 c 0
 329 102 327 98 324 95 c 2
 208 0 l 1
 324 -95 l 2
 327 -98 329 -102 329 -106 c 0
 329 -110 327 -115 324 -118 c 2
 304 -134 l 2
 301 -136 297 -138 294 -138 c 0
 291 -138 288 -136 285 -134 c 2
 165 -36 l 1
 44 -134 l 2
 41 -136 38 -138 35 -138 c 0
 32 -138 28 -136 25 -134 c 2
 5 -118 l 2
 2 -115 0 -110 0 -106 c 0
 0 -102 2 -98 5 -95 c 2
 121 0 l 1
 5 95 l 2
 2 98 0 102 0 106 c 0
 0 110 2 115 5 118 c 2
 25 134 l 2
 28 136 32 138 35 138 c 0
 38 138 41 136 44 134 c 2
 165 36 l 1
EndSplineSet
EndChar

StartChar: noteheads.s2xcircle
Encoding: 185 57763 163
Width: 391
Flags: MW
LayerCount: 2
Fore
SplineSet
196 173 m 0
 297 173 391 99 391 0 c 0
 391 -99 297 -173 196 -173 c 0
 95 -173 0 -99 0 0 c 0
 0 99 95 173 196 173 c 0
168 0 m 1
 71 85 l 1
 49 61 36 31 36 0 c 0
 36 -31 49 -61 71 -85 c 1
 168 0 l 1
196 24 m 1
 292 108 l 1
 264 126 231 136 196 136 c 0
 161 136 127 126 99 108 c 1
 196 24 l 1
196 -24 m 1
 99 -108 l 1
 127 -126 161 -136 196 -136 c 0
 231 -136 264 -126 292 -108 c 1
 196 -24 l 1
223 0 m 1
 321 -85 l 1
 343 -61 355 -31 355 0 c 0
 355 31 343 61 321 85 c 1
 223 0 l 1
EndSplineSet
EndChar

StartChar: noteheads.s0do
Encoding: 186 57764 164
Width: 329
Flags: MW
LayerCount: 2
Fore
SplineSet
97 -47 m 1
 255 -47 l 1
 176 55 l 1
 97 -47 l 1
16 -112 m 2
 7 -112 0 -105 0 -96 c 0
 0 -92 1 -89 3 -86 c 2
 152 106 l 2
 155 110 160 112 165 112 c 0
 170 112 174 110 177 106 c 2
 326 -86 l 2
 328 -89 329 -92 329 -96 c 0
 329 -105 322 -112 313 -112 c 2
 16 -112 l 2
EndSplineSet
EndChar

StartChar: noteheads.d1do
Encoding: 187 57765 165
Width: 329
Flags: MW
LayerCount: 2
Fore
SplineSet
97 -47 m 1
 255 -47 l 1
 176 55 l 1
 97 -47 l 1
16 -112 m 2
 7 -112 0 -105 0 -96 c 0
 0 -92 1 -89 3 -86 c 2
 152 106 l 2
 155 110 160 112 165 112 c 0
 170 112 174 110 177 106 c 2
 326 -86 l 2
 328 -89 329 -92 329 -96 c 0
 329 -105 322 -112 313 -112 c 2
 16 -112 l 2
EndSplineSet
EndChar

StartChar: noteheads.u1do
Encoding: 188 57766 166
Width: 329
Flags: MW
LayerCount: 2
Fore
SplineSet
97 -47 m 1
 255 -47 l 1
 176 55 l 1
 97 -47 l 1
16 -112 m 2
 7 -112 0 -105 0 -96 c 0
 0 -92 1 -89 3 -86 c 2
 152 106 l 2
 155 110 160 112 165 112 c 0
 170 112 174 110 177 106 c 2
 326 -86 l 2
 328 -89 329 -92 329 -96 c 0
 329 -105 322 -112 313 -112 c 2
 16 -112 l 2
EndSplineSet
EndChar

StartChar: noteheads.d2do
Encoding: 189 57767 167
Width: 329
Flags: MW
LayerCount: 2
Fore
SplineSet
16 -112 m 2
 7 -112 0 -105 0 -96 c 0
 0 -92 1 -89 3 -86 c 2
 152 106 l 2
 155 110 160 112 165 112 c 0
 170 112 174 110 177 106 c 2
 326 -86 l 2
 328 -89 329 -92 329 -96 c 0
 329 -105 322 -112 313 -112 c 2
 16 -112 l 2
EndSplineSet
EndChar

StartChar: noteheads.u2do
Encoding: 190 57768 168
Width: 329
Flags: MW
LayerCount: 2
Fore
SplineSet
16 -112 m 2
 7 -112 0 -105 0 -96 c 0
 0 -92 1 -89 3 -86 c 2
 152 106 l 2
 155 110 160 112 165 112 c 0
 170 112 174 110 177 106 c 2
 326 -86 l 2
 328 -89 329 -92 329 -96 c 0
 329 -105 322 -112 313 -112 c 2
 16 -112 l 2
EndSplineSet
EndChar

StartChar: noteheads.s0doThin
Encoding: 191 57769 169
Width: 329
Flags: MW
LayerCount: 2
Fore
SplineSet
49 -80 m 1
 280 -80 l 1
 165 70 l 1
 49 -80 l 1
16 -112 m 2
 7 -112 0 -105 0 -96 c 0
 0 -92 1 -89 3 -86 c 2
 152 106 l 2
 155 110 160 112 165 112 c 0
 170 112 174 110 177 106 c 2
 326 -86 l 2
 328 -89 329 -92 329 -96 c 0
 329 -105 322 -112 313 -112 c 2
 16 -112 l 2
EndSplineSet
EndChar

StartChar: noteheads.d1doThin
Encoding: 192 57770 170
Width: 329
Flags: MW
LayerCount: 2
Fore
SplineSet
49 -80 m 1
 280 -80 l 1
 165 70 l 1
 49 -80 l 1
16 -112 m 2
 7 -112 0 -105 0 -96 c 0
 0 -92 1 -89 3 -86 c 2
 152 106 l 2
 155 110 160 112 165 112 c 0
 170 112 174 110 177 106 c 2
 326 -86 l 2
 328 -89 329 -92 329 -96 c 0
 329 -105 322 -112 313 -112 c 2
 16 -112 l 2
EndSplineSet
EndChar

StartChar: noteheads.u1doThin
Encoding: 193 57771 171
Width: 329
Flags: MW
LayerCount: 2
Fore
SplineSet
49 -80 m 1
 280 -80 l 1
 165 70 l 1
 49 -80 l 1
16 -112 m 2
 7 -112 0 -105 0 -96 c 0
 0 -92 1 -89 3 -86 c 2
 152 106 l 2
 155 110 160 112 165 112 c 0
 170 112 174 110 177 106 c 2
 326 -86 l 2
 328 -89 329 -92 329 -96 c 0
 329 -105 322 -112 313 -112 c 2
 16 -112 l 2
EndSplineSet
EndChar

StartChar: noteheads.d2doThin
Encoding: 194 57772 172
Width: 329
Flags: MW
LayerCount: 2
Fore
SplineSet
16 -112 m 2
 7 -112 0 -105 0 -96 c 0
 0 -92 1 -89 3 -86 c 2
 152 106 l 2
 155 110 160 112 165 112 c 0
 170 112 174 110 177 106 c 2
 326 -86 l 2
 328 -89 329 -92 329 -96 c 0
 329 -105 322 -112 313 -112 c 2
 16 -112 l 2
EndSplineSet
EndChar

StartChar: noteheads.u2doThin
Encoding: 195 57773 173
Width: 329
Flags: MW
LayerCount: 2
Fore
SplineSet
16 -112 m 2
 7 -112 0 -105 0 -96 c 0
 0 -92 1 -89 3 -86 c 2
 152 106 l 2
 155 110 160 112 165 112 c 0
 170 112 174 110 177 106 c 2
 326 -86 l 2
 328 -89 329 -92 329 -96 c 0
 329 -105 322 -112 313 -112 c 2
 16 -112 l 2
EndSplineSet
EndChar

StartChar: noteheads.s0re
Encoding: 196 57774 174
Width: 329
Flags: MW
LayerCount: 2
Fore
SplineSet
33 47 m 1
 33 38 l 2
 33 -17 101 -31 165 -31 c 0
 229 -31 297 -17 297 38 c 2
 297 47 l 1
 33 47 l 1
0 96 m 2
 0 105 7 112 16 112 c 2
 313 112 l 2
 322 112 329 105 329 96 c 2
 329 38 l 2
 329 -48 254 -112 165 -112 c 0
 76 -112 0 -48 0 38 c 2
 0 96 l 2
EndSplineSet
EndChar

StartChar: noteheads.u1re
Encoding: 197 57775 175
Width: 329
Flags: MW
LayerCount: 2
Fore
SplineSet
33 47 m 1
 33 38 l 2
 33 -17 101 -31 165 -31 c 0
 229 -31 297 -17 297 38 c 2
 297 47 l 1
 33 47 l 1
0 96 m 2
 0 105 7 112 16 112 c 2
 313 112 l 2
 322 112 329 105 329 96 c 2
 329 38 l 2
 329 -48 254 -112 165 -112 c 0
 76 -112 0 -48 0 38 c 2
 0 96 l 2
EndSplineSet
EndChar

StartChar: noteheads.d1re
Encoding: 198 57776 176
Width: 329
Flags: MW
LayerCount: 2
Fore
SplineSet
33 47 m 1
 33 38 l 2
 33 -17 101 -31 165 -31 c 0
 229 -31 297 -17 297 38 c 2
 297 47 l 1
 33 47 l 1
0 96 m 2
 0 105 7 112 16 112 c 2
 313 112 l 2
 322 112 329 105 329 96 c 2
 329 38 l 2
 329 -48 254 -112 165 -112 c 0
 76 -112 0 -48 0 38 c 2
 0 96 l 2
EndSplineSet
EndChar

StartChar: noteheads.u2re
Encoding: 199 57777 177
Width: 329
Flags: MW
LayerCount: 2
Fore
SplineSet
0 96 m 2
 0 105 7 112 16 112 c 2
 313 112 l 2
 322 112 329 105 329 96 c 2
 329 38 l 2
 329 -48 254 -112 165 -112 c 0
 76 -112 0 -48 0 38 c 2
 0 96 l 2
EndSplineSet
EndChar

StartChar: noteheads.d2re
Encoding: 200 57778 178
Width: 329
Flags: MW
LayerCount: 2
Fore
SplineSet
0 96 m 2
 0 105 7 112 16 112 c 2
 313 112 l 2
 322 112 329 105 329 96 c 2
 329 38 l 2
 329 -48 254 -112 165 -112 c 0
 76 -112 0 -48 0 38 c 2
 0 96 l 2
EndSplineSet
EndChar

StartChar: noteheads.s0reThin
Encoding: 201 57779 179
Width: 329
Flags: MW
LayerCount: 2
Fore
SplineSet
33 80 m 1
 33 38 l 2
 33 -25 97 -64 165 -64 c 0
 233 -64 297 -25 297 38 c 2
 297 80 l 1
 33 80 l 1
0 96 m 2
 0 105 7 112 16 112 c 2
 313 112 l 2
 322 112 329 105 329 96 c 2
 329 38 l 2
 329 -48 254 -112 165 -112 c 0
 76 -112 0 -48 0 38 c 2
 0 96 l 2
EndSplineSet
EndChar

StartChar: noteheads.u1reThin
Encoding: 202 57780 180
Width: 329
Flags: MW
LayerCount: 2
Fore
SplineSet
33 80 m 1
 33 38 l 2
 33 -25 97 -64 165 -64 c 0
 233 -64 297 -25 297 38 c 2
 297 80 l 1
 33 80 l 1
0 96 m 2
 0 105 7 112 16 112 c 2
 313 112 l 2
 322 112 329 105 329 96 c 2
 329 38 l 2
 329 -48 254 -112 165 -112 c 0
 76 -112 0 -48 0 38 c 2
 0 96 l 2
EndSplineSet
EndChar

StartChar: noteheads.d1reThin
Encoding: 203 57781 181
Width: 329
Flags: MW
LayerCount: 2
Fore
SplineSet
33 80 m 1
 33 38 l 2
 33 -25 97 -64 165 -64 c 0
 233 -64 297 -25 297 38 c 2
 297 80 l 1
 33 80 l 1
0 96 m 2
 0 105 7 112 16 112 c 2
 313 112 l 2
 322 112 329 105 329 96 c 2
 329 38 l 2
 329 -48 254 -112 165 -112 c 0
 76 -112 0 -48 0 38 c 2
 0 96 l 2
EndSplineSet
EndChar

StartChar: noteheads.u2reThin
Encoding: 204 57782 182
Width: 329
Flags: MW
LayerCount: 2
Fore
SplineSet
0 96 m 2
 0 105 7 112 16 112 c 2
 313 112 l 2
 322 112 329 105 329 96 c 2
 329 38 l 2
 329 -48 254 -112 165 -112 c 0
 76 -112 0 -48 0 38 c 2
 0 96 l 2
EndSplineSet
EndChar

StartChar: noteheads.d2reThin
Encoding: 205 57783 183
Width: 329
Flags: MW
LayerCount: 2
Fore
SplineSet
0 96 m 2
 0 105 7 112 16 112 c 2
 313 112 l 2
 322 112 329 105 329 96 c 2
 329 38 l 2
 329 -48 254 -112 165 -112 c 0
 76 -112 0 -48 0 38 c 2
 0 96 l 2
EndSplineSet
EndChar

StartChar: noteheads.s0mi
Encoding: 206 57784 184
Width: 394
Flags: MW
LayerCount: 2
Fore
SplineSet
309 -18 m 1
 163 59 l 1
 86 18 l 1
 232 -59 l 1
 309 -18 l 1
9 -14 m 2
 4 -11 0 -6 0 0 c 0
 0 6 4 11 9 14 c 2
 190 111 l 2
 192 112 194 112 197 112 c 0
 200 112 203 112 205 111 c 2
 386 14 l 2
 391 11 395 6 395 0 c 0
 395 -6 391 -11 386 -14 c 2
 205 -111 l 2
 203 -112 200 -112 197 -112 c 0
 194 -112 192 -112 190 -111 c 2
 9 -14 l 2
EndSplineSet
EndChar

StartChar: noteheads.s1mi
Encoding: 207 57785 185
Width: 394
Flags: MW
LayerCount: 2
Fore
SplineSet
309 -18 m 1
 163 59 l 1
 86 18 l 1
 232 -59 l 1
 309 -18 l 1
9 -14 m 2
 4 -11 0 -6 0 0 c 0
 0 6 4 11 9 14 c 2
 190 111 l 2
 192 112 194 112 197 112 c 0
 200 112 203 112 205 111 c 2
 386 14 l 2
 391 11 395 6 395 0 c 0
 395 -6 391 -11 386 -14 c 2
 205 -111 l 2
 203 -112 200 -112 197 -112 c 0
 194 -112 192 -112 190 -111 c 2
 9 -14 l 2
EndSplineSet
EndChar

StartChar: noteheads.s2mi
Encoding: 208 57786 186
Width: 394
Flags: MW
LayerCount: 2
Fore
SplineSet
9 -14 m 2
 4 -11 0 -6 0 0 c 0
 0 6 4 11 9 14 c 2
 190 111 l 2
 192 112 194 112 197 112 c 0
 200 112 203 112 205 111 c 2
 386 14 l 2
 391 11 395 6 395 0 c 0
 395 -6 391 -11 386 -14 c 2
 205 -111 l 2
 203 -112 200 -112 197 -112 c 0
 194 -112 192 -112 190 -111 c 2
 9 -14 l 2
EndSplineSet
EndChar

StartChar: noteheads.s0miMirror
Encoding: 209 57787 187
Width: 394
Flags: MW
LayerCount: 2
Fore
SplineSet
86 -18 m 1
 163 -59 l 1
 309 18 l 1
 232 59 l 1
 86 -18 l 1
9 -14 m 2
 4 -11 0 -6 0 0 c 0
 0 6 4 11 9 14 c 2
 190 111 l 2
 192 112 194 112 197 112 c 0
 200 112 203 112 205 111 c 2
 386 14 l 2
 391 11 395 6 395 0 c 0
 395 -6 391 -11 386 -14 c 2
 205 -111 l 2
 203 -112 200 -112 197 -112 c 0
 194 -112 192 -112 190 -111 c 2
 9 -14 l 2
EndSplineSet
EndChar

StartChar: noteheads.s1miMirror
Encoding: 210 57788 188
Width: 394
Flags: MW
LayerCount: 2
Fore
SplineSet
86 -18 m 1
 163 -59 l 1
 309 18 l 1
 232 59 l 1
 86 -18 l 1
9 -14 m 2
 4 -11 0 -6 0 0 c 0
 0 6 4 11 9 14 c 2
 190 111 l 2
 192 112 194 112 197 112 c 0
 200 112 203 112 205 111 c 2
 386 14 l 2
 391 11 395 6 395 0 c 0
 395 -6 391 -11 386 -14 c 2
 205 -111 l 2
 203 -112 200 -112 197 -112 c 0
 194 -112 192 -112 190 -111 c 2
 9 -14 l 2
EndSplineSet
EndChar

StartChar: noteheads.s2miMirror
Encoding: 211 57789 189
Width: 394
Flags: MW
LayerCount: 2
Fore
SplineSet
9 -14 m 2
 4 -11 0 -6 0 0 c 0
 0 6 4 11 9 14 c 2
 190 111 l 2
 192 112 194 112 197 112 c 0
 200 112 203 112 205 111 c 2
 386 14 l 2
 391 11 395 6 395 0 c 0
 395 -6 391 -11 386 -14 c 2
 205 -111 l 2
 203 -112 200 -112 197 -112 c 0
 194 -112 192 -112 190 -111 c 2
 9 -14 l 2
EndSplineSet
EndChar

StartChar: noteheads.s0miThin
Encoding: 212 57790 190
Width: 394
Flags: MW
LayerCount: 2
Fore
SplineSet
344 0 m 1
 197 78 l 1
 51 0 l 1
 197 -78 l 1
 344 0 l 1
9 -14 m 2
 4 -11 0 -6 0 0 c 0
 0 6 4 11 9 14 c 2
 190 111 l 2
 192 112 194 112 197 112 c 0
 200 112 203 112 205 111 c 2
 386 14 l 2
 391 11 395 6 395 0 c 0
 395 -6 391 -11 386 -14 c 2
 205 -111 l 2
 203 -112 200 -112 197 -112 c 0
 194 -112 192 -112 190 -111 c 2
 9 -14 l 2
EndSplineSet
EndChar

StartChar: noteheads.s1miThin
Encoding: 213 57791 191
Width: 394
Flags: MW
LayerCount: 2
Fore
SplineSet
344 0 m 1
 197 78 l 1
 51 0 l 1
 197 -78 l 1
 344 0 l 1
9 -14 m 2
 4 -11 0 -6 0 0 c 0
 0 6 4 11 9 14 c 2
 190 111 l 2
 192 112 194 112 197 112 c 0
 200 112 203 112 205 111 c 2
 386 14 l 2
 391 11 395 6 395 0 c 0
 395 -6 391 -11 386 -14 c 2
 205 -111 l 2
 203 -112 200 -112 197 -112 c 0
 194 -112 192 -112 190 -111 c 2
 9 -14 l 2
EndSplineSet
EndChar

StartChar: noteheads.s2miThin
Encoding: 214 57792 192
Width: 394
Flags: MW
LayerCount: 2
Fore
SplineSet
9 -14 m 2
 4 -11 0 -6 0 0 c 0
 0 6 4 11 9 14 c 2
 190 111 l 2
 192 112 194 112 197 112 c 0
 200 112 203 112 205 111 c 2
 386 14 l 2
 391 11 395 6 395 0 c 0
 395 -6 391 -11 386 -14 c 2
 205 -111 l 2
 203 -112 200 -112 197 -112 c 0
 194 -112 192 -112 190 -111 c 2
 9 -14 l 2
EndSplineSet
EndChar

StartChar: noteheads.u0fa
Encoding: 215 57793 193
Width: 329
Flags: MW
LayerCount: 2
Fore
SplineSet
297 56 m 1
 109 56 l 1
 297 -66 l 1
 297 56 l 1
0 96 m 0
 0 105 7 113 16 113 c 2
 313 113 l 2
 322 113 329 105 329 96 c 2
 329 -96 l 2
 329 -105 322 -112 313 -112 c 0
 310 -112 307 -112 304 -110 c 2
 7 83 l 2
 2 86 0 90 0 96 c 0
EndSplineSet
EndChar

StartChar: noteheads.d0fa
Encoding: 216 57794 194
Width: 329
Flags: MW
LayerCount: 2
Fore
SplineSet
33 -56 m 1
 220 -56 l 1
 33 66 l 1
 33 -56 l 1
329 -96 m 0
 329 -105 322 -113 313 -113 c 2
 16 -113 l 2
 7 -113 0 -105 0 -96 c 2
 0 96 l 2
 0 105 7 112 16 112 c 0
 19 112 22 112 25 110 c 2
 322 -83 l 2
 327 -86 329 -90 329 -96 c 0
EndSplineSet
EndChar

StartChar: noteheads.u1fa
Encoding: 217 57795 195
Width: 329
Flags: MW
LayerCount: 2
Fore
SplineSet
297 56 m 1
 109 56 l 1
 297 -66 l 1
 297 56 l 1
0 96 m 0
 0 105 7 113 16 113 c 2
 313 113 l 2
 322 113 329 105 329 96 c 2
 329 -96 l 2
 329 -105 322 -112 313 -112 c 0
 310 -112 307 -112 304 -110 c 2
 7 83 l 2
 2 86 0 90 0 96 c 0
EndSplineSet
EndChar

StartChar: noteheads.d1fa
Encoding: 218 57796 196
Width: 329
Flags: MW
LayerCount: 2
Fore
SplineSet
33 -56 m 1
 220 -56 l 1
 33 66 l 1
 33 -56 l 1
329 -96 m 0
 329 -105 322 -113 313 -113 c 2
 16 -113 l 2
 7 -113 0 -105 0 -96 c 2
 0 96 l 2
 0 105 7 112 16 112 c 0
 19 112 22 112 25 110 c 2
 322 -83 l 2
 327 -86 329 -90 329 -96 c 0
EndSplineSet
EndChar

StartChar: noteheads.u2fa
Encoding: 219 57797 197
Width: 329
Flags: MW
LayerCount: 2
Fore
SplineSet
0 96 m 0
 0 105 7 113 16 113 c 2
 313 113 l 2
 322 113 329 105 329 96 c 2
 329 -96 l 2
 329 -105 322 -112 313 -112 c 0
 310 -112 307 -112 304 -110 c 2
 7 83 l 2
 2 86 0 90 0 96 c 0
EndSplineSet
EndChar

StartChar: noteheads.d2fa
Encoding: 220 57798 198
Width: 329
Flags: MW
LayerCount: 2
Fore
SplineSet
329 -96 m 0
 329 -105 322 -113 313 -113 c 2
 16 -113 l 2
 7 -113 0 -105 0 -96 c 2
 0 96 l 2
 0 105 7 112 16 112 c 0
 19 112 22 112 25 110 c 2
 322 -83 l 2
 327 -86 329 -90 329 -96 c 0
EndSplineSet
EndChar

StartChar: noteheads.u0faThin
Encoding: 221 57799 199
Width: 329
Flags: MW
LayerCount: 2
Fore
SplineSet
297 80 m 1
 71 80 l 1
 297 -66 l 1
 297 80 l 1
0 96 m 0
 0 105 7 113 16 113 c 2
 313 113 l 2
 322 113 329 105 329 96 c 2
 329 -96 l 2
 329 -105 322 -112 313 -112 c 0
 310 -112 307 -112 304 -110 c 2
 7 83 l 2
 2 86 0 90 0 96 c 0
EndSplineSet
EndChar

StartChar: noteheads.d0faThin
Encoding: 222 57800 200
Width: 329
Flags: MW
LayerCount: 2
Fore
SplineSet
33 -80 m 1
 258 -80 l 1
 33 66 l 1
 33 -80 l 1
329 -96 m 0
 329 -105 322 -113 313 -113 c 2
 16 -113 l 2
 7 -113 0 -105 0 -96 c 2
 0 96 l 2
 0 105 7 112 16 112 c 0
 19 112 22 112 25 110 c 2
 322 -83 l 2
 327 -86 329 -90 329 -96 c 0
EndSplineSet
EndChar

StartChar: noteheads.u1faThin
Encoding: 223 57801 201
Width: 329
Flags: MW
LayerCount: 2
Fore
SplineSet
297 80 m 1
 71 80 l 1
 297 -66 l 1
 297 80 l 1
0 96 m 0
 0 105 7 113 16 113 c 2
 313 113 l 2
 322 113 329 105 329 96 c 2
 329 -96 l 2
 329 -105 322 -112 313 -112 c 0
 310 -112 307 -112 304 -110 c 2
 7 83 l 2
 2 86 0 90 0 96 c 0
EndSplineSet
EndChar

StartChar: noteheads.d1faThin
Encoding: 224 57802 202
Width: 329
Flags: MW
LayerCount: 2
Fore
SplineSet
33 -80 m 1
 258 -80 l 1
 33 66 l 1
 33 -80 l 1
329 -96 m 0
 329 -105 322 -113 313 -113 c 2
 16 -113 l 2
 7 -113 0 -105 0 -96 c 2
 0 96 l 2
 0 105 7 112 16 112 c 0
 19 112 22 112 25 110 c 2
 322 -83 l 2
 327 -86 329 -90 329 -96 c 0
EndSplineSet
EndChar

StartChar: noteheads.u2faThin
Encoding: 225 57803 203
Width: 329
Flags: MW
LayerCount: 2
Fore
SplineSet
0 96 m 0
 0 105 7 113 16 113 c 2
 313 113 l 2
 322 113 329 105 329 96 c 2
 329 -96 l 2
 329 -105 322 -112 313 -112 c 0
 310 -112 307 -112 304 -110 c 2
 7 83 l 2
 2 86 0 90 0 96 c 0
EndSplineSet
EndChar

StartChar: noteheads.d2faThin
Encoding: 226 57804 204
Width: 329
Flags: MW
LayerCount: 2
Fore
SplineSet
329 -96 m 0
 329 -105 322 -113 313 -113 c 2
 16 -113 l 2
 7 -113 0 -105 0 -96 c 2
 0 96 l 2
 0 105 7 112 16 112 c 0
 19 112 22 112 25 110 c 2
 322 -83 l 2
 327 -86 329 -90 329 -96 c 0
EndSplineSet
EndChar

StartChar: noteheads.s0sol
Encoding: 227 57805 205
Width: 347
Flags: MW
LayerCount: 2
Fore
SplineSet
315 65 m 0
 315 89 294 106 273 106 c 0
 269 106 265 106 261 105 c 0
 230 96 184 65 147 41 c 0
 110 17 63 -12 43 -37 c 0
 36 -45 32 -55 32 -65 c 0
 32 -89 53 -106 74 -106 c 0
 78 -106 82 -106 86 -105 c 0
 117 -96 164 -65 201 -41 c 0
 238 -17 285 12 305 37 c 0
 312 45 315 55 315 65 c 0
264 137 m 0
 311 137 347 116 347 65 c 0
 347 46 343 28 337 9 c 0
 325 -29 305 -65 272 -87 c 0
 218 -123 159 -138 84 -138 c 0
 37 -138 0 -116 0 -65 c 0
 0 -46 5 -28 11 -9 c 0
 23 29 42 65 75 87 c 0
 129 123 189 137 264 137 c 0
EndSplineSet
EndChar

StartChar: noteheads.s1sol
Encoding: 228 57806 206
Width: 347
Flags: MW
LayerCount: 2
Fore
SplineSet
315 65 m 0
 315 89 294 106 273 106 c 0
 269 106 265 106 261 105 c 0
 230 96 184 65 147 41 c 0
 110 17 63 -12 43 -37 c 0
 36 -45 32 -55 32 -65 c 0
 32 -89 53 -106 74 -106 c 0
 78 -106 82 -106 86 -105 c 0
 117 -96 164 -65 201 -41 c 0
 238 -17 285 12 305 37 c 0
 312 45 315 55 315 65 c 0
264 137 m 0
 311 137 347 116 347 65 c 0
 347 46 343 28 337 9 c 0
 325 -29 305 -65 272 -87 c 0
 218 -123 159 -138 84 -138 c 0
 37 -138 0 -116 0 -65 c 0
 0 -46 5 -28 11 -9 c 0
 23 29 42 65 75 87 c 0
 129 123 189 137 264 137 c 0
EndSplineSet
EndChar

StartChar: noteheads.s2sol
Encoding: 229 57807 207
Width: 347
Flags: MW
LayerCount: 2
Fore
SplineSet
264 137 m 0
 311 137 347 116 347 65 c 0
 347 46 343 28 337 9 c 0
 325 -29 305 -65 272 -87 c 0
 218 -123 159 -138 84 -138 c 0
 37 -138 0 -116 0 -65 c 0
 0 -46 5 -28 11 -9 c 0
 23 29 42 65 75 87 c 0
 129 123 189 137 264 137 c 0
EndSplineSet
EndChar

StartChar: noteheads.s0la
Encoding: 230 57808 208
Width: 329
Flags: MW
LayerCount: 2
Fore
SplineSet
33 47 m 1
 33 -47 l 1
 297 -47 l 1
 297 47 l 1
 33 47 l 1
16 112 m 2
 313 112 l 2
 322 112 329 105 329 96 c 2
 329 -96 l 2
 329 -105 322 -113 313 -113 c 2
 16 -113 l 2
 7 -113 0 -105 0 -96 c 2
 0 96 l 2
 0 105 7 112 16 112 c 2
EndSplineSet
EndChar

StartChar: noteheads.s1la
Encoding: 231 57809 209
Width: 329
Flags: MW
LayerCount: 2
Fore
SplineSet
33 47 m 1
 33 -47 l 1
 297 -47 l 1
 297 47 l 1
 33 47 l 1
16 112 m 2
 313 112 l 2
 322 112 329 105 329 96 c 2
 329 -96 l 2
 329 -105 322 -113 313 -113 c 2
 16 -113 l 2
 7 -113 0 -105 0 -96 c 2
 0 96 l 2
 0 105 7 112 16 112 c 2
EndSplineSet
EndChar

StartChar: noteheads.s2la
Encoding: 232 57810 210
Width: 329
Flags: MW
LayerCount: 2
Fore
SplineSet
16 112 m 2
 313 112 l 2
 322 112 329 105 329 96 c 2
 329 -96 l 2
 329 -105 322 -113 313 -113 c 2
 16 -113 l 2
 7 -113 0 -105 0 -96 c 2
 0 96 l 2
 0 105 7 112 16 112 c 2
EndSplineSet
EndChar

StartChar: noteheads.s0laThin
Encoding: 233 57811 211
Width: 329
Flags: MW
LayerCount: 2
Fore
SplineSet
33 80 m 1
 33 -80 l 1
 297 -80 l 1
 297 80 l 1
 33 80 l 1
16 112 m 2
 313 112 l 2
 322 112 329 105 329 96 c 2
 329 -96 l 2
 329 -105 322 -113 313 -113 c 2
 16 -113 l 2
 7 -113 0 -105 0 -96 c 2
 0 96 l 2
 0 105 7 112 16 112 c 2
EndSplineSet
EndChar

StartChar: noteheads.s1laThin
Encoding: 234 57812 212
Width: 329
Flags: MW
LayerCount: 2
Fore
SplineSet
33 80 m 1
 33 -80 l 1
 297 -80 l 1
 297 80 l 1
 33 80 l 1
16 112 m 2
 313 112 l 2
 322 112 329 105 329 96 c 2
 329 -96 l 2
 329 -105 322 -113 313 -113 c 2
 16 -113 l 2
 7 -113 0 -105 0 -96 c 2
 0 96 l 2
 0 105 7 112 16 112 c 2
EndSplineSet
EndChar

StartChar: noteheads.s2laThin
Encoding: 235 57813 213
Width: 329
Flags: MW
LayerCount: 2
Fore
SplineSet
16 112 m 2
 313 112 l 2
 322 112 329 105 329 96 c 2
 329 -96 l 2
 329 -105 322 -113 313 -113 c 2
 16 -113 l 2
 7 -113 0 -105 0 -96 c 2
 0 96 l 2
 0 105 7 112 16 112 c 2
EndSplineSet
EndChar

StartChar: noteheads.s0ti
Encoding: 236 57814 214
Width: 329
Flags: MW
LayerCount: 2
Fore
SplineSet
165 -47 m 1
 272 6 l 1
 255 50 213 80 165 80 c 0
 117 80 74 50 57 6 c 1
 165 -47 l 1
175 -109 m 2
 172 -111 169 -112 165 -112 c 0
 161 -112 157 -111 154 -109 c 2
 6 14 l 2
 2 17 0 22 0 27 c 0
 0 31 2 34 4 37 c 0
 44 85 103 112 165 112 c 0
 227 112 285 85 325 37 c 0
 327 34 329 31 329 27 c 0
 329 22 327 17 323 14 c 2
 175 -109 l 2
EndSplineSet
EndChar

StartChar: noteheads.u1ti
Encoding: 237 57815 215
Width: 329
Flags: MW
LayerCount: 2
Fore
SplineSet
165 -47 m 1
 272 6 l 1
 255 50 213 80 165 80 c 0
 117 80 74 50 57 6 c 1
 165 -47 l 1
175 -109 m 2
 172 -111 169 -112 165 -112 c 0
 161 -112 157 -111 154 -109 c 2
 6 14 l 2
 2 17 0 22 0 27 c 0
 0 31 2 34 4 37 c 0
 44 85 103 112 165 112 c 0
 227 112 285 85 325 37 c 0
 327 34 329 31 329 27 c 0
 329 22 327 17 323 14 c 2
 175 -109 l 2
EndSplineSet
EndChar

StartChar: noteheads.d1ti
Encoding: 238 57816 216
Width: 329
Flags: MW
LayerCount: 2
Fore
SplineSet
165 -47 m 1
 272 6 l 1
 255 50 213 80 165 80 c 0
 117 80 74 50 57 6 c 1
 165 -47 l 1
175 -109 m 2
 172 -111 169 -112 165 -112 c 0
 161 -112 157 -111 154 -109 c 2
 6 14 l 2
 2 17 0 22 0 27 c 0
 0 31 2 34 4 37 c 0
 44 85 103 112 165 112 c 0
 227 112 285 85 325 37 c 0
 327 34 329 31 329 27 c 0
 329 22 327 17 323 14 c 2
 175 -109 l 2
EndSplineSet
EndChar

StartChar: noteheads.u2ti
Encoding: 239 57817 217
Width: 329
Flags: MW
LayerCount: 2
Fore
SplineSet
175 -109 m 2
 172 -111 169 -112 165 -112 c 0
 161 -112 157 -111 154 -109 c 2
 6 14 l 2
 2 17 0 22 0 27 c 0
 0 31 2 34 4 37 c 0
 44 85 103 112 165 112 c 0
 227 112 285 85 325 37 c 0
 327 34 329 31 329 27 c 0
 329 22 327 17 323 14 c 2
 175 -109 l 2
EndSplineSet
EndChar

StartChar: noteheads.d2ti
Encoding: 240 57818 218
Width: 329
Flags: MW
LayerCount: 2
Fore
SplineSet
175 -109 m 2
 172 -111 169 -112 165 -112 c 0
 161 -112 157 -111 154 -109 c 2
 6 14 l 2
 2 17 0 22 0 27 c 0
 0 31 2 34 4 37 c 0
 44 85 103 112 165 112 c 0
 227 112 285 85 325 37 c 0
 327 34 329 31 329 27 c 0
 329 22 327 17 323 14 c 2
 175 -109 l 2
EndSplineSet
EndChar

StartChar: noteheads.s0tiThin
Encoding: 241 57819 219
Width: 329
Flags: MW
LayerCount: 2
Fore
SplineSet
165 -80 m 1
 300 17 l 1
 266 57 217 80 165 80 c 0
 113 80 63 57 29 17 c 1
 165 -80 l 1
175 -109 m 2
 172 -111 169 -112 165 -112 c 0
 161 -112 157 -111 154 -109 c 2
 6 14 l 2
 2 17 0 22 0 27 c 0
 0 31 2 34 4 37 c 0
 44 85 103 112 165 112 c 0
 227 112 285 85 325 37 c 0
 327 34 329 31 329 27 c 0
 329 22 327 17 323 14 c 2
 175 -109 l 2
EndSplineSet
EndChar

StartChar: noteheads.u1tiThin
Encoding: 242 57820 220
Width: 329
Flags: MW
LayerCount: 2
Fore
SplineSet
165 -80 m 1
 300 17 l 1
 266 57 217 80 165 80 c 0
 113 80 63 57 29 17 c 1
 165 -80 l 1
175 -109 m 2
 172 -111 169 -112 165 -112 c 0
 161 -112 157 -111 154 -109 c 2
 6 14 l 2
 2 17 0 22 0 27 c 0
 0 31 2 34 4 37 c 0
 44 85 103 112 165 112 c 0
 227 112 285 85 325 37 c 0
 327 34 329 31 329 27 c 0
 329 22 327 17 323 14 c 2
 175 -109 l 2
EndSplineSet
EndChar

StartChar: noteheads.d1tiThin
Encoding: 243 57821 221
Width: 329
Flags: MW
LayerCount: 2
Fore
SplineSet
165 -80 m 1
 300 17 l 1
 266 57 217 80 165 80 c 0
 113 80 63 57 29 17 c 1
 165 -80 l 1
175 -109 m 2
 172 -111 169 -112 165 -112 c 0
 161 -112 157 -111 154 -109 c 2
 6 14 l 2
 2 17 0 22 0 27 c 0
 0 31 2 34 4 37 c 0
 44 85 103 112 165 112 c 0
 227 112 285 85 325 37 c 0
 327 34 329 31 329 27 c 0
 329 22 327 17 323 14 c 2
 175 -109 l 2
EndSplineSet
EndChar

StartChar: noteheads.u2tiThin
Encoding: 244 57822 222
Width: 329
Flags: MW
LayerCount: 2
Fore
SplineSet
175 -109 m 2
 172 -111 169 -112 165 -112 c 0
 161 -112 157 -111 154 -109 c 2
 6 14 l 2
 2 17 0 22 0 27 c 0
 0 31 2 34 4 37 c 0
 44 85 103 112 165 112 c 0
 227 112 285 85 325 37 c 0
 327 34 329 31 329 27 c 0
 329 22 327 17 323 14 c 2
 175 -109 l 2
EndSplineSet
EndChar

StartChar: noteheads.d2tiThin
Encoding: 245 57823 223
Width: 329
Flags: MW
LayerCount: 2
Fore
SplineSet
175 -109 m 2
 172 -111 169 -112 165 -112 c 0
 161 -112 157 -111 154 -109 c 2
 6 14 l 2
 2 17 0 22 0 27 c 0
 0 31 2 34 4 37 c 0
 44 85 103 112 165 112 c 0
 227 112 285 85 325 37 c 0
 327 34 329 31 329 27 c 0
 329 22 327 17 323 14 c 2
 175 -109 l 2
EndSplineSet
EndChar

StartChar: noteheads.u0doFunk
Encoding: 246 57824 224
Width: 246
Flags: MW
LayerCount: 2
Fore
SplineSet
33 57 m 1
 33 -57 l 1
 115 -57 214 -57 214 0 c 0
 214 57 115 57 33 57 c 1
16 112 m 0
 126 112 247 94 247 0 c 0
 247 -94 126 -113 16 -113 c 0
 7 -113 0 -105 0 -96 c 2
 0 96 l 2
 0 105 7 112 16 112 c 0
EndSplineSet
EndChar

StartChar: noteheads.d0doFunk
Encoding: 247 57825 225
Width: 246
Flags: MW
LayerCount: 2
Fore
SplineSet
214 -57 m 1
 214 57 l 1
 132 57 33 57 33 0 c 0
 33 -57 132 -57 214 -57 c 1
231 -112 m 0
 121 -112 0 -94 0 0 c 0
 0 94 121 113 231 113 c 0
 240 113 247 105 247 96 c 2
 247 -96 l 2
 247 -105 240 -112 231 -112 c 0
EndSplineSet
EndChar

StartChar: noteheads.u1doFunk
Encoding: 248 57826 226
Width: 246
Flags: MW
LayerCount: 2
Fore
SplineSet
33 57 m 1
 33 -57 l 1
 115 -57 214 -57 214 0 c 0
 214 57 115 57 33 57 c 1
16 112 m 0
 126 112 247 94 247 0 c 0
 247 -94 126 -113 16 -113 c 0
 7 -113 0 -105 0 -96 c 2
 0 96 l 2
 0 105 7 112 16 112 c 0
EndSplineSet
EndChar

StartChar: noteheads.d1doFunk
Encoding: 249 57827 227
Width: 246
Flags: MW
LayerCount: 2
Fore
SplineSet
214 -57 m 1
 214 57 l 1
 132 57 33 57 33 0 c 0
 33 -57 132 -57 214 -57 c 1
231 -112 m 0
 121 -112 0 -94 0 0 c 0
 0 94 121 113 231 113 c 0
 240 113 247 105 247 96 c 2
 247 -96 l 2
 247 -105 240 -112 231 -112 c 0
EndSplineSet
EndChar

StartChar: noteheads.u2doFunk
Encoding: 250 57828 228
Width: 246
Flags: MW
LayerCount: 2
Fore
SplineSet
16 112 m 0
 126 112 247 94 247 0 c 0
 247 -94 126 -113 16 -113 c 0
 7 -113 0 -105 0 -96 c 2
 0 96 l 2
 0 105 7 112 16 112 c 0
EndSplineSet
EndChar

StartChar: noteheads.d2doFunk
Encoding: 251 57829 229
Width: 246
Flags: MW
LayerCount: 2
Fore
SplineSet
231 -112 m 0
 121 -112 0 -94 0 0 c 0
 0 94 121 113 231 113 c 0
 240 113 247 105 247 96 c 2
 247 -96 l 2
 247 -105 240 -112 231 -112 c 0
EndSplineSet
EndChar

StartChar: noteheads.u0reFunk
Encoding: 252 57830 230
Width: 246
Flags: MW
LayerCount: 2
Fore
SplineSet
180 0 m 1
 50 44 l 1
 53 30 54 15 54 0 c 0
 54 -15 53 -30 50 -44 c 1
 180 0 l 1
237 15 m 2
 243 12 247 6 247 0 c 0
 247 -6 243 -12 237 -15 c 2
 23 -111 l 2
 21 -112 18 -112 16 -112 c 0
 7 -112 0 -105 0 -96 c 0
 0 -94 1 -91 2 -89 c 0
 12 -60 21 -31 21 0 c 0
 21 31 12 60 2 89 c 0
 1 91 0 94 0 96 c 0
 0 105 7 112 16 112 c 0
 18 112 21 112 23 111 c 2
 237 15 l 2
EndSplineSet
EndChar

StartChar: noteheads.d0reFunk
Encoding: 253 57831 231
Width: 246
Flags: MW
LayerCount: 2
Fore
SplineSet
67 0 m 1
 197 -44 l 1
 194 -30 193 -15 193 0 c 0
 193 15 194 30 197 44 c 1
 67 0 l 1
10 -15 m 2
 4 -12 0 -6 0 0 c 0
 0 6 4 12 10 15 c 2
 224 111 l 2
 226 112 229 112 231 112 c 0
 240 112 247 105 247 96 c 0
 247 94 246 91 245 89 c 0
 235 60 225 31 225 0 c 0
 225 -31 235 -60 245 -89 c 0
 246 -91 247 -94 247 -96 c 0
 247 -105 240 -112 231 -112 c 0
 229 -112 226 -112 224 -111 c 2
 10 -15 l 2
EndSplineSet
EndChar

StartChar: noteheads.u1reFunk
Encoding: 254 57832 232
Width: 246
Flags: MW
LayerCount: 2
Fore
SplineSet
180 0 m 1
 50 44 l 1
 53 30 54 15 54 0 c 0
 54 -15 53 -30 50 -44 c 1
 180 0 l 1
237 15 m 2
 243 12 247 6 247 0 c 0
 247 -6 243 -12 237 -15 c 2
 23 -111 l 2
 21 -112 18 -112 16 -112 c 0
 7 -112 0 -105 0 -96 c 0
 0 -94 1 -91 2 -89 c 0
 12 -60 21 -31 21 0 c 0
 21 31 12 60 2 89 c 0
 1 91 0 94 0 96 c 0
 0 105 7 112 16 112 c 0
 18 112 21 112 23 111 c 2
 237 15 l 2
EndSplineSet
EndChar

StartChar: noteheads.d1reFunk
Encoding: 255 57833 233
Width: 246
Flags: MW
LayerCount: 2
Fore
SplineSet
67 0 m 1
 197 -44 l 1
 194 -30 193 -15 193 0 c 0
 193 15 194 30 197 44 c 1
 67 0 l 1
10 -15 m 2
 4 -12 0 -6 0 0 c 0
 0 6 4 12 10 15 c 2
 224 111 l 2
 226 112 229 112 231 112 c 0
 240 112 247 105 247 96 c 0
 247 94 246 91 245 89 c 0
 235 60 225 31 225 0 c 0
 225 -31 235 -60 245 -89 c 0
 246 -91 247 -94 247 -96 c 0
 247 -105 240 -112 231 -112 c 0
 229 -112 226 -112 224 -111 c 2
 10 -15 l 2
EndSplineSet
EndChar

StartChar: noteheads.u2reFunk
Encoding: 256 57834 234
Width: 246
Flags: MW
LayerCount: 2
Fore
SplineSet
237 15 m 2
 243 12 247 6 247 0 c 0
 247 -6 243 -12 237 -15 c 2
 23 -111 l 2
 21 -112 18 -112 16 -112 c 0
 7 -112 0 -105 0 -96 c 0
 0 -94 1 -91 2 -89 c 0
 12 -60 21 -31 21 0 c 0
 21 31 12 60 2 89 c 0
 1 91 0 94 0 96 c 0
 0 105 7 112 16 112 c 0
 18 112 21 112 23 111 c 2
 237 15 l 2
EndSplineSet
EndChar

StartChar: noteheads.d2reFunk
Encoding: 257 57835 235
Width: 246
Flags: MW
LayerCount: 2
Fore
SplineSet
10 -15 m 2
 4 -12 0 -6 0 0 c 0
 0 6 4 12 10 15 c 2
 224 111 l 2
 226 112 229 112 231 112 c 0
 240 112 247 105 247 96 c 0
 247 94 246 91 245 89 c 0
 235 60 225 31 225 0 c 0
 225 -31 235 -60 245 -89 c 0
 246 -91 247 -94 247 -96 c 0
 247 -105 240 -112 231 -112 c 0
 229 -112 226 -112 224 -111 c 2
 10 -15 l 2
EndSplineSet
EndChar

StartChar: noteheads.u0miFunk
Encoding: 258 57836 236
Width: 296
Flags: MW
LayerCount: 2
Fore
SplineSet
234 -16 m 1
 126 63 l 1
 62 16 l 1
 170 -63 l 1
 234 -16 l 1
6 -12 m 2
 2 -9 0 -5 0 0 c 0
 0 5 2 9 6 12 c 2
 139 110 l 2
 142 112 145 112 148 112 c 0
 151 112 154 112 157 110 c 2
 290 12 l 2
 294 9 296 5 296 0 c 0
 296 -5 294 -9 290 -12 c 2
 157 -110 l 2
 154 -112 151 -112 148 -112 c 0
 145 -112 142 -112 139 -110 c 2
 6 -12 l 2
EndSplineSet
EndChar

StartChar: noteheads.d0miFunk
Encoding: 259 57837 237
Width: 296
Flags: MW
LayerCount: 2
Fore
SplineSet
62 -16 m 1
 126 -63 l 1
 234 16 l 1
 170 63 l 1
 62 -16 l 1
6 -12 m 2
 2 -9 0 -5 0 0 c 0
 0 5 2 9 6 12 c 2
 139 110 l 2
 142 112 145 112 148 112 c 0
 151 112 154 112 157 110 c 2
 290 12 l 2
 294 9 296 5 296 0 c 0
 296 -5 294 -9 290 -12 c 2
 157 -110 l 2
 154 -112 151 -112 148 -112 c 0
 145 -112 142 -112 139 -110 c 2
 6 -12 l 2
EndSplineSet
EndChar

StartChar: noteheads.u1miFunk
Encoding: 260 57838 238
Width: 296
Flags: MW
LayerCount: 2
Fore
SplineSet
234 -16 m 1
 126 63 l 1
 62 16 l 1
 170 -63 l 1
 234 -16 l 1
6 -12 m 2
 2 -9 0 -5 0 0 c 0
 0 5 2 9 6 12 c 2
 139 110 l 2
 142 112 145 112 148 112 c 0
 151 112 154 112 157 110 c 2
 290 12 l 2
 294 9 296 5 296 0 c 0
 296 -5 294 -9 290 -12 c 2
 157 -110 l 2
 154 -112 151 -112 148 -112 c 0
 145 -112 142 -112 139 -110 c 2
 6 -12 l 2
EndSplineSet
EndChar

StartChar: noteheads.d1miFunk
Encoding: 261 57839 239
Width: 296
Flags: MW
LayerCount: 2
Fore
SplineSet
62 -16 m 1
 126 -63 l 1
 234 16 l 1
 170 63 l 1
 62 -16 l 1
6 -12 m 2
 2 -9 0 -5 0 0 c 0
 0 5 2 9 6 12 c 2
 139 110 l 2
 142 112 145 112 148 112 c 0
 151 112 154 112 157 110 c 2
 290 12 l 2
 294 9 296 5 296 0 c 0
 296 -5 294 -9 290 -12 c 2
 157 -110 l 2
 154 -112 151 -112 148 -112 c 0
 145 -112 142 -112 139 -110 c 2
 6 -12 l 2
EndSplineSet
EndChar

StartChar: noteheads.s2miFunk
Encoding: 262 57840 240
Width: 296
Flags: MW
LayerCount: 2
Fore
SplineSet
6 -12 m 2
 2 -9 0 -5 0 0 c 0
 0 5 2 9 6 12 c 2
 139 110 l 2
 142 112 145 112 148 112 c 0
 151 112 154 112 157 110 c 2
 290 12 l 2
 294 9 296 5 296 0 c 0
 296 -5 294 -9 290 -12 c 2
 157 -110 l 2
 154 -112 151 -112 148 -112 c 0
 145 -112 142 -112 139 -110 c 2
 6 -12 l 2
EndSplineSet
EndChar

StartChar: noteheads.u0faFunk
Encoding: 263 57841 241
Width: 246
Flags: MW
LayerCount: 2
Fore
SplineSet
214 51 m 1
 91 51 l 1
 214 -60 l 1
 214 51 l 1
0 96 m 0
 0 105 7 112 16 112 c 2
 231 112 l 2
 240 112 247 105 247 96 c 2
 247 -96 l 2
 247 -105 240 -112 231 -112 c 0
 227 -112 223 -111 220 -108 c 2
 5 84 l 2
 2 87 0 91 0 96 c 0
EndSplineSet
EndChar

StartChar: noteheads.d0faFunk
Encoding: 264 57842 242
Width: 246
Flags: MW
LayerCount: 2
Fore
SplineSet
33 -51 m 1
 156 -51 l 1
 33 60 l 1
 33 -51 l 1
247 -96 m 0
 247 -105 240 -112 231 -112 c 2
 16 -112 l 2
 7 -112 0 -105 0 -96 c 2
 0 96 l 2
 0 105 7 112 16 112 c 0
 20 112 24 111 27 108 c 2
 241 -84 l 2
 244 -87 247 -91 247 -96 c 0
EndSplineSet
EndChar

StartChar: noteheads.u1faFunk
Encoding: 265 57843 243
Width: 246
Flags: MW
LayerCount: 2
Fore
SplineSet
214 51 m 1
 91 51 l 1
 214 -60 l 1
 214 51 l 1
0 96 m 0
 0 105 7 112 16 112 c 2
 231 112 l 2
 240 112 247 105 247 96 c 2
 247 -96 l 2
 247 -105 240 -112 231 -112 c 0
 227 -112 223 -111 220 -108 c 2
 5 84 l 2
 2 87 0 91 0 96 c 0
EndSplineSet
EndChar

StartChar: noteheads.d1faFunk
Encoding: 266 57844 244
Width: 246
Flags: MW
LayerCount: 2
Fore
SplineSet
33 -51 m 1
 156 -51 l 1
 33 60 l 1
 33 -51 l 1
247 -96 m 0
 247 -105 240 -112 231 -112 c 2
 16 -112 l 2
 7 -112 0 -105 0 -96 c 2
 0 96 l 2
 0 105 7 112 16 112 c 0
 20 112 24 111 27 108 c 2
 241 -84 l 2
 244 -87 247 -91 247 -96 c 0
EndSplineSet
EndChar

StartChar: noteheads.u2faFunk
Encoding: 267 57845 245
Width: 246
Flags: MW
LayerCount: 2
Fore
SplineSet
0 96 m 0
 0 105 7 112 16 112 c 2
 231 112 l 2
 240 112 247 105 247 96 c 2
 247 -96 l 2
 247 -105 240 -112 231 -112 c 0
 227 -112 223 -111 220 -108 c 2
 5 84 l 2
 2 87 0 91 0 96 c 0
EndSplineSet
EndChar

StartChar: noteheads.d2faFunk
Encoding: 268 57846 246
Width: 246
Flags: MW
LayerCount: 2
Fore
SplineSet
247 -96 m 0
 247 -105 240 -112 231 -112 c 2
 16 -112 l 2
 7 -112 0 -105 0 -96 c 2
 0 96 l 2
 0 105 7 112 16 112 c 0
 20 112 24 111 27 108 c 2
 241 -84 l 2
 244 -87 247 -91 247 -96 c 0
EndSplineSet
EndChar

StartChar: noteheads.s0solFunk
Encoding: 269 57847 247
Width: 240
Flags: MW
LayerCount: 2
Fore
SplineSet
205 31 m 0
 205 55 184 69 163 69 c 0
 136 69 114 55 93 41 c 0
 70 26 36 5 36 -31 c 0
 36 -55 56 -69 77 -69 c 0
 104 -69 126 -55 147 -41 c 0
 170 -26 205 -5 205 31 c 0
140 112 m 0
 194 112 240 75 240 18 c 0
 240 -55 172 -112 100 -112 c 0
 46 -112 0 -75 0 -18 c 0
 0 55 68 112 140 112 c 0
EndSplineSet
EndChar

StartChar: noteheads.s1solFunk
Encoding: 270 57848 248
Width: 240
Flags: MW
LayerCount: 2
Fore
SplineSet
205 31 m 0
 205 55 184 69 163 69 c 0
 136 69 114 55 93 41 c 0
 70 26 36 5 36 -31 c 0
 36 -55 56 -69 77 -69 c 0
 104 -69 126 -55 147 -41 c 0
 170 -26 205 -5 205 31 c 0
140 112 m 0
 194 112 240 75 240 18 c 0
 240 -55 172 -112 100 -112 c 0
 46 -112 0 -75 0 -18 c 0
 0 55 68 112 140 112 c 0
EndSplineSet
EndChar

StartChar: noteheads.s2solFunk
Encoding: 271 57849 249
Width: 240
Flags: MW
LayerCount: 2
Fore
SplineSet
140 112 m 0
 194 112 240 75 240 18 c 0
 240 -55 172 -112 100 -112 c 0
 46 -112 0 -75 0 -18 c 0
 0 55 68 112 140 112 c 0
EndSplineSet
EndChar

StartChar: noteheads.s0laFunk
Encoding: 272 57850 250
Width: 246
Flags: MW
LayerCount: 2
Fore
SplineSet
33 88 m 1
 33 -88 l 1
 214 -88 l 1
 214 88 l 1
 33 88 l 1
16 112 m 2
 231 112 l 2
 240 112 247 105 247 96 c 2
 247 -96 l 2
 247 -105 240 -113 231 -113 c 2
 16 -113 l 2
 7 -113 0 -105 0 -96 c 2
 0 96 l 2
 0 105 7 112 16 112 c 2
EndSplineSet
EndChar

StartChar: noteheads.s1laFunk
Encoding: 273 57851 251
Width: 246
Flags: MW
LayerCount: 2
Fore
SplineSet
33 88 m 1
 33 -88 l 1
 214 -88 l 1
 214 88 l 1
 33 88 l 1
16 112 m 2
 231 112 l 2
 240 112 247 105 247 96 c 2
 247 -96 l 2
 247 -105 240 -113 231 -113 c 2
 16 -113 l 2
 7 -113 0 -105 0 -96 c 2
 0 96 l 2
 0 105 7 112 16 112 c 2
EndSplineSet
EndChar

StartChar: noteheads.s2laFunk
Encoding: 274 57852 252
Width: 246
Flags: MW
LayerCount: 2
Fore
SplineSet
16 112 m 2
 231 112 l 2
 240 112 247 105 247 96 c 2
 247 -96 l 2
 247 -105 240 -113 231 -113 c 2
 16 -113 l 2
 7 -113 0 -105 0 -96 c 2
 0 96 l 2
 0 105 7 112 16 112 c 2
EndSplineSet
EndChar

StartChar: noteheads.u0tiFunk
Encoding: 275 57853 253
Width: 246
Flags: MW
LayerCount: 2
Fore
SplineSet
190 0 m 1
 50 61 l 1
 39 43 33 22 33 0 c 0
 33 -22 39 -43 50 -61 c 1
 190 0 l 1
238 14 m 2
 243 11 247 6 247 0 c 0
 247 -6 243 -11 238 -14 c 2
 67 -110 l 2
 65 -111 62 -113 60 -113 c 0
 54 -113 49 -108 45 -104 c 0
 16 -77 0 -39 0 0 c 0
 0 39 16 77 45 104 c 0
 49 108 54 113 60 113 c 0
 62 113 65 111 67 110 c 2
 238 14 l 2
EndSplineSet
EndChar

StartChar: noteheads.d0tiFunk
Encoding: 276 57854 254
Width: 246
Flags: MW
LayerCount: 2
Fore
SplineSet
57 0 m 1
 197 -61 l 1
 208 -43 214 -22 214 0 c 0
 214 22 208 43 197 61 c 1
 57 0 l 1
8 -14 m 2
 3 -11 0 -6 0 0 c 0
 0 6 3 11 8 14 c 2
 180 110 l 2
 182 111 185 113 187 113 c 0
 193 113 198 108 202 104 c 0
 231 77 247 39 247 0 c 0
 247 -39 231 -77 202 -104 c 0
 198 -108 193 -113 187 -113 c 0
 185 -113 182 -111 180 -110 c 2
 8 -14 l 2
EndSplineSet
EndChar

StartChar: noteheads.u1tiFunk
Encoding: 277 57855 255
Width: 246
Flags: MW
LayerCount: 2
Fore
SplineSet
190 0 m 1
 50 61 l 1
 39 43 33 22 33 0 c 0
 33 -22 39 -43 50 -61 c 1
 190 0 l 1
238 14 m 2
 243 11 247 6 247 0 c 0
 247 -6 243 -11 238 -14 c 2
 67 -110 l 2
 65 -111 62 -113 60 -113 c 0
 54 -113 49 -108 45 -104 c 0
 16 -77 0 -39 0 0 c 0
 0 39 16 77 45 104 c 0
 49 108 54 113 60 113 c 0
 62 113 65 111 67 110 c 2
 238 14 l 2
EndSplineSet
EndChar

StartChar: noteheads.d1tiFunk
Encoding: 278 57856 256
Width: 246
Flags: MW
LayerCount: 2
Fore
SplineSet
57 0 m 1
 197 -61 l 1
 208 -43 214 -22 214 0 c 0
 214 22 208 43 197 61 c 1
 57 0 l 1
8 -14 m 2
 3 -11 0 -6 0 0 c 0
 0 6 3 11 8 14 c 2
 180 110 l 2
 182 111 185 113 187 113 c 0
 193 113 198 108 202 104 c 0
 231 77 247 39 247 0 c 0
 247 -39 231 -77 202 -104 c 0
 198 -108 193 -113 187 -113 c 0
 185 -113 182 -111 180 -110 c 2
 8 -14 l 2
EndSplineSet
EndChar

StartChar: noteheads.u2tiFunk
Encoding: 279 57857 257
Width: 246
Flags: MW
LayerCount: 2
Fore
SplineSet
238 14 m 2
 243 11 247 6 247 0 c 0
 247 -6 243 -11 238 -14 c 2
 67 -110 l 2
 65 -111 62 -113 60 -113 c 0
 54 -113 49 -108 45 -104 c 0
 16 -77 0 -39 0 0 c 0
 0 39 16 77 45 104 c 0
 49 108 54 113 60 113 c 0
 62 113 65 111 67 110 c 2
 238 14 l 2
EndSplineSet
EndChar

StartChar: noteheads.d2tiFunk
Encoding: 280 57858 258
Width: 246
Flags: MW
LayerCount: 2
Fore
SplineSet
8 -14 m 2
 3 -11 0 -6 0 0 c 0
 0 6 3 11 8 14 c 2
 180 110 l 2
 182 111 185 113 187 113 c 0
 193 113 198 108 202 104 c 0
 231 77 247 39 247 0 c 0
 247 -39 231 -77 202 -104 c 0
 198 -108 193 -113 187 -113 c 0
 185 -113 182 -111 180 -110 c 2
 8 -14 l 2
EndSplineSet
EndChar

StartChar: noteheads.s0doWalker
Encoding: 281 57859 259
Width: 246
Flags: MW
LayerCount: 2
Fore
SplineSet
78 64 m 1
 42 -64 l 1
 205 -64 l 1
 169 64 l 1
 78 64 l 1
70 112 m 2
 177 112 l 2
 184 112 191 108 193 101 c 2
 246 -92 l 2
 246 -93 247 -95 247 -96 c 0
 247 -105 240 -112 231 -112 c 2
 16 -112 l 2
 7 -112 0 -105 0 -96 c 0
 0 -95 1 -93 1 -92 c 2
 54 101 l 2
 56 108 63 112 70 112 c 2
EndSplineSet
EndChar

StartChar: noteheads.u1doWalker
Encoding: 282 57860 260
Width: 246
Flags: MW
LayerCount: 2
Fore
SplineSet
169 -64 m 1
 205 64 l 1
 42 64 l 1
 78 -64 l 1
 169 -64 l 1
177 -112 m 2
 70 -112 l 2
 63 -112 56 -108 54 -101 c 2
 1 92 l 2
 1 93 0 95 0 96 c 0
 0 105 7 112 16 112 c 2
 231 112 l 2
 240 112 247 105 247 96 c 0
 247 95 246 93 246 92 c 2
 193 -101 l 2
 191 -108 184 -112 177 -112 c 2
EndSplineSet
EndChar

StartChar: noteheads.d1doWalker
Encoding: 283 57861 261
Width: 246
Flags: MW
LayerCount: 2
Fore
SplineSet
78 64 m 1
 42 -64 l 1
 205 -64 l 1
 169 64 l 1
 78 64 l 1
70 112 m 2
 177 112 l 2
 184 112 191 108 193 101 c 2
 246 -92 l 2
 246 -93 247 -95 247 -96 c 0
 247 -105 240 -112 231 -112 c 2
 16 -112 l 2
 7 -112 0 -105 0 -96 c 0
 0 -95 1 -93 1 -92 c 2
 54 101 l 2
 56 108 63 112 70 112 c 2
EndSplineSet
EndChar

StartChar: noteheads.u2doWalker
Encoding: 284 57862 262
Width: 246
Flags: MW
LayerCount: 2
Fore
SplineSet
177 -112 m 2
 70 -112 l 2
 63 -112 56 -108 54 -101 c 2
 1 92 l 2
 1 93 0 95 0 96 c 0
 0 105 7 112 16 112 c 2
 231 112 l 2
 240 112 247 105 247 96 c 0
 247 95 246 93 246 92 c 2
 193 -101 l 2
 191 -108 184 -112 177 -112 c 2
EndSplineSet
EndChar

StartChar: noteheads.d2doWalker
Encoding: 285 57863 263
Width: 246
Flags: MW
LayerCount: 2
Fore
SplineSet
70 112 m 2
 177 112 l 2
 184 112 191 108 193 101 c 2
 246 -92 l 2
 246 -93 247 -95 247 -96 c 0
 247 -105 240 -112 231 -112 c 2
 16 -112 l 2
 7 -112 0 -105 0 -96 c 0
 0 -95 1 -93 1 -92 c 2
 54 101 l 2
 56 108 63 112 70 112 c 2
EndSplineSet
EndChar

StartChar: noteheads.s0reWalker
Encoding: 286 57864 264
Width: 246
Flags: MW
LayerCount: 2
Fore
SplineSet
33 0 m 0
 33 -67 119 -74 197 -74 c 1
 177 -56 171 -27 171 0 c 0
 171 27 177 56 197 74 c 1
 119 74 33 67 33 0 c 0
0 0 m 0
 0 94 121 113 231 113 c 0
 240 113 247 105 247 96 c 0
 247 91 244 87 241 84 c 0
 217 63 204 32 204 0 c 0
 204 -32 217 -63 241 -84 c 0
 244 -87 247 -91 247 -96 c 0
 247 -105 240 -112 231 -112 c 0
 121 -112 0 -94 0 0 c 0
EndSplineSet
EndChar

StartChar: noteheads.u1reWalker
Encoding: 287 57865 265
Width: 246
Flags: MW
LayerCount: 2
Fore
SplineSet
214 0 m 0
 214 67 128 74 50 74 c 1
 70 56 75 27 75 0 c 0
 75 -27 70 -56 50 -74 c 1
 128 -74 214 -67 214 0 c 0
247 0 m 0
 247 -94 126 -113 16 -113 c 0
 7 -113 0 -105 0 -96 c 0
 0 -91 2 -87 5 -84 c 0
 29 -63 43 -32 43 0 c 0
 43 32 29 63 5 84 c 0
 2 87 0 91 0 96 c 0
 0 105 7 112 16 112 c 0
 126 112 247 94 247 0 c 0
EndSplineSet
EndChar

StartChar: noteheads.d1reWalker
Encoding: 288 57866 266
Width: 246
Flags: MW
LayerCount: 2
Fore
SplineSet
33 0 m 0
 33 -67 119 -74 197 -74 c 1
 177 -56 171 -27 171 0 c 0
 171 27 177 56 197 74 c 1
 119 74 33 67 33 0 c 0
0 0 m 0
 0 94 121 113 231 113 c 0
 240 113 247 105 247 96 c 0
 247 91 244 87 241 84 c 0
 217 63 204 32 204 0 c 0
 204 -32 217 -63 241 -84 c 0
 244 -87 247 -91 247 -96 c 0
 247 -105 240 -112 231 -112 c 0
 121 -112 0 -94 0 0 c 0
EndSplineSet
EndChar

StartChar: noteheads.u2reWalker
Encoding: 289 57867 267
Width: 246
Flags: MW
LayerCount: 2
Fore
SplineSet
247 0 m 0
 247 -94 126 -113 16 -113 c 0
 7 -113 0 -105 0 -96 c 0
 0 -91 2 -87 5 -84 c 0
 29 -63 43 -32 43 0 c 0
 43 32 29 63 5 84 c 0
 2 87 0 91 0 96 c 0
 0 105 7 112 16 112 c 0
 126 112 247 94 247 0 c 0
EndSplineSet
EndChar

StartChar: noteheads.d2reWalker
Encoding: 290 57868 268
Width: 246
Flags: MW
LayerCount: 2
Fore
SplineSet
0 0 m 0
 0 94 121 113 231 113 c 0
 240 113 247 105 247 96 c 0
 247 91 244 87 241 84 c 0
 217 63 204 32 204 0 c 0
 204 -32 217 -63 241 -84 c 0
 244 -87 247 -91 247 -96 c 0
 247 -105 240 -112 231 -112 c 0
 121 -112 0 -94 0 0 c 0
EndSplineSet
EndChar

StartChar: noteheads.s0miWalker
Encoding: 291 57869 269
Width: 296
Flags: MW
LayerCount: 2
Fore
SplineSet
58 -10 m 1
 134 -66 l 1
 239 10 l 1
 162 66 l 1
 58 -10 l 1
7 -13 m 2
 3 -10 0 -5 0 0 c 0
 0 5 3 10 7 13 c 2
 138 109 l 2
 141 111 145 112 148 112 c 0
 151 112 155 111 158 109 c 2
 289 13 l 2
 293 10 296 5 296 0 c 0
 296 -5 293 -10 289 -13 c 2
 158 -109 l 2
 155 -111 151 -112 148 -112 c 0
 145 -112 141 -111 138 -109 c 2
 7 -13 l 2
EndSplineSet
EndChar

StartChar: noteheads.s1miWalker
Encoding: 292 57870 270
Width: 296
Flags: MW
LayerCount: 2
Fore
SplineSet
58 -10 m 1
 134 -66 l 1
 239 10 l 1
 162 66 l 1
 58 -10 l 1
7 -13 m 2
 3 -10 0 -5 0 0 c 0
 0 5 3 10 7 13 c 2
 138 109 l 2
 141 111 145 112 148 112 c 0
 151 112 155 111 158 109 c 2
 289 13 l 2
 293 10 296 5 296 0 c 0
 296 -5 293 -10 289 -13 c 2
 158 -109 l 2
 155 -111 151 -112 148 -112 c 0
 145 -112 141 -111 138 -109 c 2
 7 -13 l 2
EndSplineSet
EndChar

StartChar: noteheads.s2miWalker
Encoding: 293 57871 271
Width: 296
Flags: MW
LayerCount: 2
Fore
SplineSet
7 -13 m 2
 3 -10 0 -5 0 0 c 0
 0 5 3 10 7 13 c 2
 138 109 l 2
 141 111 145 112 148 112 c 0
 151 112 155 111 158 109 c 2
 289 13 l 2
 293 10 296 5 296 0 c 0
 296 -5 293 -10 289 -13 c 2
 158 -109 l 2
 155 -111 151 -112 148 -112 c 0
 145 -112 141 -111 138 -109 c 2
 7 -13 l 2
EndSplineSet
EndChar

StartChar: noteheads.s0faWalker
Encoding: 294 57872 272
Width: 246
Flags: MW
LayerCount: 2
Fore
SplineSet
33 -64 m 1
 170 -64 l 1
 33 60 l 1
 33 -64 l 1
247 -96 m 0
 247 -105 240 -112 231 -112 c 2
 16 -112 l 2
 7 -112 0 -105 0 -96 c 2
 0 96 l 2
 0 105 7 112 16 112 c 0
 20 112 24 111 27 108 c 2
 241 -84 l 2
 244 -87 247 -91 247 -96 c 0
EndSplineSet
EndChar

StartChar: noteheads.u1faWalker
Encoding: 295 57873 273
Width: 246
Flags: MW
LayerCount: 2
Fore
SplineSet
214 64 m 1
 77 64 l 1
 214 -60 l 1
 214 64 l 1
0 96 m 0
 0 105 7 112 16 112 c 2
 231 112 l 2
 240 112 247 105 247 96 c 2
 247 -96 l 2
 247 -105 240 -112 231 -112 c 0
 227 -112 223 -111 220 -108 c 2
 5 84 l 2
 2 87 0 91 0 96 c 0
EndSplineSet
EndChar

StartChar: noteheads.d1faWalker
Encoding: 296 57874 274
Width: 246
Flags: MW
LayerCount: 2
Fore
SplineSet
33 -64 m 1
 170 -64 l 1
 33 60 l 1
 33 -64 l 1
247 -96 m 0
 247 -105 240 -112 231 -112 c 2
 16 -112 l 2
 7 -112 0 -105 0 -96 c 2
 0 96 l 2
 0 105 7 112 16 112 c 0
 20 112 24 111 27 108 c 2
 241 -84 l 2
 244 -87 247 -91 247 -96 c 0
EndSplineSet
EndChar

StartChar: noteheads.u2faWalker
Encoding: 297 57875 275
Width: 246
Flags: MW
LayerCount: 2
Fore
SplineSet
0 96 m 0
 0 105 7 112 16 112 c 2
 231 112 l 2
 240 112 247 105 247 96 c 2
 247 -96 l 2
 247 -105 240 -112 231 -112 c 0
 227 -112 223 -111 220 -108 c 2
 5 84 l 2
 2 87 0 91 0 96 c 0
EndSplineSet
EndChar

StartChar: noteheads.d2faWalker
Encoding: 298 57876 276
Width: 246
Flags: MW
LayerCount: 2
Fore
SplineSet
247 -96 m 0
 247 -105 240 -112 231 -112 c 2
 16 -112 l 2
 7 -112 0 -105 0 -96 c 2
 0 96 l 2
 0 105 7 112 16 112 c 0
 20 112 24 111 27 108 c 2
 241 -84 l 2
 244 -87 247 -91 247 -96 c 0
EndSplineSet
EndChar

StartChar: noteheads.s0laWalker
Encoding: 299 57877 277
Width: 246
Flags: MW
LayerCount: 2
Fore
SplineSet
33 64 m 1
 33 -64 l 1
 214 -64 l 1
 214 64 l 1
 33 64 l 1
16 112 m 2
 231 112 l 2
 240 112 247 105 247 96 c 2
 247 -96 l 2
 247 -105 240 -113 231 -113 c 2
 16 -113 l 2
 7 -113 0 -105 0 -96 c 2
 0 96 l 2
 0 105 7 112 16 112 c 2
EndSplineSet
EndChar

StartChar: noteheads.s1laWalker
Encoding: 300 57878 278
Width: 246
Flags: MW
LayerCount: 2
Fore
SplineSet
33 64 m 1
 33 -64 l 1
 214 -64 l 1
 214 64 l 1
 33 64 l 1
16 112 m 2
 231 112 l 2
 240 112 247 105 247 96 c 2
 247 -96 l 2
 247 -105 240 -113 231 -113 c 2
 16 -113 l 2
 7 -113 0 -105 0 -96 c 2
 0 96 l 2
 0 105 7 112 16 112 c 2
EndSplineSet
EndChar

StartChar: noteheads.s2laWalker
Encoding: 301 57879 279
Width: 246
Flags: MW
LayerCount: 2
Fore
SplineSet
16 112 m 2
 231 112 l 2
 240 112 247 105 247 96 c 2
 247 -96 l 2
 247 -105 240 -113 231 -113 c 2
 16 -113 l 2
 7 -113 0 -105 0 -96 c 2
 0 96 l 2
 0 105 7 112 16 112 c 2
EndSplineSet
EndChar

StartChar: noteheads.s0tiWalker
Encoding: 302 57880 280
Width: 246
Flags: MW
LayerCount: 2
Fore
SplineSet
88 0 m 1
 214 -57 l 1
 214 57 l 1
 88 0 l 1
10 -15 m 2
 4 -12 0 -6 0 0 c 0
 0 6 4 12 10 15 c 2
 224 111 l 2
 226 112 229 112 231 112 c 0
 240 112 247 105 247 96 c 2
 247 -96 l 2
 247 -105 240 -112 231 -112 c 0
 229 -112 226 -112 224 -111 c 2
 10 -15 l 2
EndSplineSet
EndChar

StartChar: noteheads.u1tiWalker
Encoding: 303 57881 281
Width: 246
Flags: MW
LayerCount: 2
Fore
SplineSet
159 0 m 1
 33 57 l 1
 33 -57 l 1
 159 0 l 1
237 15 m 2
 243 12 247 6 247 0 c 0
 247 -6 243 -12 237 -15 c 2
 23 -111 l 2
 21 -112 18 -112 16 -112 c 0
 7 -112 0 -105 0 -96 c 2
 0 96 l 2
 0 105 7 112 16 112 c 0
 18 112 21 112 23 111 c 2
 237 15 l 2
EndSplineSet
EndChar

StartChar: noteheads.d1tiWalker
Encoding: 304 57882 282
Width: 246
Flags: MW
LayerCount: 2
Fore
SplineSet
88 0 m 1
 214 -57 l 1
 214 57 l 1
 88 0 l 1
10 -15 m 2
 4 -12 0 -6 0 0 c 0
 0 6 4 12 10 15 c 2
 224 111 l 2
 226 112 229 112 231 112 c 0
 240 112 247 105 247 96 c 2
 247 -96 l 2
 247 -105 240 -112 231 -112 c 0
 229 -112 226 -112 224 -111 c 2
 10 -15 l 2
EndSplineSet
EndChar

StartChar: noteheads.u2tiWalker
Encoding: 305 57883 283
Width: 246
Flags: MW
LayerCount: 2
Fore
SplineSet
237 15 m 2
 243 12 247 6 247 0 c 0
 247 -6 243 -12 237 -15 c 2
 23 -111 l 2
 21 -112 18 -112 16 -112 c 0
 7 -112 0 -105 0 -96 c 2
 0 96 l 2
 0 105 7 112 16 112 c 0
 18 112 21 112 23 111 c 2
 237 15 l 2
EndSplineSet
EndChar

StartChar: noteheads.d2tiWalker
Encoding: 306 57884 284
Width: 246
Flags: MW
LayerCount: 2
Fore
SplineSet
10 -15 m 2
 4 -12 0 -6 0 0 c 0
 0 6 4 12 10 15 c 2
 224 111 l 2
 226 112 229 112 231 112 c 0
 240 112 247 105 247 96 c 2
 247 -96 l 2
 247 -105 240 -112 231 -112 c 0
 229 -112 226 -112 224 -111 c 2
 10 -15 l 2
EndSplineSet
EndChar

StartChar: flags.u3
Encoding: 307 57885 285
Width: 224
Flags: MW
LayerCount: 2
Fore
SplineSet
0 -250.95703125 m 1
 0 0 l 1
 16 -96 58 -182 109 -261 c 0
 172 -361 224 -479 224 -604 c 0
 224 -682 198 -777 198 -777 c 2
 193 -794 176 -800 170 -796 c 0
 164 -792 154 -783 154 -767 c 0
 154 -763 155 -758 157 -752 c 0
 174 -707 181 -660 181 -615 c 0
 181 -556 172 -499 157 -465 c 0
 127.814453125 -396.08984375 59.8515625 -293.66015625 0 -250.95703125 c 1
EndSplineSet
EndChar

StartChar: flags.u4
Encoding: 308 57886 286
Width: 242
Flags: MW
LayerCount: 2
Fore
SplineSet
0 -386.666015625 m 1
 0 0 l 1
 17 -106 73 -122 127 -180 c 0
 199 -258 225 -286 235 -354 c 0
 237 -366 238 -377 238 -390 c 0
 238 -451 216 -511 213 -517 c 0
 212 -520 212 -522 212 -524 c 0
 212 -528 213 -530 213 -533 c 0
 231 -570 242 -611 242 -653 c 2
 242 -675 l 2
 242 -723 239 -780 235 -785 c 0
 229 -798 222 -802 215 -802 c 0
 201 -802 193 -789 193 -776 c 0
 193 -773 193 -771 194 -767 c 0
 199 -737 202 -707 202 -678 c 0
 202 -626 193 -577 170 -529 c 0
 112.607421875 -412.55078125 53.830078125 -391.578125 0 -386.666015625 c 1
17 -206 m 2
 9 -206 3 -212 3 -216 c 0
 3 -217 3 -218 4 -219 c 0
 25 -301 71 -325 118 -379 c 0
 139 -403 156 -423 172 -448 c 0
 174 -451 176 -452 179 -452 c 0
 184 -452 191 -449 192 -446 c 0
 197 -438 197 -428 199 -420 c 0
 200 -413 200 -407 200 -400 c 0
 200 -368 191 -337 173 -311 c 0
 140 -262 86 -206 25 -206 c 2
 17 -206 l 2
EndSplineSet
EndChar

StartChar: flags.u5
Encoding: 309 57887 287
Width: 229
Flags: MW
LayerCount: 2
Fore
SplineSet
0 -554.364257812 m 1
 0 0 l 1
 17 -100 71 -116 121 -170 c 0
 188 -243 211 -270 222 -331 c 0
 224 -340 224 -349 224 -359 c 0
 224 -398 213 -439 204 -465 c 1
 218 -494 225 -526 225 -558 c 0
 225 -615 204 -670 202 -677 c 0
 201 -679 201 -681 201 -683 c 0
 201 -686 201 -688 202 -690 c 0
 217 -726 226 -764 228 -803 c 0
 228 -812 229 -821 229 -831 c 0
 229 -874 225 -920 222 -926 c 0
 215 -937 208 -942 202 -942 c 0
 200 -942 198 -941 196 -940 c 0
 189 -937 183 -928 183 -916 c 0
 183 -914 184 -912 184 -909 c 0
 189 -880 192 -852 192 -824 c 0
 192 -776 183 -731 161 -687 c 0
 106.739257812 -576.783203125 51.2099609375 -554.364257812 0 -554.364257812 c 1
176 -311 m 0
 121 -218 62 -194 7 -194 c 1
 23 -291 72 -308 121 -362 c 0
 144 -387 162 -406 176 -424 c 1
 181 -407 186 -390 188 -380 c 0
 189 -373 191 -367 191 -359 c 0
 191 -346 187 -331 176 -311 c 0
6 -398 m 0
 26 -475 70 -496 113 -547 c 1
 118 -552 l 2
 135 -572 149 -589 164 -611 c 0
 165 -614 168 -615 171 -615 c 0
 176 -615 181 -612 182 -609 c 0
 185 -602 185 -594 187 -586 c 0
 188 -578 189 -570 189 -562 c 0
 189 -481 99 -385 19 -385 c 0
 13 -386 6 -397 6 -398 c 0
EndSplineSet
EndChar

StartChar: flags.u6
Encoding: 310 57888 288
Width: 229
Flags: MW
LayerCount: 2
Fore
SplineSet
0 0 m 1
 17 -100 71 -116 121 -170 c 0
 188 -243 211 -270 222 -331 c 0
 223 -340 224 -349 224 -358 c 0
 224 -400 211 -444 202 -469 c 1
 217 -496 224 -527 224 -557 c 0
 224 -596 213 -637 204 -663 c 1
 218 -692 225 -724 225 -756 c 0
 225 -813 204 -868 202 -875 c 0
 201 -877 201 -879 201 -881 c 0
 201 -884 201 -886 202 -888 c 0
 217 -924 226 -962 228 -1001 c 0
 228 -1010 229 -1019 229 -1029 c 0
 229 -1072 225 -1118 222 -1124 c 0
 215 -1135 208 -1140 202 -1140 c 0
 200 -1140 198 -1139 196 -1138 c 0
 189 -1135 183 -1126 183 -1114 c 0
 183 -1112 184 -1110 184 -1107 c 0
 189 -1078 192 -1050 192 -1022 c 0
 192 -974 183 -929 161 -885 c 0
 106.739257812 -774.783203125 51.0419921875 -756.573242188 0 -752.364257812 c 1
 0 0 l 1
7 -194 m 1
 8 -195 8 -197 8 -198 c 0
 25 -298 71 -314 121 -368 c 0
 144 -393 161 -412 175 -429 c 1
 188 -380 l 2
 189 -373 191 -367 191 -359 c 0
 191 -346 187 -331 176 -311 c 0
 121 -219 64 -194 7 -194 c 1
176 -509 m 0
 121 -416 62 -392 7 -392 c 1
 23 -489 72 -506 121 -560 c 0
 144 -585 162 -604 176 -622 c 1
 181 -605 186 -588 188 -578 c 0
 189 -571 191 -565 191 -557 c 0
 191 -544 187 -529 176 -509 c 0
6 -596 m 0
 26 -673 70 -694 113 -745 c 1
 118 -750 l 2
 135 -770 149 -787 164 -809 c 0
 165 -812 168 -813 171 -813 c 0
 176 -813 181 -810 182 -807 c 0
 185 -800 185 -792 187 -784 c 0
 188 -776 189 -768 189 -760 c 0
 189 -679 99 -583 19 -583 c 0
 13 -584 6 -595 6 -596 c 0
EndSplineSet
EndChar

StartChar: flags.u7
Encoding: -1 57889 289
Width: 229
VWidth: 991
Flags: MW
HStem: -20 20G<0 8.5>
VStem: 0 6<-792.468 -777.171 -393.133 -380.048> 183 39<-1325.98 -1217.02> 191 33<-1299.91 -1104.22 -995.437 -887.542 -807.444 -694.354 -614.513 -495.929 -419.205 -310.284>
LayerCount: 2
Fore
SplineSet
0 0 m 4xe0
 17 -100 71 -116 121 -170 c 4
 188 -243 211 -270 222 -331 c 4xe0
 224 -340 224 -350 224 -360 c 4xd0
 224 -398 214 -437 205 -462 c 5
 213 -479 218 -496 222 -517 c 4xe0
 223 -526 224 -535 224 -544 c 4
 224 -586 211 -630 202 -655 c 5
 217 -682 224 -713 224 -743 c 4xd0
 224 -782 213 -823 204 -849 c 5
 218 -878 225 -910 225 -942 c 4
 225 -999 204 -1054 202 -1061 c 4
 201 -1063 201 -1065 201 -1067 c 4
 201 -1070 201 -1072 202 -1074 c 4
 217 -1110 226 -1148 228 -1187 c 4
 228 -1196 229 -1205 229 -1215 c 4
 229 -1258 225 -1304 222 -1310 c 4
 215 -1321 208 -1326 202 -1326 c 4
 200 -1326 198 -1325 196 -1324 c 4
 189 -1321 183 -1312 183 -1300 c 4
 183 -1298 184 -1296 184 -1293 c 4
 189 -1264 192 -1236 192 -1208 c 4
 192 -1160 183 -1115 161 -1071 c 4
 106.739257812 -960.783203125 51.0419921875 -942.573242188 0 -938.364257812 c 4
 0 0 l 4xe0
176 -497 m 4
 121 -405 63 -380 6 -380 c 5
 7 -381 7 -383 7 -384 c 4
 24 -484 71 -500 121 -554 c 4
 144 -579 161 -598 175 -615 c 5
 188 -566 l 6
 189 -559 191 -553 191 -545 c 4xd0
 191 -532 187 -517 176 -497 c 4
176 -695 m 4
 121 -602 62 -578 7 -578 c 5
 23 -675 72 -692 121 -746 c 4
 144 -771 162 -790 176 -808 c 5
 181 -791 186 -774 188 -764 c 4
 189 -757 191 -751 191 -743 c 4
 191 -730 187 -715 176 -695 c 4
6 -782 m 4
 26 -859 70 -880 113 -931 c 5
 118 -936 l 6
 135 -956 149 -973 164 -995 c 4
 165 -998 168 -999 171 -999 c 4
 176 -999 181 -996 182 -993 c 4
 185 -986 185 -978 187 -970 c 4
 188 -962 189 -954 189 -946 c 4
 189 -865 99 -769 19 -769 c 4
 13 -770 6 -781 6 -782 c 4
176 -311 m 4
 121 -218 61 -194 6 -194 c 5
 23 -287 73 -303 121 -356 c 4
 145 -382 163 -402 177 -420 c 5
 182 -404 186 -389 188 -380 c 4
 189 -373 191 -367 191 -359 c 4
 191 -346 187 -331 176 -311 c 4
EndSplineSet
EndChar

StartChar: flags.d3
Encoding: 312 57890 290
Width: 266
Flags: MW
LayerCount: 2
Fore
SplineSet
0 243.544921875 m 1
 104.491210938 290.268554688 147.936523438 362.936523438 181 438 c 0
 196 472 221 556 221 615 c 0
 221 660 214 710 200 752 c 0
 190 781 207 800 222 800 c 0
 229 800 235 796 238 785 c 0
 246 753 266 682 266 604 c 0
 266 479 205 360 142 261 c 0
 91 182 17 95 0 0 c 1
 0 243.544921875 l 1
EndSplineSet
EndChar

StartChar: flags.d4
Encoding: 313 57891 291
Width: 254
Flags: MW
LayerCount: 2
Fore
SplineSet
0 385.673828125 m 1
 56.3232421875 390.694335938 122.349609375 412.029296875 180 529 c 0
 203 577 212 630 212 683 c 0
 212 716 209 750 203 782 c 0
 203 784 202 787 202 789 c 0
 202 801 210 807 220 808 c 2
 223 808 l 2
 233 808 239 807 244 786 c 0
 250 755 254 721 254 687 c 0
 254 633 245 579 223 533 c 0
 223 530 222 528 222 524 c 0
 222 521 222 519 223 517 c 0
 226 511 248 451 248 390 c 0
 248 377 247 365 245 354 c 0
 221 197 24 154 0 0 c 1
 0 385.673828125 l 1
3 216 m 0
 3 211 9 206 17 206 c 2
 25 206 l 2
 86 206 150 262 183 311 c 0
 201 337 210 367 210 400 c 0
 210 406 210 413 209 420 c 0
 207 428 207 438 202 445 c 0
 201 449 194 452 189 452 c 0
 186 452 184 451 182 448 c 0
 166 422 149 402 128 379 c 0
 81 324 25 301 4 219 c 0
 3 218 3 217 3 216 c 0
EndSplineSet
EndChar

StartChar: flags.d5
Encoding: 314 57892 292
Width: 240
Flags: MW
LayerCount: 2
Fore
SplineSet
0 583.833007812 m 1
 51.2275390625 588.982421875 105.564453125 610.2734375 168 722 c 0
 191 763 199 792 199 820 c 0
 199 854 187 885 179 930 c 0
 179 933 178 935 178 937 c 0
 178 950 185 960 192 963 c 0
 194 964 196 964 198 964 c 0
 233 964 240 848 240 828 c 2
 240 817 l 1
 236 753 231 742 218 717 c 2
 214 710 l 2
 212 707 211 705 211 703 c 0
 211 700 214 697 214 694 c 0
 218 684 234 641 234 589 c 0
 234 555 227 517 211 488 c 1
 220 461 233 417 233 374 c 0
 233 364 233 354 231 345 c 0
 220 281 196 253 126 177 c 0
 74 120 17 104 0 0 c 1
 0 583.833007812 l 1
6 205 m 0
 6 204 6 203 8 202 c 0
 65 202 126 228 183 324 c 0
 195 345 199 361 199 374 c 0
 199 382 197 388 196 395 c 0
 193 406 188 427 182 446 c 1
 168 428 150 408 126 382 c 0
 74 325 23 309 6 205 c 0
6 420 m 0
 6 415 10 407 19 407 c 2
 24 407 l 2
 105 407 197 510 197 592 c 0
 197 600 196 609 195 617 c 0
 193 625 193 633 190 640 c 0
 189 643 183 646 178 646 c 0
 175 646 172 645 170 642 c 0
 154 617 138 598 118 575 c 0
 73 522 27 500 6 420 c 0
EndSplineSet
EndChar

StartChar: flags.d6
Encoding: 315 57893 293
Width: 240
Flags: MW
LayerCount: 2
Fore
SplineSet
0 787.833007812 m 1
 51.2275390625 792.982421875 105.564453125 814.2734375 168 926 c 0
 191 967 199 996 199 1024 c 0
 199 1058 187 1089 179 1134 c 0
 179 1137 178 1139 178 1141 c 0
 178 1154 185 1164 192 1167 c 0
 194 1168 196 1168 198 1168 c 0
 233 1168 240 1052 240 1032 c 2
 240 1021 l 1
 236 957 231 946 218 921 c 2
 214 914 l 2
 212 911 211 909 211 907 c 0
 211 904 214 901 214 898 c 0
 218 888 234 845 234 793 c 0
 234 759 227 721 211 692 c 1
 220 665 233 621 233 578 c 0
 233 568 233 558 231 549 c 0
 227 525 221 506 211 487 c 1
 221 461 234 417 234 375 c 0
 234 365 233 355 231 345 c 0
 220 281 196 253 126 177 c 0
 74 120 17 104 0 0 c 1
 0 787.833007812 l 1
6 409 m 0
 6 408 6 407 8 406 c 0
 65 406 126 432 183 528 c 0
 195 549 199 565 199 578 c 0
 199 586 197 592 196 599 c 0
 193 610 188 631 182 650 c 1
 168 632 150 612 126 586 c 0
 74 529 23 513 6 409 c 0
126 381 m 0
 68 318 19 296 6 202 c 1
 62 202 126 228 183 324 c 0
 195 345 199 361 199 374 c 0
 199 382 197 388 196 395 c 2
 183 445 l 1
 168 427 150 407 126 381 c 0
118 779 m 0
 73 726 27 704 6 624 c 0
 6 619 10 611 19 611 c 2
 24 611 l 2
 105 611 197 714 197 796 c 0
 197 804 196 813 195 821 c 0
 193 829 193 837 190 844 c 0
 189 847 183 850 178 850 c 0
 175 850 172 849 170 846 c 0
 154 821 138 802 118 779 c 0
EndSplineSet
EndChar

StartChar: flags.d7
Encoding: 316 57894 294
Width: 240
Flags: MW
LayerCount: 2
Fore
SplineSet
0 991.833007812 m 1
 51.2275390625 996.982421875 105.564453125 1018.2734375 168 1130 c 0
 191 1171 199 1200 199 1228 c 0
 199 1262 187 1293 179 1338 c 0
 179 1341 178 1343 178 1345 c 0
 178 1358 185 1368 192 1371 c 0
 194 1372 196 1372 198 1372 c 0
 233 1372 240 1256 240 1236 c 2
 240 1225 l 1
 236 1161 231 1150 218 1125 c 2
 214 1118 l 2
 212 1115 211 1113 211 1111 c 0
 211 1108 214 1105 214 1102 c 0
 218 1092 234 1049 234 997 c 0
 234 963 227 925 211 896 c 1
 220 869 233 825 233 782 c 0
 233 772 233 762 231 753 c 0
 227 729 221 710 211 691 c 1
 221 665 234 621 234 579 c 0
 234 549 225 514 211 487 c 1
 221 461 234 417 234 375 c 0
 234 365 233 355 231 345 c 0
 220 281 196 253 126 177 c 0
 74 120 17 104 0 0 c 1
 0 991.833007812 l 1
126 790 m 0
 74 733 23 717 6 613 c 0
 6 612 6 611 8 610 c 0
 65 610 126 636 183 732 c 0
 195 753 199 769 199 782 c 0
 199 790 197 796 196 803 c 0
 193 814 188 835 182 854 c 1
 168 836 150 816 126 790 c 0
6 202 m 1
 62 202 126 228 183 324 c 0
 195 345 199 361 199 374 c 0
 199 382 197 388 196 395 c 2
 183 445 l 1
 168 427 150 407 126 381 c 0
 68 318 19 296 6 202 c 1
6 406 m 1
 62 406 126 432 183 528 c 0
 195 549 199 565 199 578 c 0
 199 586 197 592 196 599 c 2
 183 649 l 1
 168 631 150 611 126 585 c 0
 68 522 19 500 6 406 c 1
118 983 m 0
 73 930 27 908 6 828 c 0
 6 823 10 815 19 815 c 2
 24 815 l 2
 105 815 197 918 197 1000 c 0
 197 1008 196 1017 195 1025 c 0
 193 1033 193 1041 190 1048 c 0
 189 1051 183 1054 178 1054 c 0
 175 1054 172 1053 170 1050 c 0
 154 1025 138 1006 118 983 c 0
EndSplineSet
EndChar

StartChar: flags.ugrace
Encoding: 317 57895 295
Width: 200
Flags: MW
LayerCount: 2
Fore
SplineSet
-154.25 -557.5 m 0
 -162.25 -557.5 -168.25 -553.5 -172.25 -547.5 c 0
 -176.25 -543.5 -178.25 -539.5 -178.25 -533.5 c 0
 -178.25 -525.5 -176.25 -515.5 -168.25 -511.5 c 2
 193.75 -235.5 l 2
 197.75 -232.5 204.75 -229.5 208.75 -229.5 c 0
 216.75 -229.5 222.75 -233.5 226.75 -239.5 c 0
 229.75 -243.5 230.75 -249.5 230.75 -253.5 c 0
 230.75 -261.5 227.75 -271.5 221.75 -275.5 c 2
 -139.25 -551.5 l 2
 -143.25 -554.5 -148.25 -557.5 -154.25 -557.5 c 0
EndSplineSet
EndChar

StartChar: flags.dgrace
Encoding: 318 57896 296
Width: 244
Flags: MW
LayerCount: 2
Fore
SplineSet
-109 524 m 0
 -103 524 -98 523 -94 520 c 2
 267 242 l 2
 273 238 276 231 276 223 c 0
 276 219 275 212 272 208 c 0
 268 202 262 199 254 199 c 0
 250 199 243 200 239 203 c 2
 -123 481 l 2
 -131 485 -133 492 -133 500 c 0
 -133 506 -131 511 -127 515 c 0
 -123 521 -117 524 -109 524 c 0
EndSplineSet
EndChar

StartChar: rests.M3neomensural
Encoding: 319 57897 297
Width: 300
Flags: MW
LayerCount: 2
Fore
SplineSet
290 -250 m 2
 210 -250 l 2
 204 -250 200 -246 200 -240 c 2
 200 240 l 2
 200 246 204 250 210 250 c 2
 290 250 l 2
 296 250 300 246 300 240 c 2
 300 -240 l 2
 300 -246 296 -250 290 -250 c 2
90 -250 m 2
 10 -250 l 2
 4 -250 0 -246 0 -240 c 2
 0 240 l 2
 0 246 4 250 10 250 c 2
 90 250 l 2
 96 250 100 246 100 240 c 2
 100 -240 l 2
 100 -246 96 -250 90 -250 c 2
EndSplineSet
EndChar

StartChar: rests.M2neomensural
Encoding: 320 57898 298
Width: 100
Flags: MW
LayerCount: 2
Fore
SplineSet
90 -250 m 2
 10 -250 l 2
 4 -250 0 -246 0 -240 c 2
 0 240 l 2
 0 246 4 250 10 250 c 2
 90 250 l 2
 96 250 100 246 100 240 c 2
 100 -240 l 2
 100 -246 96 -250 90 -250 c 2
EndSplineSet
EndChar

StartChar: rests.M1neomensural
Encoding: 321 57899 299
Width: 100
Flags: MW
LayerCount: 2
Fore
SplineSet
90 0 m 2
 10 0 l 2
 4 0 0 4 0 10 c 2
 0 240 l 2
 0 246 4 250 10 250 c 2
 90 250 l 2
 96 250 100 246 100 240 c 2
 100 10 l 2
 100 4 96 0 90 0 c 2
EndSplineSet
EndChar

StartChar: rests.0neomensural
Encoding: 322 57900 300
Width: 100
Flags: MW
LayerCount: 2
Fore
SplineSet
90 -156 m 2
 10 -156 l 2
 4 -156 0 -152 0 -146 c 2
 0 -10 l 2
 0 -4 4 0 10 0 c 2
 90 0 l 2
 96 0 100 -4 100 -10 c 2
 100 -146 l 2
 100 -152 96 -156 90 -156 c 2
EndSplineSet
EndChar

StartChar: rests.1neomensural
Encoding: 323 57901 301
Width: 100
Flags: MW
LayerCount: 2
Fore
SplineSet
90 0 m 2
 10 0 l 2
 4 0 0 4 0 10 c 2
 0 146 l 2
 0 152 4 156 10 156 c 2
 90 156 l 2
 96 156 100 152 100 146 c 2
 100 10 l 2
 100 4 96 0 90 0 c 2
EndSplineSet
EndChar

StartChar: rests.2neomensural
Encoding: 324 57902 302
Width: 200
Flags: MW
LayerCount: 2
Fore
SplineSet
200 125 m 0
 200 110 188 100 175 100 c 0
 172 100 170 100 167 101 c 2
 50 140 l 1
 50 25 l 2
 50 11 39 0 25 0 c 0
 11 0 0 11 0 25 c 2
 0 175 l 2
 0 189 12 200 25 200 c 0
 28 200 30 200 33 199 c 2
 183 149 l 2
 193 146 200 135 200 125 c 0
EndSplineSet
EndChar

